<?xml version="1.0" encoding="utf-8"?>
<!-- Generator: Adobe Illustrator 18.0.0, SVG Export Plug-In . SVG Version: 6.00 Build 0)  -->
<!DOCTYPE svg PUBLIC "-//W3C//DTD SVG 1.1//EN" "http://www.w3.org/Graphics/SVG/1.1/DTD/svg11.dtd">
<svg version="1.1" id="Layer_1" xmlns="http://www.w3.org/2000/svg" xmlns:xlink="http://www.w3.org/1999/xlink" x="0px" y="0px"
	 viewBox="-4.2 522.9 400.2 75" enable-background="new -4.2 522.9 400.2 75" xml:space="preserve">
<g>
	<g>
		<path fill="#1CBCBB" d="M313.9,550.7c1.3,0,2.7,0,4.1,0c1.1,0,2.2,0.1,3.3,0.4c0.9,0.2,1.6,0.7,2.3,1.1c0.4,0.2,0.7,0.7,1.1,1.1
			c1.1,2.2,1.1,4.5-0.2,6.7c-0.5,0.9-1.5,1.5-2.3,1.8c-0.7,0.2-0.7,0.2-0.1,0.7c0.9,1.1,1.6,2.5,2.3,3.7c0.2,0.4,0.5,0.7,0.7,1.1
			c0.1,0.2,0.2,0.4,0.5,0.2c0.1,0,0.4,0,0.5,0c1.1,0.1,1.7,0.7,1.8,1.8c0,0.4,0,0.7-0.1,1.1c-0.1,0.5-0.4,0.7-0.9,0.9
			c-0.2,0.1-0.5,0.1-0.7,0.1c-1.1,0.1-2.2,0.1-3.2,0c-0.7,0-1.1-0.4-1.5-0.9c-0.7-0.9-1.3-2-2-2.9c-0.9-1.3-1.7-2.7-2.7-3.9
			c-0.4-0.7-0.9-0.9-1.7-0.9c-1.3,0-1.1-0.1-1.1,1.1c0,0.9,0,1.8,0,2.7c0,0.5,0,0.5,0.5,0.7c1.1,0.1,1.6,0.7,1.7,1.7
			c0,0.5,0,0.9-0.1,1.3c-0.1,0.4-0.5,0.7-0.9,0.7c-0.4,0.1-0.9,0.1-1.5,0.1c-1.5,0-2.9,0-4.3,0c-0.4,0-0.9,0-1.3-0.1
			c-0.5-0.1-0.9-0.5-1.1-1.1c-0.1-0.4-0.1-0.7-0.1-1.1c0-1.1,0.7-1.6,1.6-1.7c0.5-0.1,0.5-0.1,0.5-0.7c0-3.9,0-7.9,0-11.8
			c0-0.7,0-0.7-0.7-0.7c-0.9-0.1-1.5-0.7-1.6-1.7c0-0.2,0-0.4,0-0.7c0.1-0.9,0.5-1.6,1.6-1.7c0.2,0,0.7-0.1,1.1-0.1
			C311.2,550.7,312.7,550.7,313.9,550.7z M314.2,557.1c0,0.7,0,1.1,0,1.8c0,0.5,0.1,0.5,0.5,0.5c0.9,0,1.8,0,2.9,0
			c0.5,0,1.1-0.1,1.6-0.2c0.7-0.2,1.1-0.7,1.1-1.3c0.1-0.5,0.1-0.9,0-1.5c-0.1-0.7-0.5-1.1-1.1-1.5c-0.4-0.1-0.7-0.2-1.1-0.2
			c-1.1,0-2,0-3.1,0c-0.5,0-0.5,0.1-0.5,0.7C314.2,556,314.2,556.6,314.2,557.1z"/>
		<path fill="#1CBCBB" d="M228.8,560.2c-0.1,0.1-0.1,0.4-0.2,0.5c-0.9,3.1-1.8,6.4-2.9,9.5c-0.4,1.5-0.7,1.7-2.2,1.7
			c-0.4,0-0.7,0-1.1-0.1c-0.5-0.1-0.7-0.4-0.9-0.9c-0.1-0.5-0.1-1.1-0.2-1.6c-0.2-2.7-0.7-5.7-0.9-8.4c-0.2-2-0.4-3.8-0.7-5.8
			c-0.1-0.5-0.1-0.7-0.7-0.7c-0.9-0.1-1.5-0.7-1.6-1.6c-0.1-0.5,0-0.9,0.1-1.5c0.1-0.7,0.7-0.9,1.3-1.1c0.2-0.1,0.7-0.1,0.9-0.1
			c1.5,0,2.7,0,4.2,0c0.4,0,0.9,0.1,1.3,0.1c0.4,0.1,0.7,0.4,0.9,0.7c0.2,0.7,0.2,1.3,0,2c-0.2,0.7-0.7,1.1-1.5,1.1
			c-0.9,0.1-0.9,0-0.9,1.1c0.1,0.7,0.1,1.6,0.1,2.2c0.1,2,0.2,4.1,0.4,6c0,0,0,0.1,0.1,0.1c0.2-0.9,0.5-1.8,0.7-2.7
			c0.4-1.5,0.7-2.7,1.1-4.2c0.4-1.1,1.1-1.8,2.3-1.8c1.1,0,2,0.7,2.2,1.8c0.4,1.3,0.7,2.7,1.1,3.9c0.2,0.7,0.4,1.5,0.7,2.2
			c0,0.1,0,0.4,0.2,0.5c0.1,0,0.1-0.2,0.1-0.4c0.1-2.3,0.2-4.7,0.4-7c0-0.5,0.1-0.9,0.1-1.5c0-0.2-0.1-0.4-0.4-0.5
			c-0.1,0-0.4,0-0.5-0.1c-0.9-0.1-1.5-0.7-1.6-1.6l0,0c-0.1-1.6,0.5-2.3,2.2-2.5c1.6,0,3.1,0,4.5,0c0.1,0,0.4,0,0.5,0.1
			c1.1,0.1,1.6,0.7,1.7,1.8c0,0.2,0,0.5,0,0.7c-0.1,0.7-0.7,1.3-1.5,1.5c-0.7,0.1-0.7,0.1-0.7,0.7c-0.2,2.9-0.7,5.9-0.9,8.7
			c-0.2,2-0.5,4.1-0.7,6c-0.1,1.1-0.4,1.5-1.7,1.6c-0.4,0-0.9,0-1.3,0c-0.5-0.1-0.9-0.2-1.1-0.7c-0.1-0.2-0.2-0.5-0.2-0.9
			c-1.1-3.2-2-6.4-3.1-9.7C229,560.5,229,560.4,228.8,560.2z"/>
		<path fill="#1CBCBB" d="M377.4,556.5c0.1,0,0.2-0.2,0.4-0.4c1.3-1.5,4.7-1.7,6,0.1c0.2,0.2,0.2,0.2,0.7,0c1.6-1.3,3.3-1.6,5.4-0.9
			c1.1,0.4,1.8,1.1,2.2,2.3c0.4,1.1,0.5,2.1,0.5,3.1c0,2.1,0,4.2,0,6.3c0,0.1,0,0.2,0,0.4c0,0.5,0,0.5,0.5,0.5
			c0.7,0.1,1.1,0.5,1.5,1.3c0.1,0.5,0.1,1.1,0,1.6c-0.1,0.5-0.5,0.9-1.1,1.1c-0.4,0.1-0.7,0.1-1.1,0.1c-0.9,0-1.7,0-2.7,0
			c-0.1,0-0.1,0-0.2,0c-0.9,0-1.1-0.4-1.1-1.3c0-3.2,0-6.4,0-9.7c0-0.4,0-0.7-0.1-1.1c-0.1-0.5-0.4-0.9-0.9-1.1
			c-0.7-0.1-1.1,0-1.6,0.5c-0.4,0.5-0.5,1.1-0.5,1.7c0,0.1,0,0.2,0,0.4c0,2,0,3.8,0,5.8c0,0.5,0,0.5,0.5,0.7
			c0.7,0.1,1.1,0.5,1.3,1.3c0.1,0.5,0.1,1.1,0,1.6c-0.1,0.7-0.5,0.9-1.1,1.1c-0.2,0-0.5,0.1-0.7,0.1c-1.1,0-2,0-3.1,0
			c-0.1,0-0.4,0-0.5-0.1c-0.4-0.1-0.5-0.4-0.5-0.7c0-0.1,0-0.4,0-0.5c0-3.1,0-6.3,0-9.5c0-0.5,0-0.9-0.1-1.5
			c-0.2-1.1-1.5-1.3-2.2-0.5c-0.5,0.5-0.7,1.1-0.7,1.8c0,0.2,0,0.7,0,1.1c0,1.7,0,3.3,0,5.1c0,0.1,0,0.4,0,0.5
			c0,0.1,0.1,0.2,0.2,0.4c0.1,0,0.1,0,0.2,0c0.7,0.1,1.1,0.5,1.1,1.1c0.1,0.7,0.1,1.1,0,1.8c-0.1,0.5-0.5,0.9-1.1,0.9
			c-0.2,0.1-0.5,0.1-0.9,0.1c-1.3,0-2.7,0-4.1,0c-0.2,0-0.5,0-0.7-0.1c-0.5-0.1-0.9-0.5-1.1-1.1c-0.1-0.5-0.1-1.1,0-1.6
			c0.1-0.7,0.7-1.1,1.3-1.3c0.5-0.1,0.5-0.1,0.5-0.7c0-2.5,0-4.8,0-7.4c0-0.5,0-0.5-0.5-0.5c-0.7-0.1-1.1-0.5-1.3-1.3
			c-0.1-0.5-0.1-1.1,0-1.6c0.1-0.5,0.5-0.9,1.1-1.1c0.2-0.1,0.5-0.1,0.9-0.1c0.7,0,1.5,0,2.2,0l0,0
			C376.9,555.4,377.1,555.6,377.4,556.5z"/>
		<path fill="#1CBCBB" d="M141,550.7c2.5,0,4.9,0,7.5,0c0.4,0,0.9,0,1.3,0.1c0.4,0.1,0.7,0.4,0.9,0.7c0.1,0.2,0.1,0.7,0.1,0.9
			c0,0.9,0.1,1.7,0.1,2.7c0,1.1,0.1,2.2,0.1,3.2c0,0.4,0,0.7-0.1,1.1c-0.1,0.5-0.5,0.7-0.9,0.9c-0.7,0.1-1.3,0.1-2-0.1
			c-0.5-0.2-0.7-0.7-0.7-1.3c0-1.1-0.1-2.3-0.1-3.6c0-0.1,0-0.1,0-0.2c0-0.2-0.1-0.4-0.4-0.4c-0.9,0-1.8,0-2.9,0
			c-0.2,0-0.2,0.1-0.4,0.2c0,0.1,0,0.2,0,0.5c0,3.8,0,7.6,0,11.4l0,0c0,0.7,0,0.7,0.7,0.7c0.9,0,1.8,0,2.7,0.1
			c0.2,0,0.5,0.1,0.7,0.1c0.2,0.1,0.5,0.2,0.7,0.7c0.7,1.3,0,3.1-1.5,3.2c-0.2,0-0.5,0.1-0.9,0.1c-3.2,0-6.7,0-10,0
			c-0.4,0-0.7,0-1.1-0.1c-1.1-0.1-1.8-0.9-1.7-2.2c0.1-1.1,0.7-1.7,1.7-1.8c0.7-0.1,1.6-0.1,2.5-0.1c0.1,0,0.4,0,0.5,0
			c0.2,0,0.4-0.1,0.4-0.4c0-0.1,0-0.2,0-0.5c0-3.8,0-7.5,0-11.3c0-0.9,0-0.9-0.9-0.9c-0.7,0-1.5,0-2.1,0c-0.5,0-0.5,0-0.5,0.5
			c0,1.1-0.1,2.2-0.1,3.2c0,0.2,0,0.5-0.1,0.7c-0.1,0.2-0.1,0.4-0.2,0.5c-0.5,0.7-1.3,0.7-2.1,0.7c-0.7-0.1-1.1-0.5-1.3-1.3
			c0-0.1-0.1-0.4-0.1-0.5c0-1.1,0-2.1,0.1-3.2c0-0.7,0-1.5,0.1-2.2c0-0.5,0.1-1.1,0.1-1.6c0.1-0.5,0.4-0.9,1.1-0.9
			c0.4-0.1,0.7-0.1,1.1-0.1C136,550.7,138.4,550.7,141,550.7z"/>
		<path fill="#1CBCBB" d="M160.2,556.7c0.2-0.1,0.4-0.4,0.5-0.5c0.7-0.5,1.3-0.9,2.1-1.1c1.3-0.2,2.7-0.2,3.9,0.1
			c1.7,0.5,2.9,1.8,3.3,3.6c0.2,0.7,0.2,1.7,0.2,2.5c0,1.8,0,3.8,0,5.7c0,0.1,0,0.2,0,0.5c0,0.2,0.1,0.4,0.4,0.5
			c1.5,0.2,2,1.1,1.8,2.5c-0.1,0.9-0.5,1.3-1.5,1.5c-0.4,0.1-0.7,0.1-1.1,0.1c-1.3,0-2.7,0-3.9,0c-0.2,0-0.5,0-0.9-0.1
			c-1.1-0.1-1.6-0.7-1.7-2c0-1.1,0.5-1.8,1.7-2c0.4-0.1,0.5-0.1,0.5-0.5c0-2,0-3.9,0-5.9c0-0.4-0.1-0.7-0.2-1.1
			c-0.2-0.9-0.9-1.5-2-1.5c-1.5,0-2.3,0.7-3.1,1.8c-0.2,0.5-0.5,1.1-0.5,1.7c0,1.6,0,3.2,0,4.9c0,0.5,0,0.5,0.5,0.5
			c1.1,0.1,1.6,0.7,1.7,1.7c0,0.2,0,0.5,0,0.9c-0.1,0.7-0.7,1.3-1.5,1.5c-0.4,0-0.7,0.1-1.1,0.1c-1.5,0-2.7,0-4.2,0
			c-0.4,0-0.7,0-1.1-0.1c-0.7-0.1-1.1-0.5-1.1-1.1c-0.1-0.4-0.1-0.9,0-1.3c0.1-0.7,0.7-1.1,1.5-1.5c0.1,0,0.2,0,0.5,0
			s0.2-0.1,0.2-0.4c0-0.1,0-0.2,0-0.5c0-4.7,0-9.2,0-13.7v-0.3c0-0.7,0-0.7-0.7-0.7c-1.1-0.2-1.6-0.7-1.6-1.8c0-1.6,0.5-2.2,2.1-2.2
			c1.1,0,2.2,0,3.3,0c1.1,0,1.3,0.2,1.3,1.3c0,2.1,0,4.2,0,6.2C160.1,556.4,160.1,556.5,160.2,556.7z"/>
		<path fill="#1CBCBB" d="M186.4,564.9c-1.8,0-3.7,0-5.5,0c-0.7,0-0.7,0.1-0.5,0.7c0.7,1.8,2.2,2.7,4.2,2.9c2.2,0.1,4.2-0.5,6.2-1.6
			c0.2-0.1,0.7-0.4,1.1-0.5c1.1-0.4,2,0.2,2.2,1.5c0.1,0.7-0.1,1.5-0.7,2c-0.5,0.7-1.3,1.1-2.1,1.5c-1.3,0.7-2.7,0.9-4.3,1.1
			c-2,0.1-3.9,0.1-5.9-0.7c-2.9-1.1-4.8-3.1-5.5-6.3c-0.5-2.7,0-5.2,1.8-7.4c0.9-1.1,2.1-2,3.3-2.3c2.9-1.1,5.7-1.1,8.5,0.1
			c2.5,1.1,4.1,2.9,4.7,5.7c0.1,0.7,0.2,1.5,0.1,2.1c-0.1,0.7-0.5,0.9-1.1,1.1c-0.5,0.1-0.9,0.1-1.5,0.1
			C190,564.9,188.1,564.9,186.4,564.9z M184.9,561.8c1.5,0,2.7,0,4.2,0c0.5,0,0.5,0,0.4-0.5c-0.4-1.5-1.5-2.2-2.7-2.7
			c-1.1-0.2-2.1-0.2-3.1-0.1c-1.1,0.1-2.1,0.7-2.7,1.8c-0.1,0.2-0.4,0.7-0.5,1.1c-0.1,0.2,0,0.4,0.2,0.4c0.1,0,0.2,0,0.4,0
			C182.2,561.8,183.6,561.8,184.9,561.8z"/>
		<path fill="#1CBCBB" d="M258.3,564c0,1.1,0,2.2,0,3.2c0,0.7,0,0.7,0.5,0.7c0.9,0.1,1.5,0.7,1.7,1.6c0.1,0.4,0,0.7,0,1.1
			c-0.1,0.5-0.5,1.1-1.1,1.1c-0.1,0-0.4,0.1-0.5,0.1c-0.9,0.1-1.8,0.1-2.7,0c-0.7,0-1.1-0.4-1.6-1.1c-0.1-0.4-0.2-0.4-0.7-0.1
			c-1.5,0.7-2.9,1.5-4.5,1.6c-1.1,0.1-2.5,0.1-3.7-0.1c-3.6-0.9-5.1-4.7-3.2-7.9c0.5-1.1,1.5-1.7,2.5-2.2c1.1-0.5,2.1-0.7,3.2-0.7
			c1.7-0.1,3.3-0.1,5.1,0.1c0.5,0.1,0.5,0,0.5-0.5c0-1.6-0.9-2.7-2.7-2.7c-0.7,0-1.6,0.1-2.2,0.4c-0.7,0.4-1.6,0.7-2.5,1.1
			c-0.5,0.2-1.1,0.2-1.7,0.2c-1.5-0.2-2-2-1.1-3.1c0.4-0.5,0.9-0.9,1.6-1.1c1.1-0.5,2.5-0.7,3.8-0.9c1.3-0.1,2.7-0.1,3.8,0
			c0.7,0.1,1.6,0.2,2.3,0.5c1.3,0.5,2.2,1.5,2.7,2.7c0.2,0.7,0.5,1.6,0.5,2.5C258.3,561.8,258.3,563,258.3,564L258.3,564z
			 M253.7,566.1c0-0.2,0-0.5,0-0.7c0-0.7,0-0.7-0.7-0.7c-1.1-0.2-2.5-0.2-3.7-0.1c-0.7,0.1-1.1,0.2-1.7,0.5
			c-0.7,0.5-1.1,1.3-0.9,2.2c0.1,0.7,0.7,1.1,1.5,1.5c0.1,0,0.4,0.1,0.7,0.1c1.6,0.1,2.9-0.2,4.3-0.9c0.4-0.2,0.7-0.5,0.7-1.1
			C253.7,566.4,253.7,566.3,253.7,566.1z"/>
		<path fill="#1CBCBB" d="M360.9,555c1.5,0,2.9,0.1,4.3,0.7c3.9,1.6,6,5.4,5.2,9.5c-0.5,3.1-2.3,5.2-5.2,6.3
			c-3.1,1.1-6.4,1.1-9.5-0.2c-5.8-2.7-5.9-10-2.5-13.5c1.6-1.6,3.3-2.5,5.7-2.7C359.7,555,360.3,555,360.9,555z M365.5,563.7
			c0-2.3-1.5-4.5-4.1-4.7c-1.8-0.1-3.3,0.4-4.5,2c-0.7,0.9-0.7,2-0.7,3.1c0.1,3.3,3.2,5.4,6.5,4.2
			C364.5,567.5,365.5,565.7,365.5,563.7z"/>
		<path fill="#1CBCBB" d="M338.9,555c1.7,0,3.2,0.1,4.8,0.9c2.9,1.3,4.7,3.7,4.9,6.8c0.2,2.9-0.7,5.5-2.9,7.5
			c-1.3,1.1-2.9,1.8-4.5,2.1c-2.2,0.4-4.5,0.2-6.5-0.5c-2.3-0.9-4.2-2.3-5.1-4.7c-1.8-4.8,0.4-10.1,6-11.7
			C336.8,555,337.8,554.9,338.9,555z M343.6,563.9c0-2.7-1.6-4.7-4.1-4.9c-1.8-0.1-3.7,0.5-4.7,2.2c-0.5,0.9-0.7,1.8-0.5,2.9
			c0.1,1.7,0.9,3.1,2.5,3.9c1.6,0.7,3.2,0.7,4.8-0.2C343,566.7,343.5,565.5,343.6,563.9z"/>
		<path fill="#1CBCBB" d="M272,558.5c0.2,0,0.2-0.2,0.4-0.4c0.9-0.9,1.8-1.6,2.9-2.2c1.7-0.9,3.6-1.3,5.4-0.7c1.1,0.2,2,0.9,2.2,2.2
			c0.4,1.8-1.1,3.3-2.9,3.1c-0.5-0.1-0.9-0.2-1.3-0.4c-0.1-0.1-0.4-0.1-0.5-0.2c-0.9-0.7-1.8-0.4-2.7,0.1c-1.1,0.7-2,1.5-2.9,2.3
			c-0.1,0.1-0.2,0.4-0.2,0.7c0,1.6,0,3.1,0,4.7c0,0.5,0,0.5,0.5,0.5c1.1,0,2.5,0,3.7,0c0.4,0,0.7,0,1.1,0.1c0.7,0.1,1.1,0.5,1.1,1.1
			c0.1,0.4,0.1,0.9,0,1.3c-0.1,0.7-0.5,1.1-1.1,1.3c-0.4,0.1-0.7,0.1-1.1,0.1c-3.2,0-6.5,0-9.7,0c-0.5,0-0.9,0-1.5-0.2
			c-0.5-0.1-0.7-0.5-0.9-1.1c-0.1-0.5-0.1-0.9-0.1-1.5c0.1-0.7,0.5-1.1,1.1-1.3c0.4-0.1,0.9-0.1,1.3-0.1c0.2,0,0.5,0,0.7,0
			c0.2,0,0.2-0.1,0.4-0.4c0-0.1,0-0.2,0-0.4c0-2.3,0-4.7,0-7c0-0.1,0-0.1,0-0.2c0-0.4-0.1-0.5-0.5-0.5s-0.7,0-1.1-0.1
			c-0.7-0.1-1.1-0.7-1.3-1.5c0-0.4,0-0.7,0-1.1c0.1-0.7,0.5-1.1,1.1-1.3c0.4-0.1,0.7-0.1,1.1-0.1c1.1,0,2.2,0,3.3,0
			c0.1,0,0.4,0,0.5,0c0.7,0.1,0.9,0.4,0.9,0.9s0,1.1,0,1.6C271.8,558.2,271.8,558.3,272,558.5z"/>
	</g>
	<polygon fill="#1CBCBB" points="122.1,542.8 122.2,577.6 60.3,595.2 -1.5,577.8 -1.7,543 60.2,525.5 	"/>
	<g>
		<g>
			<path fill="none" stroke="#000000" stroke-miterlimit="10" d="M51.8,534.5"/>
		</g>
	</g>
	<g>
		<path fill="#1A4922" d="M5.1,544c0.1,0,0.3-0.1,0.5-0.1s0.4-0.1,0.6-0.1c0.1,0,0.3-0.1,0.4,0.1l0.1,0.1h0.1c0-0.1,0-0.1,0-0.1
			l-0.1-0.1c-0.3,0-0.6-0.3-1.1-0.3c-0.1,0-0.1-0.1-0.1-0.1c0-0.1,0.1-0.1,0.1-0.2s0.2-0.1,0.3-0.1c0.3,0,0.6-0.1,0.8-0.3
			c0-0.1,0.1-0.1,0.1-0.1c0.3,0,0.6-0.2,0.9-0.2c0.2,0,0.4-0.1,0.6-0.1c0.1-0.1,0.3-0.1,0.5,0c0.3,0.1,0.5,0.1,0.7,0.1
			c0.1,0,0.2,0,0.3,0c0.2,0.1,0.5,0.1,0.7,0.1c0.2,0,0.4,0,0.6,0.1c0.3,0.1,0.6,0.1,0.9,0.1c0.5-0.1,0.9,0.1,1.5,0.1
			c0.2,0,0.5,0,0.7,0.1c0.1,0.1,0.3,0.1,0.5,0.1c0.2-0.1,0.4-0.1,0.6,0h0.1c0.5-0.1,1.1-0.3,1.6-0.4c0.1,0,0.1-0.1,0.1-0.1
			c0.2-0.1,0.4-0.1,0.5,0.1c0.1,0.1,0.1,0.1,0.1,0.1c0.2,0.1,0.2,0.1,0.4,0c0.1-0.1,0.2-0.1,0.3,0c0.1,0.1,0.1,0.1,0.2,0.1
			c0.3-0.1,0.6-0.1,0.9,0c0.3,0.1,0.6,0.1,0.9,0.2c0.1,0,0.1,0,0.1-0.1c0-0.1,0.1-0.1,0-0.2c-0.1-0.1-0.1,0-0.2-0.1
			c-0.1,0-0.2-0.1-0.3-0.1c-0.1-0.1,0-0.2-0.1-0.3c-0.1,0-0.1-0.1,0-0.1c0.1-0.1,0.1-0.1,0.1-0.1c-0.2,0.1-0.4,0.1-0.5,0.3
			c0,0,0,0.1-0.1,0.1c-0.1,0.1-0.8,0.2-0.9,0.1c-0.2-0.1-0.4-0.2-0.6-0.2c-0.1,0-0.1,0-0.2-0.1c0-0.1,0.1-0.1,0.1-0.1
			c0.1-0.1,0.2-0.3,0.3-0.3c0.1-0.1,0.1-0.1,0-0.2c-0.1,0-0.1-0.1-0.1-0.1s0.1-0.1,0.1-0.1c0.4-0.1,0.9-0.1,1.3,0
			c0.1,0.1,0.3,0.1,0.5,0s0.5,0,0.6,0.1s0.1,0.1,0.2,0.3c0.1,0,0.1,0,0.2-0.1c0.1,0,0.2,0,0.2,0.1c0.1,0.1,0.1,0.1,0.2,0.1
			c0.2-0.1,0.4-0.1,0.6,0c0.3,0.1,0.5,0.1,0.7,0.1c0.1,0,0.1,0,0.2,0.1c0.1-0.1,0-0.1,0-0.2c0-0.1,0.1-0.2,0.2-0.2s0.2,0.1,0.3,0.1
			c0.1,0.1,0.3,0.1,0.4,0.3c0.1,0.2,0.3,0.3,0.4,0.5c0.1,0.1,0.1,0.1,0.2,0.1c0.1,0,0.3,0.1,0.4,0.1c0.2,0.1,0.3,0.2,0.1,0.3
			c-0.2,0.2-0.4,0.4-0.7,0.3c-0.1,0-0.1,0-0.1,0.1c0.6,0.2,1.3,0.1,1.9,0.1c0-0.1-0.1-0.1-0.1-0.1c-0.1,0-0.1,0-0.2,0
			s-0.1-0.1-0.1-0.1s0.1-0.1,0.1-0.1c0.3-0.1,0.5-0.3,0.7,0c0.1,0.1,0.1,0.1,0.3,0.1c0.1,0.1,0.1,0.1,0.1,0.3
			c-0.1,0.1-0.1,0.1,0,0.1c0.1-0.1,0.1-0.1,0.2-0.1s0.1-0.1,0.2-0.1s0.1-0.1,0.1-0.1c0-0.1-0.1-0.1-0.1-0.1
			c-0.1-0.1-0.3-0.1-0.4-0.1c-0.2-0.1-0.3-0.2-0.3-0.3c-0.1-0.3-0.1-0.3-0.3-0.2c-0.2,0.1-0.3,0.1-0.5-0.1c-0.2-0.1-0.4-0.2-0.6-0.2
			c-0.1,0-0.1-0.1-0.3-0.1s-0.1-0.1-0.1-0.2c0.1-0.1,0.1-0.1,0.2-0.1c0.1,0,0.1,0.1,0.2,0.1c0.1,0.1,0.3,0,0.3-0.1
			c0.1-0.2,0.2-0.2,0.3-0.2c0.1,0,0.2-0.1,0.3-0.1c0.3,0,0.5,0.1,0.5,0.5c0,0.1,0.1,0.2,0.1,0.3c0,0.1,0.1,0.1,0.2,0.1
			s0.1-0.1,0.1-0.1c-0.1-0.2-0.1-0.4,0-0.5c0.1-0.1,0.1-0.1,0.3-0.2h0.1c0.3,0,0.7,0,1.1,0.1c0.1,0,0.1,0,0.2,0.1
			c0,0.1-0.1,0.1-0.1,0.2c-0.1,0.1-0.2,0.1-0.3,0.2s-0.3,0.1-0.5,0.1c-0.1,0-0.1,0-0.1,0.1s0.1,0.1,0.1,0.1c0.1,0.1,0.3,0.3,0.3,0.5
			c0,0.1,0.1,0.1,0.1,0.2c0.1,0.1,0.3,0,0.4,0s0.3,0.1,0.3,0.2c0.1,0,0.1-0.1,0.2-0.1c0.1-0.1,0.1-0.1,0.3,0
			c0.1,0.1,0.3,0.2,0.3,0.3s0.1,0.1,0.2,0s0.2-0.3,0.2-0.4c0-0.1-0.1-0.2-0.2-0.2s-0.2,0-0.3,0c-0.3,0-0.6-0.2-0.7-0.5
			c0-0.1-0.1-0.1,0-0.1c0.1-0.2,0.2-0.5,0.5-0.6c0.1,0,0.2-0.1,0.3-0.1c-0.3,0-0.5-0.1-0.7-0.1s-0.3-0.1-0.5-0.1
			c-0.1,0-0.1-0.1-0.2-0.2c-0.1-0.3-0.3-0.3-0.6-0.3c-0.3,0.1-0.5-0.1-0.8-0.1c-0.1,0-0.1-0.1-0.1-0.1c0-0.1,0.1-0.1,0.1-0.1
			c0.3-0.1,0.6-0.1,0.9,0c0.1,0,0.2,0.1,0.3,0.1c0.2,0,0.4,0,0.6,0.1c0.2,0.1,0.4-0.1,0.5-0.2c0.1-0.1,0.1-0.1-0.1-0.2
			c-0.1,0-0.1,0-0.2,0c-0.5,0.1-0.9-0.1-1.3-0.3c-0.1-0.1-0.2-0.1-0.3-0.1c-0.1,0-0.1-0.1-0.1-0.1s0.1-0.1,0.1-0.1
			c0.1,0,0.1-0.1,0.1-0.1c0.1,0,0.1-0.1,0.1-0.1c0-0.1-0.1-0.2,0.1-0.3c0.1-0.1,0.3-0.1,0.4-0.1c0.2,0,0.3,0.1,0.5,0.1
			c0.1,0.1,0.3,0.1,0.5,0.1c0-0.1,0-0.1,0-0.1c-0.1-0.2,0-0.2,0.1-0.3c0.2-0.1,0.4-0.1,0.6-0.1c0.2,0.1,0.4,0.1,0.6-0.1
			c0.1-0.1,0.1,0,0.3,0c0.1,0.1,0.3,0.1,0.5-0.1c0.1-0.1,0.3-0.1,0.5-0.1c0.3,0,0.5,0,0.7,0c0.3,0,0.7-0.1,0.9-0.1
			c0.1,0,0.3,0,0.4,0.1c0.1,0,0.2,0,0.3,0c0.1-0.1,0.2-0.1,0.3,0c0.5,0.1,1.1,0,1.5,0c0.3,0,0.7,0,1.1,0.1c0.2,0,0.4,0.1,0.6,0.1
			c0.1,0,0.1,0,0.1,0.1c0,0.1-0.1,0.1-0.1,0.1c-0.2,0.1-0.4,0.1-0.5,0.1c-0.1,0-0.1,0-0.2,0.1c0.3-0.1,0.5-0.1,0.7,0
			c0.1,0,0.1,0,0.1-0.1c0.2-0.2,0.5-0.2,0.8-0.3c0.3,0,0.5-0.1,0.8-0.1c0.2,0,0.5,0,0.6,0.2c0.1-0.2,0.2-0.2,0.4-0.1
			c0.1,0.1,0.2,0.1,0.3,0c0.2-0.1,0.5-0.1,0.7-0.1s0.5,0,0.7-0.1c0.3-0.1,0.7-0.1,1.1-0.1c0.1,0,0.2,0,0.3,0.1
			c0.3,0.1,0.6,0.1,0.9,0c0.5-0.1,0.9-0.3,1.5-0.2c0.4,0,0.9,0,1.3,0s0.7,0.1,1.1,0.1c0.1,0,0.1,0,0.2,0.1c0.2,0.1,0.5,0.1,0.7,0.1
			c0.2,0,0.3,0,0.5,0.1c0.1,0,0.1,0.1,0,0.1c-0.1,0-0.1,0.1-0.1,0.1c-0.1,0-0.1,0.1-0.1,0.1c0,0.1,0.1,0.1,0.1,0.1
			c0.3-0.1,0.5-0.1,0.9,0c0.1,0,0.1,0,0.1,0c0.4-0.1,0.8-0.1,1.3-0.1c0.1,0,0.2,0,0.3,0c0.1,0,0.1,0,0.2,0.1c0.1,0,0.1,0.1,0.1,0.1
			c0,0.1-0.1,0.1-0.1,0.1c-0.2,0.1-0.4,0.1-0.6,0.2c-0.3,0.1-0.5,0.1-0.7,0.3c-0.3,0.1-0.7,0.3-1.1,0.4c-0.1,0-0.1,0-0.1,0.1
			c0.1,0,0.2,0.1,0.3,0.1c0.2,0,0.3,0.1,0.5,0.3c0.1,0.1,0.1,0.2-0.1,0.3c-0.1,0-0.1,0-0.3,0c-0.3-0.1-0.3-0.1-0.5,0
			c0.1,0.1,0.1,0,0.2,0.1c0.1,0,0.1,0,0.2,0.1c0.1,0.1,0.2,0.1,0.2,0.3s-0.1,0.2-0.2,0.2c-0.2,0-0.3,0.1-0.4,0.2
			c-0.1,0.1-0.1,0.1-0.1,0.2c0.1,0.1,0,0.1-0.1,0.1c-0.1,0.1-0.3,0.1-0.4,0.1c-0.2,0-0.4,0-0.6,0c-0.1,0-0.1,0-0.1,0.1
			c0.1,0.1,0.1,0.1,0.3,0.1c0.3,0,0.5,0.1,0.7,0.2c0.1,0.1,0.2,0.2,0.2,0.3c0.1,0.1-0.1,0.2-0.1,0.3c-0.2,0.2-0.5,0.3-0.7,0.3
			c-0.2,0.1-0.5,0.2-0.7,0.3c-0.5,0.1-0.9,0.2-1.5,0.2c-0.2,0-0.4,0.1-0.5,0.2c-0.2,0.3-0.5,0.3-0.9,0.4c-0.4,0.1-0.8,0.1-1.3,0.2
			c0,0.1,0,0.3,0,0.3c-0.1,0.2-0.1,0.3-0.4,0.3c-0.1,0-0.1,0-0.1,0c-0.2,0.1-0.2,0.1-0.1,0.3c0.1,0.1,0.1,0.2,0,0.3
			c-0.1,0.1-0.1,0.1-0.1,0.3c-0.1,0.2-0.2,0.3-0.3,0.3c-0.2,0-0.5,0.1-0.5-0.2c0-0.1-0.1-0.1-0.1-0.1c-0.1,0.1-0.2,0-0.3,0
			c-0.2,0-0.3-0.1-0.5-0.2c-0.1-0.1-0.1-0.1-0.2-0.1c-0.3-0.1-0.3-0.3-0.5-0.6c-0.1-0.1,0.1-0.1,0.1-0.2s0-0.1-0.1-0.1
			c-0.1,0-0.1,0-0.1,0.1l-0.1,0.1c-0.1,0.1-0.2,0.1-0.3-0.1c-0.1-0.1-0.1-0.3-0.3-0.4c-0.3-0.3-0.3-0.6,0-0.9
			c0.1-0.1,0.1-0.1,0.1-0.1c0.1,0,0.3-0.1,0.5-0.1c0.1,0,0.1-0.1,0.1-0.1s-0.1-0.1-0.1-0.1c-0.2-0.1-0.5-0.1-0.7-0.1
			c-0.1-0.1-0.3-0.1-0.3-0.2c0-0.1-0.1-0.1-0.1-0.1c-0.1,0-0.1,0-0.1-0.1c-0.1-0.1-0.1-0.1-0.1-0.3c0.2-0.2,0.2-0.2,0-0.4
			c-0.1-0.1-0.2-0.3-0.4-0.3c-0.3-0.1-0.5-0.3-0.8-0.4c-0.4-0.1-0.9-0.2-1.3-0.1c-0.4,0.1-0.7,0-1.1,0.1c-0.3,0.1-0.6-0.1-0.9-0.3
			c-0.1-0.1-0.1-0.1,0-0.2c-0.2-0.1-0.4-0.1-0.5-0.1c-0.1,0-0.1,0-0.1-0.1c0-0.1,0.1-0.1,0.1-0.1c0.1,0,0.1,0,0.2-0.1
			c0.3,0,0.6-0.1,0.9-0.1c0.2-0.1,0.5-0.1,0.7-0.1c0.1,0,0.3,0,0.4-0.1c-0.1,0-0.3,0-0.4,0c-0.2,0-0.3,0-0.3-0.1
			c-0.1-0.1-0.1-0.1-0.2-0.1c-0.2,0.1-0.3,0.1-0.5,0.1c-0.1,0-0.1,0-0.1,0.1c-0.1,0.1-0.3,0.1-0.4,0.1c-0.1,0-0.1,0-0.2,0
			c-0.3,0.1-0.5,0.1-0.8,0.1c-0.1,0-0.1,0-0.2,0v0.1c0.2,0.3,0.2,0.3-0.2,0.4c-0.1,0-0.3,0.1-0.4,0.2c0,0.1,0.1,0.1,0.1,0.2
			c-0.1,0.1-0.1,0.1-0.2,0.1c-0.3,0-0.5,0.1-0.4,0.5c0,0.1-0.1,0.1-0.1,0.1c-0.2,0-0.4,0.1-0.5,0c-0.4-0.1-0.7,0.1-1.1,0
			c0.3,0.1,0.3,0.1,0.3,0.3c0.1,0,0.1,0,0.2-0.1c0.3-0.2,0.5-0.2,0.8-0.2c0.4,0,0.8,0.1,1.1,0.1c0.2,0,0.3,0.1,0.4,0.3
			c0,0.1,0.1,0.1,0.2,0.1c0.1,0.1,0.3,0.1,0.4,0.2c0.1,0.1,0.3,0.3,0.5,0.1c0.1-0.1,0.1-0.1,0.2,0c0.1,0,0.1,0.1,0.1,0.2
			c0,0.1-0.1,0.1-0.1,0.1c0,0.1,0,0.1,0,0.1c0.1,0,0.1,0.1,0.1,0c0.1-0.1,0.1-0.1,0.3-0.1c0.3-0.1,0.5,0.1,0.5,0.4
			c0,0.1,0.1,0.2,0.2,0.3c0.3,0.1,0.6,0.2,0.9,0.2c0.3,0,0.5,0.3,0.6,0.4c0.1,0.1,0.1,0.1,0.1,0.1c0,0.1-0.1,0.3-0.1,0.5
			c-0.1,0.1-0.1,0.1-0.2,0c-0.1-0.1-0.1-0.1-0.1-0.1c-0.1-0.1-0.2-0.2-0.3-0.1s-0.3,0-0.3-0.1c-0.1-0.1-0.1-0.1-0.3-0.1
			c0.1,0.2,0.3,0.3,0.6,0.4c0.3,0.1,0.4,0.4,0.3,0.6c0,0.1-0.1,0.1-0.1,0.1c-0.1,0-0.1,0.1-0.1,0.1c-0.1,0.2-0.3,0.3-0.5,0.1
			c-0.2-0.1-0.5-0.1-0.7-0.2c-0.1,0-0.1-0.1-0.1,0c-0.3,0.1-0.5-0.1-0.7-0.3c-0.1-0.1-0.3-0.2-0.5-0.2c-0.3,0-0.5-0.1-0.7,0
			c-0.1,0.1-0.3,0-0.5-0.1c-0.1,0-0.1-0.1-0.1-0.2c0.1-0.3,0.1-0.3,0.4-0.3c0.1,0,0.3,0,0.4,0c0.1,0,0.1,0,0.2-0.1
			c0.1-0.2,0.3-0.3,0.5-0.3c0.1-0.1,0.1-0.1,0.1-0.1s-0.1-0.1-0.2-0.1c-0.1,0-0.2,0-0.3,0c-0.1,0-0.3-0.1-0.3-0.2
			c0-0.1-0.1-0.1-0.2-0.1c-0.3,0.1-0.3-0.1-0.5-0.2c-0.1-0.1-0.1-0.1-0.1-0.2c-0.1-0.1-0.2-0.1-0.3-0.1c-0.1,0.1-0.2,0.1-0.3,0.1
			s-0.3-0.1-0.5,0c0,0.1,0.2,0.2,0.1,0.4c0,0.1-0.1,0.1-0.1,0.1c0,0.1,0,0.1,0,0.1c0.2,0.2,0.2,0.3-0.1,0.5
			c-0.2,0.1-0.4,0.2-0.5,0.4c0.1,0.1,0.3,0.1,0.4,0.2c0.2,0.1,0.3,0.2,0.4,0.4c0.1,0.1,0,0.2-0.1,0.2c-0.1,0-0.2,0-0.3-0.1
			c-0.2-0.1-0.4-0.1-0.6,0.1c-0.1,0.1-0.3,0.1-0.3,0c-0.1-0.1-0.2-0.1-0.3-0.1c-0.1,0-0.2-0.1-0.1-0.2c0.1-0.1,0.1-0.1,0.1-0.3
			c0-0.1,0.1-0.3,0.2-0.5c-0.2,0-0.3,0.1-0.3,0.2c-0.1,0.3-0.3,0.6-0.6,0.6c-0.2,0-0.3,0.1-0.4,0.2c-0.1,0.1-0.1,0.1-0.3,0.1
			c-0.4,0.1-0.6,0.3-0.9,0.6c-0.1,0.1-0.1,0.1-0.1,0.3c0,0.3,0,0.3,0.3,0.3c0.1,0,0.3,0.1,0.3,0.2c0,0.1,0.1,0.1,0.1,0.2
			c0.1,0.1,0.1,0.1,0.3,0.1c0.3,0,0.7,0.1,1.1,0.3c0.1,0.1,0.1,0.1,0.3,0.1c0.4,0.1,0.9,0.3,1.3,0.3c0.3,0,0.3,0.1,0.3,0.3
			c0,0.1,0,0.3,0,0.4c0,0.1,0.1,0.3,0.3,0.3c0.1,0,0.1,0.1,0.2,0.1c0.2,0.1,0.2,0.1,0.4,0c0.1-0.1,0.1-0.1,0.1-0.2
			c-0.1-0.2-0.1-0.4-0.2-0.5c-0.1-0.1-0.1-0.2,0.1-0.2c0.2-0.1,0.3-0.1,0.5-0.2c0.3-0.1,0.3-0.5,0.1-0.7c-0.1-0.1-0.2-0.1-0.3-0.1
			c-0.1-0.1-0.2-0.2-0.1-0.3c0.1-0.1,0.1-0.1,0.1-0.1c0.1-0.1,0.1-0.2-0.1-0.3c-0.1-0.1-0.1-0.1,0-0.1c0.1-0.1,0.2-0.2,0.1-0.3
			c-0.1-0.1,0-0.2,0.1-0.2c0.2,0,0.4,0,0.6,0.1c0.1,0.1,0.3,0.1,0.4,0c0.2-0.1,0.3,0,0.4,0.1c0.1,0,0.1,0.1,0.1,0.1
			c0.2,0.1,0.4,0.3,0.7,0.3c0.2,0,0.3,0.1,0.2,0.3c-0.1,0.1,0,0.2,0.1,0.3c0.1,0.1,0.1,0.1,0.2,0.1c0.1,0.1,0.3,0.1,0.4,0
			c0.1-0.1,0.1-0.1,0.2-0.1c0.1-0.1,0.3-0.1,0.3-0.3c0.1-0.3,0.2-0.3,0.3-0.1c0.3,0.3,0.5,0.5,0.7,0.9c0.1,0.1,0.1,0.2,0.1,0.3
			c0,0.1,0.1,0.2,0.1,0.3c0.1,0.1,0.2,0,0.3,0.1c0.1,0,0.1,0,0.2,0.1c0.1,0.1,0.2,0.1,0.3,0.1s0.2,0.1,0.3,0.1
			c0.1,0.1,0.2,0.2,0.3,0.3c0.3,0.2,0.3,0.4,0.1,0.7c-0.1,0.1-0.3,0.2-0.5,0.2c-0.1,0-0.3,0.1-0.3,0.1c-0.3,0.3-0.6,0.3-0.9,0.3
			c-0.4-0.1-0.7-0.1-1.1,0c-0.1,0-0.2,0.1-0.2,0.2c0.1,0.1,0.1,0,0.1,0c0.3-0.1,0.5,0.1,0.6,0.2c0.1,0.1,0.1,0.1,0,0.1
			c-0.1,0.1-0.1,0.3-0.1,0.4c0.1,0.4-0.1,0.6-0.5,0.7h-0.1c-0.3,0.3-0.7,0.3-0.9,0.5c-0.1,0.1-0.3,0.2-0.3,0.5
			c0,0.3-0.3,0.4-0.5,0.5c-0.1,0.1-0.1,0.1-0.2,0.1c-0.1,0-0.1,0-0.1,0.1c-0.1,0.3-0.4,0.6-0.5,0.9c-0.1,0.1,0,0.1,0,0.3
			c0.1,0.4,0.1,0.5-0.3,0.7c-0.2,0.1-0.5,0.2-0.6,0.4c-0.1,0.1-0.3,0.3-0.4,0.3c-0.3,0.2-0.3,0.5-0.2,0.7c0.1,0.3,0.2,0.5,0.3,0.8
			c0.1,0.2,0.1,0.4,0,0.6c-0.1,0.1-0.1,0.2-0.2,0.2s-0.1-0.1-0.2-0.1c-0.1-0.1-0.1-0.1-0.2-0.3c-0.2-0.2-0.3-0.5-0.3-0.8
			c0-0.1-0.1-0.2-0.2-0.3c-0.1-0.1-0.2-0.1-0.3,0c-0.1,0.1-0.2,0.1-0.3,0c-0.1-0.1-0.3-0.1-0.5-0.1c-0.1,0-0.2,0-0.3,0
			c-0.2,0-0.2,0-0.3,0.2c0,0.1-0.1,0.1-0.2,0.1c-0.3,0-0.6-0.1-0.9-0.2c-0.2-0.1-0.4,0-0.5,0.1c-0.1,0.1-0.3,0.2-0.4,0.3
			c-0.2,0.1-0.3,0.3-0.3,0.5c0,0.3,0,0.4-0.1,0.6c-0.1,0.5-0.1,1.1,0.2,1.5c0.1,0.2,0.3,0.4,0.5,0.5c0.1,0,0.1,0.1,0.1,0.1
			c0.3-0.1,0.7,0,0.9-0.3c0.1-0.1,0.1-0.3,0.1-0.3c0.1-0.3,0.2-0.3,0.5-0.4c0.2-0.1,0.4-0.1,0.6-0.1c0.2,0,0.3,0.2,0.2,0.3
			c-0.1,0.2-0.1,0.3-0.2,0.5c-0.1,0.3-0.1,0.6-0.3,0.9c0.3-0.1,0.6-0.1,0.9,0c0.2,0,0.3,0.1,0.5,0.2c0.1,0.1,0.1,0.1,0.1,0.3
			c-0.1,0.3-0.1,0.7-0.1,1.1c0,0.2,0.1,0.3,0.1,0.4c0.1,0.1,0.1,0.1,0.1,0.1c0.3,0.3,0.3,0.3,0.6,0.1c0.3-0.1,0.5-0.1,0.7,0.1
			c0.3,0.2,0.5,0.1,0.6-0.2v-0.1c0.1-0.3,0.3-0.5,0.6-0.5c0.1,0,0.3-0.1,0.4-0.1c0.1-0.1,0.1-0.1,0.2-0.1c0.1,0,0.2,0.1,0.1,0.3
			c0.1-0.1,0.3-0.1,0.3-0.1c0.3-0.1,0.5-0.1,0.6,0.2c0.1,0.1,0.2,0.1,0.3,0.1c0.2,0,0.3,0,0.5,0.1s0.3,0,0.4-0.1
			c0.3-0.1,0.3-0.1,0.5,0.1c0.1,0.1,0.2,0.2,0.3,0.2c0.1,0,0.1,0,0.1,0.1c-0.1,0.2,0.1,0.2,0.2,0.2c0.2,0.1,0.4,0.2,0.5,0.4
			c0.2,0.3,0.4,0.5,0.7,0.5c0.2,0,0.4,0.1,0.6,0.1c0.3,0,0.5,0.3,0.7,0.4c0.1,0.1,0.1,0.1,0.2,0.3c0,0.3,0.1,0.5,0.3,0.6
			c0.1,0.1,0.1,0.3-0.1,0.5c0.1,0.1,0.1,0.1,0.2,0.1c0.3,0.1,0.6,0.1,0.9,0.2s0.5,0.2,0.7,0.5c0,0.1,0.1,0.1,0.1,0.1
			c0.2-0.1,0.4,0.1,0.6,0.1c0.2,0,0.3,0.1,0.5,0.1c0.2,0,0.5,0.1,0.6,0.3c0.2,0.3,0.4,0.4,0.7,0.4c0.1,0,0.2,0.1,0.2,0.2
			c0.1,0.3,0.1,0.6,0.1,0.9c0,0.1-0.1,0.2-0.1,0.3c-0.3,0.3-0.6,0.7-0.8,1.1c0,0,0,0.1-0.1,0.1c-0.3,0.1-0.2,0.3-0.2,0.5
			c0,0.3,0,0.6-0.1,0.9c0,0.1-0.1,0.3-0.1,0.4c-0.1,0.1-0.1,0.1-0.1,0.1c0,0.3-0.1,0.4-0.2,0.6c-0.1,0.1-0.1,0.1-0.1,0.1
			c0,0.3-0.2,0.4-0.3,0.5c-0.1,0.1-0.2,0.1-0.3,0.1c-0.3,0-0.5,0.1-0.7,0.3c-0.1,0.1-0.1,0.1-0.1,0.1c-0.3,0-0.5,0.2-0.7,0.4
			c-0.1,0.1-0.1,0.3-0.1,0.4c0.1,0.3,0,0.6-0.3,0.8c-0.1,0.1-0.2,0.3-0.3,0.4c-0.1,0.3-0.3,0.4-0.5,0.5c-0.1,0.1-0.1,0.1-0.2,0.3
			c-0.1,0.3-0.3,0.5-0.6,0.6c-0.1,0.1-0.3,0.1-0.4,0.1c-0.1-0.1-0.3-0.1-0.5-0.1c0.1,0.2,0,0.4,0.2,0.5c0.1,0.1,0.1,0.1,0,0.3
			c-0.2,0.3-0.5,0.5-0.9,0.5c-0.1,0-0.1,0-0.2,0c-0.3,0-0.5,0.1-0.5,0.5c0,0.1-0.3,0.3-0.5,0.3c-0.1,0-0.1,0-0.2,0
			c-0.1,0-0.1,0-0.1,0.1c-0.1,0.1,0,0.1,0,0.1c0.1,0.1,0.1,0.1,0.3,0.1c0.1,0,0.1,0.1,0.1,0.1c0,0.1-0.1,0.1-0.1,0.1
			c-0.2,0.1-0.5,0.3-0.5,0.6c0,0.1-0.1,0.1-0.1,0.2c-0.1,0-0.1,0-0.2,0.1c-0.1,0-0.2,0.1-0.2,0.2s0.1,0.1,0.1,0.2
			c0.1,0.1,0.1,0.1,0.1,0.1c0.2,0.1,0.2,0.3,0.1,0.5c-0.1,0.1-0.1,0.1-0.2,0.1c-0.1,0.1-0.2,0.1-0.3,0.3c0,0.1-0.1,0.1-0.2,0.1
			c-0.1,0.1-0.3,0.3-0.2,0.5c0.1,0.1,0.1,0.3,0.1,0.4c0,0.1,0.1,0.3,0.3,0.3c0.2,0.1,0.3,0.2,0.5,0.2c0.1,0,0.1,0.1,0.1,0.1
			c0,0.1-0.1,0.1-0.1,0.1c-0.3,0.1-0.7,0.1-1.1,0c-0.2-0.1-0.3-0.2-0.5-0.4c-0.1-0.3-0.1-0.3-0.3-0.1c-0.1,0.1-0.2,0.1-0.3,0.1
			c-0.1,0-0.2-0.1-0.3-0.1c-0.1-0.1,0-0.1,0.1-0.2c0.1-0.1,0.1-0.1,0.1-0.2c0.1-0.1,0.1-0.2-0.1-0.3c-0.3-0.1-0.3-0.5-0.1-0.6
			c0.1-0.1,0.3-0.2,0.2-0.4c0-0.1,0.1-0.1,0.1-0.2c0.1-0.2,0.1-0.4,0.1-0.6c0-0.1-0.1-0.1-0.1-0.1c-0.1,0-0.1,0-0.1,0.1
			c-0.1,0.1-0.1,0.1-0.1,0.1c-0.1,0.1-0.3,0.1-0.3-0.1c-0.1-0.1-0.1-0.3-0.1-0.4c0-0.1,0-0.3,0.1-0.5c0-0.1,0-0.2,0-0.3
			c-0.1-0.1-0.1-0.3,0-0.5c0.1-0.2,0.1-0.3,0.1-0.5c-0.1-0.3,0-0.5,0.1-0.7c0.3-0.5,0.5-1.1,0.4-1.8c0-0.1,0-0.1,0-0.2
			s0.1-0.1,0.1-0.1c-0.1-0.3,0.1-0.5,0.1-0.7c0.1-0.4,0.2-0.9,0.1-1.3c0-0.1,0-0.1,0-0.2c0.2-0.4,0.1-0.9,0.1-1.3
			c0-0.1-0.1-0.2-0.1-0.3c-0.1-0.1-0.3-0.1-0.3-0.3c-0.1-0.1-0.1-0.1-0.3-0.1c-0.3-0.1-0.5-0.2-0.7-0.3c-0.2-0.1-0.4-0.3-0.4-0.7
			c0-0.1-0.1-0.3-0.2-0.3c-0.2-0.3-0.3-0.6-0.5-0.9c-0.2-0.4-0.3-0.7-0.7-1.1c-0.2-0.1-0.3-0.6-0.1-0.8c0.1-0.1,0.1-0.1,0.2-0.2
			s0.1-0.1-0.1-0.2c-0.2-0.1-0.1-0.3-0.1-0.5c0.1-0.2,0.2-0.3,0.2-0.6c0-0.1,0.1-0.1,0.1-0.1c0.1-0.1,0.1-0.1,0.2-0.2
			c0.1-0.1,0.1-0.3,0.3-0.4c0.1-0.1,0.1-0.2,0.1-0.3c-0.1-0.4-0.1-0.8-0.2-1.3c-0.1-0.1-0.1-0.3-0.3-0.3c-0.1,0-0.2,0.1-0.3,0.1
			c0,0-0.1,0.1-0.1,0.1c-0.1,0.1-0.1,0.1-0.2,0.1s-0.3-0.1-0.4-0.1c-0.2,0-0.4-0.1-0.5-0.3c-0.1-0.1-0.2-0.2-0.3-0.2
			c-0.2-0.1-0.3-0.1-0.3-0.3c0-0.1-0.1-0.3-0.2-0.3c-0.2-0.2-0.4-0.4-0.7-0.5c-0.2-0.1-0.4-0.1-0.6-0.2c-0.1-0.1-0.3-0.1-0.4-0.3
			c-0.1-0.1-0.3-0.2-0.3-0.3c-0.1-0.1-0.3-0.2-0.5-0.1c-0.3,0.2-0.6,0.1-0.9-0.1c-0.1-0.1-0.3-0.1-0.4-0.1c-0.2,0-0.3-0.1-0.3-0.1
			c-0.2-0.1-0.5-0.3-0.7-0.3c-0.2-0.1-0.5-0.3-0.6-0.5c-0.1-0.1-0.2-0.3-0.1-0.5c0.1-0.3,0-0.4-0.1-0.6c-0.2-0.2-0.4-0.5-0.6-0.7
			c-0.1-0.1-0.1-0.1-0.1-0.1c-0.1-0.1-0.3-0.2-0.3-0.4c0-0.1,0-0.1-0.1-0.1c-0.2-0.1-0.3-0.3-0.4-0.4c-0.3-0.3-0.5-0.5-0.6-0.9
			c0-0.1,0-0.1-0.1-0.1s-0.1-0.1-0.3-0.1c-0.1,0.1-0.1,0.1-0.1,0.3c0,0.1,0.1,0.2,0.2,0.3c0.1,0.1,0.2,0.1,0.3,0.3
			c0.1,0.3,0.3,0.5,0.5,0.7c0.1,0.1,0.1,0.3,0.3,0.5c0.1,0.1,0.1,0.3,0.3,0.5c0,0,0,0.1,0.1,0.1c0,0.1,0,0.1-0.1,0.2s-0.1,0-0.2-0.1
			c-0.1-0.2-0.3-0.3-0.5-0.5c-0.1-0.1-0.1-0.1-0.1-0.3c0.1-0.2-0.1-0.3-0.3-0.4c-0.1-0.1-0.3-0.1-0.4-0.2c-0.1-0.1-0.2-0.2-0.1-0.3
			c0.1-0.1,0.1-0.1,0-0.2l-0.1-0.1c-0.3-0.2-0.4-0.5-0.5-0.8c-0.1-0.4-0.3-0.7-0.7-0.7c-0.3-0.1-0.5-0.4-0.7-0.7
			c-0.1-0.1,0-0.3,0-0.5c-0.4,0-0.5-0.2-0.6-0.6c-0.1-0.3-0.1-0.5-0.1-0.7c-0.1-0.3-0.1-0.5,0-0.8c0.1-0.2,0-0.4,0.1-0.6
			c0.1-0.1-0.1-0.3-0.1-0.5c-0.1-0.2-0.1-0.3,0.1-0.5c-0.1-0.1-0.1-0.1-0.2-0.1c-0.3,0.1-0.7-0.1-0.7-0.3c-0.1-0.2-0.2-0.4-0.2-0.6
			c0-0.1-0.1-0.1-0.1-0.1c-0.1,0-0.1-0.1-0.3-0.1c-0.1,0-0.1-0.1-0.1-0.1c0.1-0.2,0-0.2-0.1-0.3c-0.1,0-0.1-0.1-0.2-0.2
			c-0.1-0.1-0.1-0.3-0.1-0.4c-0.1-0.1-0.1-0.3-0.3-0.3c-0.3-0.1-0.3-0.2-0.5-0.4c-0.1-0.1-0.3-0.2-0.4-0.3c-0.3-0.1-0.6-0.2-0.9-0.4
			c-0.2-0.1-0.3-0.2-0.6-0.1c-0.1,0.1-0.2,0-0.3,0c-0.3-0.1-0.5-0.1-0.7-0.1c-0.3,0-0.7-0.1-0.9-0.3c-0.3-0.1-0.4-0.1-0.6,0.1
			c-0.1,0.2-0.4,0.3-0.5,0.4c-0.1,0.1-0.1,0.1-0.2,0.1c-0.2,0-0.2,0-0.2-0.3v-0.1c-0.1,0-0.1,0.1-0.1,0.1c-0.1,0.3-0.3,0.5-0.7,0.6
			c-0.1,0.1-0.3,0.2-0.5,0.3c-0.3,0.1-0.6,0.3-0.9,0.4c-0.3,0.1-0.5,0.1-0.8,0.3c-0.2,0.1-0.5,0.1-0.7,0.2c-0.1,0-0.1,0-0.1-0.1v0.9
			c0.1-0.1,0.1-0.1,0.2-0.1c0.2-0.1,0.4-0.1,0.6-0.3l0,0c0.4,0,0.6-0.3,1.1-0.3c0.1,0,0.1-0.1,0.1-0.1c0.1-0.1,0.1-0.2,0-0.3
			c-0.1-0.1-0.1-0.1-0.2,0c-0.1,0-0.1,0.1-0.1,0.1c-0.3-0.2-0.5-0.1-0.8-0.1c-0.2,0-0.2-0.1-0.2-0.2c0-0.1,0.1-0.2,0.1-0.3
			c-0.1-0.1-0.2,0.1-0.3,0.1c-0.1,0.1-0.2,0-0.3-0.1c0-0.1-0.1-0.2-0.1-0.1c-0.3,0.1-0.3-0.2-0.5-0.3c-0.1,0-0.1-0.1,0-0.1
			c0.1-0.1,0.1-0.1,0.2-0.2c0.1-0.2,0.3-0.3,0.5-0.3c0.2,0,0.3-0.1,0.5-0.1c0.1,0,0.1-0.1,0.1-0.1c0-0.1-0.1-0.1-0.1-0.1
			c-0.4,0.1-0.8,0-1.1,0c-0.1,0-0.2,0-0.3-0.1C5.5,544.2,5.3,544.2,5.1,544C5.1,544.2,5.1,544.1,5.1,544z M28.4,550.4
			c0.2,0.1,0.3,0.1,0.5,0c0.1-0.1,0.2-0.1,0.3-0.2c0.1-0.1,0.2-0.1,0.3,0s0.3,0.1,0.4,0.1c0.1,0,0.2,0,0.3,0.1
			c0.1,0.1,0.1,0.2,0,0.3c-0.1,0.1-0.3,0.1-0.4,0.2c-0.2,0.1-0.3,0.3-0.2,0.5c0,0.1,0.1,0.1,0.1,0.1c0.1-0.1,0.1-0.1,0.2-0.3
			c0.1-0.2,0.2-0.3,0.3-0.4c0.1-0.1,0.1-0.1,0.3-0.1c0.1,0.1,0.2,0.1,0.3,0.2c0.1,0.1,0,0.2,0,0.3c0,0.1,0,0.1,0.1,0.2
			c0.1,0,0.1-0.1,0.1-0.1c0-0.2,0.1-0.4,0.1-0.6c0.1-0.1,0-0.1-0.1-0.1s-0.1,0-0.1,0c-0.3,0-0.6-0.1-0.7-0.5
			c-0.1-0.3-0.5-0.5-0.8-0.2C29.1,549.9,28.7,550.2,28.4,550.4z M30.8,552.1c0.1,0.1,0.2,0,0.3,0c0.5-0.1,0.8-0.5,1.3-0.5l0,0
			c0.1,0,0.1-0.1,0.1-0.1s-0.1-0.1-0.1-0.1c-0.1,0-0.3,0-0.5,0.1c-0.1,0.1-0.2,0.2-0.3,0.2C31.3,551.7,31.1,551.8,30.8,552.1z
			 M23.8,543.2C23.8,543.1,23.8,543.1,23.8,543.2c-0.3-0.1-0.6,0-0.9,0.1c-0.1,0.1-0.1,0.2,0.1,0.2c0.1,0,0.2,0.1,0.3-0.1
			c0.1-0.1,0.3-0.1,0.4-0.2C23.6,543.2,23.7,543.2,23.8,543.2z M22.2,543.3c-0.1,0-0.1,0-0.2,0c-0.3,0-0.5,0.1-0.7-0.2
			c0,0-0.1,0-0.1-0.1c-0.1,0-0.1,0-0.1,0.1c0,0.1,0,0.1,0.1,0.1C21.6,543.4,22,543.5,22.2,543.3z M29,540.8c0.3,0.1,0.9,0.1,1.3,0
			C29.9,540.8,29.4,540.8,29,540.8z M29.1,539.3c0.1,0.1,0.1,0.1,0.2,0.1c0.1-0.1,0.2,0,0.3,0.1c0,0.1,0.1,0.1,0.1,0.1
			c0.1-0.1,0-0.1,0-0.2c0-0.1-0.1-0.1-0.1-0.1C29.3,539.2,29.2,539.2,29.1,539.3z M47.4,542.6c0.1,0,0.3,0,0.4,0s0.3,0,0.5-0.1
			c0.1,0,0.1,0,0.1-0.1s-0.1-0.1-0.1-0.1h-0.1C47.9,542.6,47.6,542.6,47.4,542.6z M21.2,542.6c0.2-0.1,0.5,0.1,0.7,0
			C21.4,542.6,21.4,542.6,21.2,542.6z"/>
		<path fill="#1A4922" d="M78.3,541.7c0.1,0.1,0.1,0.3,0.1,0.3c0.1,0,0.2,0,0.3-0.1c0.1-0.1,0.1-0.1,0.2,0c0.1,0.1,0.3,0.1,0.3-0.1
			c0,0,0-0.1,0.1-0.1c0.1-0.1,0.1-0.1,0.2-0.1c0.1,0,0.1,0.1,0,0.2c0.1,0,0.2,0,0.3,0.1l0.1-0.1c0-0.3,0-0.3,0.3-0.4
			c0.2,0,0.5,0,0.7-0.1c0.1-0.1,0.2,0.1,0.3,0.1c0.1,0,0.2,0,0.1-0.1s0.1-0.2,0.1-0.1c0.1,0,0.2,0,0.3-0.1l0.1-0.1
			c0.4-0.1,0.8-0.2,1.3-0.2c0.2,0,0.3-0.1,0.5-0.1c0.3-0.1,0.6-0.1,0.9,0s0.5,0.1,0.7-0.1c0.1-0.1,0.2-0.1,0.3-0.1
			c0.1,0,0.3-0.1,0.3-0.1c0.1-0.1,0.3-0.1,0.5-0.2c-0.2-0.1-0.3,0-0.5,0c-0.1,0-0.1,0-0.2,0.1c-0.1,0-0.2,0-0.3-0.1
			c-0.1-0.1,0.1-0.1,0.1-0.2l0,0c0.1-0.1,0.1-0.1,0.3-0.1c0.1,0,0.2-0.1,0.3-0.1c0.1-0.1,0.2-0.1,0.3,0c0,0.1,0.1,0.1,0.1,0
			c0.3-0.1,0.5,0.1,0.7,0.1c0.1,0,0.1,0.1,0.1,0.1s-0.1,0.1-0.1,0.1c-0.2,0.1-0.4,0.1-0.5,0.1c0.3,0,0.5,0,0.8,0l0,0
			c0.1,0.1,0.1,0.1,0.2,0.1c0.1,0,0.3,0,0.4,0.1c0.1,0.1,0.1,0.1,0.2,0.1c0.1,0,0.2,0,0.3,0c0.4-0.1,0.7,0.1,1.1,0.3
			c0.1,0,0.1,0.1,0.1,0.1c0.2,0.2,0.2,0.3-0.1,0.3c-0.1,0.1-0.2,0.1-0.3,0.1c-0.1,0-0.1,0.1-0.1,0.1c0.2-0.1,0.2-0.1,0.5,0.1
			c0.1,0.1,0.3,0.1,0.4,0c0.3-0.1,0.7,0.1,1.1,0h0.1c0.4,0.3,0.8,0.1,1.3,0.1c0.1,0,0.2,0,0.3-0.1c0.1-0.1,0.3-0.1,0.5-0.1
			c0.1,0,0.2,0.1,0.3,0.1c0.1,0,0.1,0.1,0.3,0c0.2-0.1,0.4,0,0.5,0.1c0.1,0.1,0.1,0.1,0,0.1c-0.1,0.1-0.1,0.1-0.2,0.1
			c0,0.1,0.1,0.1,0.1,0.1c0.1,0,0.2,0.1,0.3,0.1c0.2,0.3,0.4,0.3,0.6,0.1c0.2-0.2,0.4-0.3,0.6-0.1c0.1,0.1,0.3,0.1,0.4,0
			c0.1-0.1,0.3-0.1,0.4-0.1c0.5,0.1,0.9-0.1,1.1-0.4c0,0,0.1,0,0.1-0.1c-0.1-0.1-0.1,0-0.1,0c-0.1,0-0.2,0.1-0.3-0.1
			c-0.1-0.1,0.1-0.1,0.1-0.2c0-0.2,0.1-0.2,0.2-0.1c0.1,0.1,0.3,0,0.4,0c0.2,0,0.5,0.1,0.5,0.2c0.1,0.3,0.3,0.2,0.4,0.2
			c0.5,0.1,0.9,0.1,1.3,0.1c0.1,0,0.1,0,0.1,0.1c0.2,0.2,0.5,0.2,0.7,0.3c0.1,0.1,0.2,0.1,0.3,0.1c0.4,0,0.8-0.1,1.3-0.1
			c0.3,0,0.5,0,0.7,0.2c0.1,0,0.1,0.1,0.1,0.1c0.1,0.2,0.3,0.3,0.5,0.2c0.4-0.1,0.8-0.1,1.3,0c0.1,0,0.2,0.1,0.3,0
			c0.1-0.1,0.3-0.1,0.4,0.1c0.1,0.1,0.1,0,0.1-0.1c0.1-0.1,0.1-0.1,0.1-0.1s0.1,0,0.1,0.1c-0.1,0.1-0.1,0.1,0.1,0.1
			c0.1,0,0.1,0,0.1-0.1v-0.1c0.1-0.3,0.1-0.3,0.3-0.3c0.3,0.1,0.6,0.1,0.9,0.1c0.8,0,1.6,0.2,2.3,0.5c0.1,0.1,0.3,0.1,0.5,0.1
			c0.2,0.1,0.3,0.1,0.5,0.3c0.1,0.1,0.1,0.1,0.3,0.1c0.3-0.1,0.6-0.1,0.9,0c0.1,0.1,0.2,0.1,0.3,0.2c0.1,0,0.1,0.1,0.1,0.1
			s-0.1,0.1-0.1,0.1s-0.1,0-0.2,0c-0.1,0-0.2,0-0.3,0c-0.1,0-0.3,0.1-0.3,0.2c-0.1,0.3-0.1,0.3-0.4,0.2c-0.1-0.1-0.2-0.1-0.3-0.1
			c-0.1,0-0.1,0-0.2-0.1c-0.1-0.2-0.3-0.2-0.5-0.2c-0.1,0-0.3,0-0.4-0.1c-0.1-0.1-0.1-0.1-0.2,0c0,0.1-0.1,0.1-0.1,0.1
			s-0.1,0.1-0.1,0.1c-0.1,0.1-0.3,0-0.3,0.1c0,0.1,0.1,0.2,0.1,0.3v0.1c0.1,0.3,0.1,0.4-0.3,0.3c-0.1-0.1-0.3-0.1-0.4,0
			c-0.4,0.1-0.8,0.2-1.1,0.3c-0.3,0.1-0.5,0.3-0.7,0.4c-0.1,0.1-0.1,0.1-0.3,0c-0.3-0.3-0.6-0.1-0.9,0c-0.1,0.1-0.1,0.1-0.3,0.1
			c-0.1-0.1-0.1,0-0.2,0c-0.1,0.1-0.1,0.1-0.2,0.1c-0.1,0-0.2,0-0.3,0.1c0,0.1-0.1,0.1-0.1,0.1c-0.1,0.1-0.1,0.1,0,0.3
			c0.1,0.1,0.1,0.1,0.1,0.1c-0.1,0.1,0,0.3,0,0.4c0,0.1,0,0.1,0,0.1c-0.1,0.1-0.2,0.3-0.3,0.5c-0.1,0.1-0.1,0.1-0.2,0.1
			s-0.2,0.1-0.3,0.1c-0.1,0-0.1,0.1-0.1,0.1c0,0.3-0.1,0.3-0.3,0.3c-0.1,0-0.2,0.1-0.2,0.1c-0.1,0.3-0.3,0.4-0.5,0.5
			c-0.1,0.1-0.1,0-0.1-0.1c-0.1-0.1-0.1-0.1-0.1-0.3c-0.1-0.3-0.1-0.5-0.2-0.8c-0.1-0.3-0.1-0.7,0.3-0.9l0.1-0.1
			c0.1-0.1,0.1-0.2,0.3-0.2c0.2,0,0.4-0.1,0.5-0.3c0.3-0.3,0.7-0.5,1.1-0.7c0.2-0.1,0.2-0.1,0.2-0.4c-0.1,0.3-0.2,0.3-0.4,0.3
			c-0.1,0.1-0.3,0.1-0.5,0.2c-0.2,0.1-0.3,0.1-0.3-0.2v-0.1c-0.1,0-0.1-0.1-0.3-0.1c-0.3,0-0.5-0.1-0.7,0.2
			c-0.1,0.1-0.3,0.2-0.4,0.3c-0.1,0.1-0.2,0.1-0.1,0.2c0.1,0.1,0,0.2-0.1,0.2c-0.2,0.1-0.5,0.1-0.7,0.1c-0.1,0-0.1,0-0.2,0
			c-0.1,0.1-0.2,0-0.3-0.1c-0.1-0.1-0.3-0.2-0.5-0.1c-0.1,0.1-0.4,0.1-0.5,0.1c-0.3,0-0.6-0.1-0.9-0.1c-0.3,0-0.7,0.1-0.9,0.4
			l-0.1,0.1c-0.2,0.1-0.5,0.2-0.6,0.4c-0.2,0.2-0.4,0.3-0.6,0.4c0.1,0.1,0.2,0.1,0.3,0c0.1,0,0.2,0,0.1,0.1c-0.1,0.1,0,0.1,0.1,0.1
			c0.1,0,0.1,0,0.1-0.1c0.2-0.1,0.4-0.1,0.5,0.1c0.1,0.1,0.3,0.1,0.5,0c0.2-0.1,0.2-0.1,0.3,0.1c0.1,0.1,0.1,0.3,0.1,0.5
			c0,0.2,0.1,0.4,0.2,0.6c0.1,0.1,0.1,0.3,0.2,0.5c0,0.1,0,0.1,0,0.1s-0.1,0-0.1,0c0,0-0.1,0-0.1-0.1c-0.1-0.1-0.2-0.1-0.3,0
			c-0.1,0.1-0.1,0.2-0.1,0.3c0.1,0.1,0.1,0.2,0.1,0.3c0.1,0.2,0.1,0.3-0.1,0.3c-0.2,0.1-0.2,0.1-0.1,0.3c0.1,0.1,0.3,0.2,0.4,0.2
			c0.2,0,0.3,0.1,0.5,0.2c0.1,0.1,0.1,0.1,0,0.2c-0.1,0.1-0.1,0.1-0.3,0.1c-0.2,0-0.3,0.1-0.4,0.3c-0.1,0.1-0.1,0.1-0.3,0.1
			c-0.1,0-0.2-0.1-0.3-0.1c-0.1-0.1-0.3,0-0.3,0.1c0,0.1-0.1,0.2-0.2,0.1c-0.1-0.1-0.1-0.3-0.1-0.3c0.1-0.1,0.2-0.2,0.3-0.3
			c0.1-0.1,0.2-0.1,0.3-0.3c0-0.1,0.1-0.1,0.1-0.3c0.1-0.3,0.1-0.6,0.1-0.9c0-0.3,0-0.7,0.1-1.1c0-0.1,0-0.1-0.1-0.1
			c-0.1-0.1-0.1-0.1-0.2,0c-0.1,0.1-0.1,0.2-0.1,0.3s0,0.1,0,0.2c-0.1,0.3-0.2,0.5-0.4,0.7c-0.3,0.3-0.5,0.7-0.9,0.9
			c-0.1,0.1-0.1,0.1-0.1,0.1c-0.1,0.1-0.3,0.3-0.4,0.3c-0.2,0.1-0.4,0.2-0.7,0.1c-0.1,0-0.1-0.1-0.1,0c-0.2,0.1-0.5,0.3-0.5,0.5
			c-0.1,0.3-0.3,0.3-0.4,0.5c-0.2,0.1-0.2,0.1-0.1,0.3c0.1,0.1,0.1,0.2,0.1,0.3c0.2,0.2,0.2,0.5,0.2,0.7c0,0.3-0.1,0.4-0.4,0.4
			c-0.1,0-0.3,0-0.4,0.1c-0.1,0.1-0.2,0.1-0.2-0.1c0-0.1,0-0.2,0-0.3s0.1-0.1,0.1-0.1c0-0.1,0.1-0.3,0-0.5c-0.1-0.1-0.3-0.1-0.4-0.1
			c-0.1,0-0.1-0.1-0.1-0.2c0-0.1,0.1-0.1,0.1-0.1c0.1-0.3,0-0.3-0.3-0.3c-0.2,0.1-0.4,0.1-0.5,0.2c-0.1,0.1-0.1,0.1-0.2,0.1
			c-0.1,0-0.1,0-0.1,0c-0.1-0.1-0.1-0.1,0-0.1c0-0.1,0.1-0.1,0.1-0.3c0.1-0.1,0.1-0.2,0-0.3c-0.2,0.1-0.3,0.2-0.5,0.3
			c-0.1,0.1-0.1,0.1-0.3,0.3c-0.1,0.1-0.2,0.1-0.1,0.3c0.1,0.1,0.3,0.2,0.4,0.1c0.1,0,0.1-0.1,0.1-0.1c0.1-0.1,0.2-0.1,0.3,0
			c0.1,0.1,0.2,0.1,0.3,0.1c0.1,0,0.1,0,0.1,0.1c0,0.1-0.1,0.1-0.1,0.2l0,0c-0.3,0-0.5,0.3-0.7,0.5c-0.1,0.1-0.1,0.1,0,0.2
			c0.2,0.1,0.3,0.3,0.3,0.5c0.1,0.1,0.1,0.2,0.1,0.3c0.2,0.2,0.1,0.5-0.1,0.6c0.3,0,0.3,0.1,0.2,0.3c-0.1,0.2-0.1,0.5-0.3,0.6
			c-0.2,0.1-0.3,0.3-0.3,0.6c0,0.1-0.1,0.1-0.1,0.2c-0.3,0.2-0.6,0.4-0.9,0.7c-0.1,0.1-0.1,0.1-0.3,0.1c-0.1,0-0.1,0-0.2,0
			c-0.1,0.2-0.4,0.1-0.5,0.2c-0.2,0.1-0.5,0.1-0.7,0.2c-0.2,0-0.4,0-0.6,0c-0.3,0-0.7,0.3-0.8,0.6c0,0.1,0,0.1,0,0.1
			c0.2,0.2,0.3,0.5,0.5,0.6c0.1,0.1,0.1,0.1,0.1,0.1c0.1,0.1,0.3,0.2,0.3,0.3c0.1,0.2,0.1,0.4,0.1,0.6c0.1,0.3-0.1,0.6-0.3,0.9
			c-0.3,0.2-0.6,0.5-0.9,0.7c-0.1,0.1-0.2,0.1-0.2-0.1c0-0.3-0.3-0.5-0.5-0.7c-0.1-0.1-0.2-0.1-0.3-0.3c-0.1-0.1-0.1-0.1-0.3-0.1
			s-0.3,0-0.3-0.2c0.1,0.3-0.1,0.5-0.2,0.6c-0.1,0.3-0.1,0.3,0.1,0.5c0.1,0.1,0.1,0.3,0.1,0.4c0,0.2,0.1,0.2,0.3,0.3
			c0.3,0.3,0.7,0.5,0.7,1.1c0,0.1,0,0.3,0.1,0.5c0.1,0.2,0.2,0.4,0,0.6c-0.1,0.1,0,0.1,0,0.2c0.1,0.2,0.2,0.4,0.1,0.6
			c0.1,0,0.1-0.1,0.3-0.1c0.1-0.1,0.2-0.1,0.3,0.1c0.1,0.2,0.1,0.3,0,0.6c-0.1,0.1-0.1,0.4-0.1,0.5c0,0.1,0.1,0.1,0.1,0.1
			c0.3,0.1,0.5,0.1,0.8,0.3c0.1,0.1,0.3,0.1,0.5,0c0.1-0.1,0.3,0.1,0.4,0.1c0.1,0,0.3,0.1,0.3,0.2s0.2,0.1,0.3,0.1
			c0.1,0,0.2,0.1,0.2,0.1c0,0.2-0.1,0.3-0.3,0.2c-0.1-0.1-0.3-0.1-0.3-0.1c-0.2,0-0.4,0-0.6-0.1c-0.2-0.1-0.4-0.1-0.6-0.1
			c-0.3,0-0.6-0.1-0.9-0.3c-0.1-0.1-0.1-0.1,0-0.3c-0.2,0.1-0.3-0.1-0.4-0.1c-0.1-0.1-0.1-0.1-0.2-0.2c-0.3-0.1-0.5-0.5-0.7-0.7
			c-0.1-0.1-0.1-0.2-0.1-0.3c-0.1-0.3-0.2-0.5-0.4-0.6c-0.1-0.1-0.1-0.1-0.1-0.3c-0.1-0.1-0.1-0.3-0.3-0.4l-0.1-0.1
			c-0.1-0.3-0.3-0.4-0.5-0.6c-0.1-0.1-0.2-0.3-0.2-0.4c0-0.1,0.1-0.2,0.1-0.1c0.1,0.1,0.3,0.1,0.5,0.1s0.3,0.1,0.3,0.2
			s0.2,0.3,0.3,0.3c0.1,0.1,0.2,0.3,0.4,0.3c0.1-0.1,0-0.2-0.1-0.3c-0.1-0.3-0.2-0.5-0.3-0.8c0-0.1-0.1-0.2-0.1-0.3
			c-0.1-0.1-0.1-0.1-0.2-0.1c-0.2-0.1-0.3-0.3-0.2-0.6c0.1-0.3,0.1-0.7,0.1-1.1c0-0.1,0-0.1,0-0.1c-0.2-0.4-0.2-0.8-0.3-1.3
			c-0.1,0-0.1,0.1-0.2,0.1c-0.1,0.1-0.3,0.1-0.5,0.1c-0.1,0-0.2-0.1-0.2-0.2v-0.1c0.1-0.5-0.1-0.8-0.5-1.1c-0.3-0.3-0.3-0.3-0.3-0.6
			c-0.2,0.1-0.5,0.1-0.7,0.2c-0.1,0-0.1,0-0.2,0c-0.2-0.1-0.3,0-0.3,0.1c-0.1,0.3-0.3,0.4-0.5,0.5c-0.1,0.1-0.3,0.1-0.4,0.3
			c-0.1,0.1-0.1,0.2-0.3,0.3c-0.1,0.1-0.3,0.2-0.4,0.4c0,0.1-0.1,0.1-0.2,0.1c-0.5,0.1-0.5,0.3-0.4,0.7c0.1,0.2,0.1,0.4-0.1,0.5
			c-0.1,0.3,0,0.5-0.1,0.7c0,0.1,0.1,0.1,0.1,0.1c0.1,0,0.2,0.1,0.2,0.1c0.1,0.1,0.1,0.3,0.3,0.5c0.1,0.1,0.1,0.3,0,0.5
			c-0.1,0.2-0.3,0.2-0.4,0.2c-0.2,0-0.2-0.1-0.2-0.2c-0.1-0.2-0.1-0.4-0.1-0.6c0-0.1,0.1-0.1,0-0.2s-0.1,0-0.2,0.1s-0.1,0.1-0.2,0.1
			c-0.3,0.1-0.5-0.1-0.5-0.3c-0.1-0.3-0.2-0.7-0.4-1.1c-0.1-0.1-0.1-0.2-0.1-0.3c0-0.2-0.1-0.3-0.2-0.5c-0.1-0.3-0.3-0.5-0.3-0.8
			c0-0.1-0.1-0.2-0.1-0.3c-0.1-0.3-0.1-0.5-0.1-0.7c0.1-0.1-0.1-0.2-0.1-0.1c-0.4,0.3-0.6,0-0.9-0.3c-0.1-0.1-0.1-0.1,0-0.3
			c0.1,0,0.1-0.1,0-0.1c-0.1-0.1-0.1-0.2-0.3-0.2c-0.2-0.1-0.3-0.2-0.4-0.4c-0.1-0.2-0.1-0.2-0.4-0.2c-0.5,0.1-0.9,0.1-1.5,0
			c-0.1,0-0.3,0-0.4,0c-0.3,0-0.5,0-0.7-0.3c-0.1,0.3,0.1,0.6,0.3,0.7c0.3,0.1,0.4,0.3,0.5,0.5c0,0.1,0.1,0.1,0.1,0.1
			c-0.1,0.2-0.1,0.4-0.3,0.5c-0.1,0.1-0.2,0.2-0.2,0.3c0,0.1-0.1,0.2-0.2,0.3c-0.1,0-0.1,0.1-0.2,0.1c-0.1,0.1-0.1,0.1-0.2,0.1h-0.1
			c-0.1,0.3-0.5,0.3-0.7,0.3c-0.1,0.1-0.3,0.1-0.3,0.3c-0.1,0.1-0.2,0.2-0.3,0.2c-0.3,0.1-0.5,0.1-0.7,0.3c-0.1,0.1-0.3,0.1-0.5,0.2
			c-0.3,0.1-0.6,0.3-1.1,0.3c-0.1,0-0.1,0.1-0.1,0.1s0,0.1,0.1,0.1c0.1,0.1,0.1,0.1,0.2,0.2s0.1,0.1,0.3,0.1
			c0.3-0.1,0.7-0.1,1.1-0.2c0.2-0.1,0.4-0.1,0.5-0.2c0.2-0.1,0.3-0.1,0.3,0.1c0,0.2,0.1,0.4-0.1,0.5c-0.1,0-0.1,0.1-0.1,0.1
			c0,0.2-0.1,0.3-0.2,0.5s-0.2,0.3-0.3,0.5c-0.2,0.5-0.5,0.9-0.9,1.3c-0.1,0.1-0.3,0.2-0.5,0.3c-0.4,0.3-0.6,0.6-0.9,0.9
			c-0.1,0.1-0.2,0.3-0.3,0.4c-0.1,0-0.1,0.1-0.1,0.1c-0.1,0.3-0.2,0.5-0.3,0.7c-0.1,0.1-0.1,0.2,0.1,0.3c0.1,0.1,0.1,0.3,0.2,0.4
			c0,0.1,0.1,0.1,0,0.1c-0.1,0.1-0.1,0.3-0.1,0.3c0,0.1,0.1,0.3,0.2,0.3c0.1,0.1,0.1,0.1,0.1,0.2c-0.1,0.4,0,0.7,0.1,1.1
			c0,0.1,0.1,0.1,0,0.2c-0.1,0.1-0.1,0.3-0.3,0.5c-0.1,0.1-0.2,0.3-0.4,0.3c-0.3,0.1-0.5,0.2-0.7,0.5c-0.1,0.1-0.1,0.1-0.3,0.1
			c-0.3,0.1-0.3,0.2-0.2,0.5c0.1,0.3,0.1,0.6,0.2,0.9c0,0.2-0.1,0.3-0.3,0.5c-0.1,0.1-0.1,0.1-0.2,0.1c-0.3,0.1-0.3,0.1-0.3,0.5
			c0,0.3-0.1,0.7-0.4,0.9c-0.1,0.1-0.1,0.1-0.2,0.3c-0.2,0.4-0.5,0.7-0.9,0.9c-0.2,0.1-0.4,0.2-0.7,0.3c-0.3,0.1-0.5,0.1-0.8,0.1
			c-0.1,0-0.1,0-0.1,0c-0.2,0.1-0.5,0.1-0.7,0.2c-0.1,0.1-0.3,0-0.5-0.1c-0.1-0.1-0.3-0.1-0.3-0.3c0-0.1-0.1-0.1-0.1-0.1
			c-0.1-0.1-0.1-0.1,0-0.2c0.1-0.1,0.1-0.2,0-0.3c-0.1-0.2-0.3-0.4-0.3-0.7c-0.1-0.1-0.1-0.3-0.3-0.4c-0.3-0.2-0.3-0.5-0.3-0.9
			c-0.1-0.3-0.1-0.7-0.1-1.1c0-0.1,0-0.1-0.1-0.1c-0.2-0.2-0.3-0.5-0.3-0.7c-0.1-0.1-0.1-0.3-0.2-0.4c-0.3-0.3-0.2-0.7-0.1-1.1
			c0-0.1,0.1-0.1,0.1-0.2c0-0.3,0.1-0.5,0.3-0.7c0.1-0.2,0.1-0.4,0.1-0.6c-0.1-0.2-0.1-0.4-0.1-0.7c0.1-0.2-0.1-0.3-0.2-0.5
			c-0.1-0.1-0.1-0.2-0.1-0.3c-0.1-0.3-0.2-0.5-0.5-0.7c-0.3-0.2-0.5-0.5-0.5-0.7c-0.1-0.1-0.1-0.2,0-0.3c0.3-0.4,0.3-0.8,0.2-1.3
			c0-0.1-0.1-0.3-0.3-0.3c-0.2,0-0.3,0.1-0.5,0.1c-0.2,0.1-0.3,0-0.4-0.2c0-0.1-0.1-0.1-0.1-0.1c-0.1-0.3-0.3-0.3-0.5-0.3
			c-0.5,0-0.8,0.2-1.3,0.4c-0.3,0.1-0.5,0.1-0.7,0.1c-0.3-0.1-0.6,0-0.9,0.1c-0.1,0.1-0.3,0.2-0.5,0.1c-0.2-0.1-0.5-0.1-0.6-0.3
			c-0.2-0.3-0.5-0.5-0.8-0.6c-0.1-0.1-0.3-0.2-0.3-0.3c-0.1-0.2-0.1-0.3-0.2-0.5c-0.1-0.2-0.3-0.4-0.6-0.4c-0.1,0-0.1-0.1-0.1-0.1
			c0-0.1-0.1-0.3-0.1-0.5c-0.1-0.2,0-0.4-0.2-0.6c-0.1-0.1-0.1-0.1,0-0.3c0.3-0.5,0.4-1.1,0.3-1.6c0,0,0-0.1-0.1-0.1
			c-0.3-0.3-0.1-0.5,0-0.7c0.1-0.3,0.2-0.5,0.5-0.7c0.1-0.3,0.3-0.5,0.5-0.8c0.1-0.2,0.3-0.3,0.5-0.4c0.2-0.1,0.4-0.3,0.5-0.4
			c0.1-0.1,0.1-0.3,0.1-0.3c-0.1-0.4,0.1-0.7,0.5-0.9c0.3-0.1,0.5-0.4,0.7-0.7c-0.1-0.3-0.5-0.3-0.7-0.4c-0.1,0-0.2-0.1-0.3-0.2
			c0-0.1,0-0.1-0.1-0.2c-0.1-0.1-0.1-0.3,0-0.5c0.2-0.3,0.2-0.5,0.1-0.9c-0.1-0.2-0.1-0.3,0.1-0.4c0.1-0.1,0.3-0.1,0.5-0.1
			c0.1,0.1,0.2,0,0.3,0c0.1,0,0.1-0.1,0.2,0c0.3,0.1,0.6,0,0.9,0.1c0.2,0.1,0.3-0.1,0.4-0.2c0.1-0.3,0.1-0.5-0.1-0.7
			c-0.2-0.2-0.4-0.3-0.7-0.3c-0.1,0-0.2-0.1-0.2-0.3c0-0.1,0.1-0.1,0.2-0.2c0.1-0.1,0.3-0.1,0.4,0c0.1,0.1,0.2,0.1,0.3,0
			c0-0.1-0.1-0.2,0-0.3c0.1-0.1,0.3-0.1,0.3,0c0.1,0.1,0.2,0,0.3,0c0.4-0.1,0.7-0.5,1.1-0.6c0.1-0.1,0.1-0.1,0.2-0.3
			c0.1-0.1,0.1-0.2,0.2-0.3c0.3-0.1,0.7-0.3,1.1-0.1h0.1v0.3c-0.2-0.3-0.1-0.5-0.2-0.8c-0.1-0.1,0.1-0.2,0.1-0.3
			c0.1-0.1,0.3-0.1,0.5-0.2c0.1-0.1,0.1-0.1,0.2,0c0.1,0.1,0.1,0.1,0,0.2c-0.1,0.1-0.1,0.1,0.1,0.1c0.1,0.1,0.1,0.1,0,0.2
			c-0.2,0.2-0.3,0.2-0.1,0.4c0.1,0.1,0.3,0.3,0.5,0.1c0.2-0.1,0.4-0.1,0.5,0c0.1,0.1,0.2,0,0.3,0c0.3-0.1,0.5-0.2,0.8-0.2
			c0.1,0,0.2-0.1,0.3,0c0.2,0.1,0.3,0,0.5-0.1c0.1-0.1,0.2-0.1,0.2-0.3s0.1-0.3,0.1-0.4c0.1-0.2,0.3-0.3,0.5-0.1c0,0,0,0,0.1,0
			c0.1,0.1,0.3,0.1,0.3-0.1c0.1-0.1,0-0.2-0.1-0.3l-0.1-0.1c-0.1-0.1-0.1-0.2,0.1-0.3c0.3-0.1,0.6-0.1,0.9-0.1
			c0.1,0.1,0.3,0,0.4-0.1c-0.4-0.1-0.8,0.1-1.3,0.1c-0.3,0.1-0.5,0-0.7-0.1c-0.1-0.1-0.2-0.1-0.1-0.3c0.1-0.1,0-0.3-0.1-0.4
			c-0.1-0.1-0.1-0.1-0.1-0.3c0-0.1,0.1-0.1,0.1-0.1c0.1,0,0.1-0.1,0.2-0.1c0.3-0.1,0.5-0.3,0.8-0.5c-0.2-0.1-0.4-0.1-0.7-0.1
			c-0.1,0-0.3,0.1-0.3,0.2c0,0.3-0.2,0.4-0.4,0.4c-0.3,0.1-0.5,0.3-0.7,0.3c-0.1,0.1-0.1,0.2-0.1,0.3c-0.1,0.1,0,0.2,0.1,0.2
			c0.1,0,0.1,0.1,0.1,0.1c0.1,0.1,0.3,0.1,0.2,0.3c-0.1,0.1-0.1,0.3-0.3,0.3c-0.2,0.1-0.3,0.2-0.3,0.4c-0.1,0.1-0.1,0.3-0.1,0.3
			c-0.1,0.1-0.1,0.2-0.3,0.1c-0.1,0-0.2,0.1-0.3,0.1c-0.1,0.1-0.2,0.1-0.3,0.1c-0.2,0-0.3-0.1-0.3-0.2s-0.1-0.2-0.1-0.3
			c-0.1-0.1-0.3-0.3-0.3-0.5c0-0.1,0-0.1-0.1-0.1c-0.1-0.1-0.1-0.1-0.2-0.1c-0.3,0.1-0.5,0.4-0.9,0.4c-0.1,0-0.3,0.1-0.3-0.1
			c-0.1-0.1-0.1-0.1-0.2-0.1c-0.1-0.1-0.1-0.1-0.2-0.2c0-0.1,0-0.2,0.1-0.3c0.1,0,0.1,0,0.2-0.1c0-0.1-0.1-0.1-0.1-0.1
			c-0.3-0.1-0.3-0.1-0.3-0.3c0-0.1,0-0.1,0-0.1s0-0.1,0.1-0.1c0.2,0,0.3-0.1,0.5-0.2c0.1-0.1,0.3-0.1,0.4-0.3h0.1
			c0.3-0.1,0.3-0.1,0.5-0.2c0.2-0.1,0.5-0.3,0.7-0.3c0.1-0.1,0.2-0.1,0.2-0.3c-0.1-0.2,0.1-0.3,0.2-0.3c0.1-0.1,0.1-0.1,0.3-0.1
			c0.2,0,0.4,0,0.4-0.3c0-0.1,0.1-0.1,0.1-0.1c0.1,0.1,0.2-0.1,0.3-0.1c0.1-0.1,0.2-0.3,0.3-0.3s0.3-0.1,0.5-0.1
			c0.3,0,0.4-0.1,0.6-0.1c0.1-0.1,0.3-0.1,0.3-0.1c0.1,0,0.3,0,0.5-0.1c0.1-0.1,0.2-0.1,0.3,0c0,0,0.1,0,0.1,0
			c0.3-0.1,0.7,0,1.1,0.1c0.1,0,0.3,0.1,0.3,0.2c0.1,0.1,0.1,0.1,0.2,0.1c0.2-0.1,0.3-0.1,0.5,0.1c0.1,0.1,0.2,0.1,0.3,0.1
			c0.4,0,0.8,0.1,1.1,0.3c0.2,0.1,0.4,0.1,0.6,0.1c0.1,0,0.1,0.1,0.2,0.1c0.3,0.1,0.3,0.3,0.1,0.5l-0.1,0.1c0.1,0,0.2-0.1,0.3-0.1
			c0.1-0.1,0.2-0.1,0.3-0.1c0.1,0.1,0.1,0,0.2-0.1c0-0.1,0.1-0.3-0.1-0.4c-0.1-0.1,0-0.1,0.1-0.1c0.2,0,0.5-0.1,0.7,0h0.1
			c0.1,0.1,0.3,0.1,0.2,0.3c0,0.1-0.1,0.1-0.3,0.1h-0.1c0.2,0.2,0.4,0.2,0.5,0c0.1-0.1,0.2-0.1,0.3-0.2c0.4-0.1,0.8-0.2,1.3-0.3
			c0.1,0,0.2-0.1,0.3-0.1c0.2,0,0.2,0,0.1,0.2c0.1,0.1,0.1,0,0.1,0c0.1-0.1,0.3-0.1,0.5-0.1c0.3,0,0.5-0.1,0.7-0.1
			c0.1-0.1,0.1-0.1,0.2,0.1c0.1,0.1,0.1,0.1,0.3,0.1c0-0.1-0.1-0.1-0.1-0.3c0.1-0.1,0.1-0.1,0.3-0.1c0.3,0,0.6,0,0.9,0.1
			c0.4,0.1,0.8,0.1,1.3,0.3h0.1c-0.1-0.1-0.1-0.2-0.3-0.2c-0.3-0.1-0.3-0.1-0.3-0.3c0-0.3,0-0.4,0.3-0.5c0.1-0.1,0.2-0.1,0.3-0.3
			c0.1-0.3,0.3-0.3,0.6-0.2c0.1,0,0.2,0,0.3,0c0.1,0,0.2,0,0.3,0.1c0.2,0.1,0.2,0.2,0.1,0.3c-0.1,0.1-0.1,0.1,0.1,0.3
			c0,0.1,0,0.1,0,0.1c-0.1,0.2-0.1,0.4,0,0.6c0,0.1,0.1,0.1,0.1,0.1c0.1,0.2,0.1,0.2-0.1,0.3c-0.1,0.1-0.3,0.1-0.3,0.3
			c0.2-0.1,0.4-0.2,0.5-0.3c0.2-0.1,0.3-0.3,0.1-0.5c-0.1-0.1-0.1-0.2-0.1-0.3c0.1-0.2,0-0.3-0.2-0.4c-0.1-0.1,0-0.2,0.1-0.3
			s0.1-0.1,0.3-0.1c0.2-0.1,0.2-0.1,0.1-0.2c-0.1-0.1,0-0.1,0.1-0.1s0.1,0,0.1,0C78.3,541.7,78.3,541.7,78.3,541.7z M58.8,554.5
			c0.1,0.1,0.1,0.1,0.1,0.1c0.2,0.2,0.4,0.2,0.6,0.2c0.3,0,0.6,0.1,0.8,0.4c0,0.1,0.1,0.1,0.1,0.1c0.3,0,0.5,0.1,0.7,0.3
			c0.1,0.1,0.2,0,0.3-0.1c0-0.1,0-0.1,0-0.2c0-0.2,0.1-0.3,0.3-0.4c0.3-0.1,0.5-0.1,0.7,0.1c0.3,0.2,0.5,0.2,0.7,0.3
			c0.3,0.1,0.5,0.1,0.8,0.2c0.1,0,0.2,0.1,0.3,0c0.3-0.1,0.5-0.2,0.9-0.1c0.3,0.1,0.5-0.1,0.7-0.4c0.1-0.1,0.1-0.3,0.2-0.4
			c0.1-0.2,0.1-0.3,0.1-0.5s-0.2-0.3-0.3-0.2c-0.3,0.2-0.5,0.2-0.9,0c-0.1-0.1-0.3-0.1-0.4,0c-0.1,0.1-0.1,0.1-0.2,0.1
			c-0.2-0.1-0.4-0.1-0.6-0.1c-0.1,0-0.2-0.1-0.1-0.2c0-0.1-0.1-0.3-0.2-0.3c-0.1-0.1-0.1-0.1-0.1-0.3c0-0.1,0-0.1,0-0.2s0-0.1,0-0.1
			c-0.2,0-0.1-0.1-0.1-0.2c0-0.1,0-0.1-0.1-0.1c-0.2,0-0.4,0.1-0.5,0.1c-0.1,0.1-0.1,0.2-0.1,0.3c0,0.1,0.1,0.1,0.1,0.1
			c0.1,0,0.1,0,0.1,0.1c0.1,0.2,0.1,0.3-0.1,0.5c-0.1,0.1-0.1,0.1-0.1,0.2c0.1,0.1,0.1,0.1,0,0.3c-0.1,0.1-0.1,0-0.3-0.1
			c-0.1,0-0.1-0.1-0.1-0.1c-0.1-0.1-0.2-0.2-0.3-0.3c-0.1-0.1-0.2-0.1-0.2-0.3s-0.1-0.3-0.2-0.3c-0.2-0.1-0.2-0.3-0.2-0.5
			c0-0.3,0-0.4-0.3-0.5c-0.3-0.1-0.5-0.1-0.7-0.4c-0.1-0.1-0.2-0.1-0.3-0.3c-0.1-0.2-0.3-0.3-0.5-0.3c-0.1,0-0.1,0.1-0.1,0.2
			c0,0.1,0.1,0.1,0.1,0.1c0.1,0.1,0.3,0.1,0.3,0.3c0.1,0.2,0.3,0.3,0.5,0.3c0.1,0,0.2,0,0.2,0.1c0.1,0.2,0.3,0.3,0.5,0.3
			c0.1,0.1,0.2,0.1,0.3,0.2c0,0.1,0,0.1,0,0.1c-0.1,0.1-0.1,0.1-0.1,0c-0.1-0.1-0.1-0.1-0.2-0.1c-0.1,0-0.1,0-0.1,0v0.1
			c0.1,0.1,0.1,0.1,0.1,0.2c-0.1,0.1-0.2,0.3-0.3,0.4s-0.3,0.1-0.3,0.3c0,0.1-0.1,0.1-0.1,0.1c-0.2-0.1-0.5-0.1-0.6-0.3
			c-0.1-0.1-0.1-0.1,0-0.2c0.1-0.1,0.1-0.1,0.2-0.1c0.2,0.1,0.3,0,0.5,0c0.1,0,0.2,0,0.2-0.1c0.1-0.1,0-0.2-0.1-0.3
			c-0.1-0.1-0.2-0.2-0.3-0.3c-0.3-0.1-0.6-0.3-0.9-0.5c-0.1-0.1-0.1-0.1-0.2-0.1c-0.1,0-0.2-0.1-0.2-0.2c0-0.3-0.3-0.4-0.5-0.3
			c-0.1,0.1-0.1,0.1-0.2,0.1c-0.3,0.1-0.5,0.3-0.8,0.1c-0.2-0.1-0.3,0-0.4,0.2c-0.1,0.3-0.3,0.4-0.5,0.5c-0.3,0.1-0.5,0.3-0.5,0.6
			c0,0.3-0.1,0.4-0.3,0.5c-0.2,0.2-0.5,0.4-0.8,0.3c-0.1,0-0.3,0-0.3,0.1c-0.1,0.1-0.1,0.1-0.1,0.1c0,0.1,0.1,0.1,0.1,0.1
			c0.2,0,0.3,0.1,0.5,0.1c0.1,0,0.2,0,0.3,0c0.1-0.1,0.4-0.1,0.5-0.3c0.3-0.2,0.7-0.2,1.1-0.3c0.3-0.1,0.7,0.1,1.1,0
			c0.3-0.1,0.5,0,0.7-0.1c0.1-0.1,0.3-0.1,0.4,0c0.1,0.1,0.1,0.1,0.1,0.2c-0.1,0.1-0.1,0.3,0,0.4c0.1,0.1,0,0.2-0.1,0.3
			C58.9,554.4,58.8,554.4,58.8,554.5z M65.5,550.7c-0.2,0-0.3,0-0.5-0.1c-0.1-0.1-0.1,0-0.1,0.1c-0.3,0.3-0.5,0.7-0.7,1.1
			c-0.1,0.1,0.1,0.4,0.3,0.4c0.3,0,0.5,0.1,0.7-0.1c0.4-0.3,0.9-0.3,1.3-0.1s0.8,0.2,1.3,0.2c0.1,0,0.2-0.1,0.3-0.1
			c0.1,0,0.1-0.1,0.1-0.1s-0.1-0.1-0.2-0.2c-0.1-0.1-0.2-0.1-0.3-0.1c-0.2-0.2-0.5-0.3-0.7-0.5c-0.1-0.1-0.2-0.1-0.3-0.1
			c-0.2,0-0.3,0.1-0.5,0.1s-0.4,0-0.5-0.1C65.4,550.9,65.4,550.9,65.5,550.7z M68.7,561.2c-0.1-0.3-0.1-0.7-0.2-1.1
			c-0.1-0.3-0.3-0.6-0.5-0.9c-0.1-0.1-0.1-0.1-0.1-0.1c-0.2-0.2-0.4-0.4-0.3-0.7c0-0.3-0.1-0.4-0.3-0.5c-0.1-0.1-0.2-0.2-0.3-0.3
			c-0.1-0.3-0.3-0.6-0.5-0.9c-0.1-0.1-0.1-0.1-0.3-0.1c-0.1,0.1-0.1,0.1-0.1,0.2c0,0.1,0.1,0.1,0.1,0.2c0.1,0.3,0.3,0.5,0.3,0.9
			c0.1,0.1,0.1,0.3,0.3,0.3c0.2,0.2,0.3,0.4,0.3,0.7c0,0.3,0,0.5,0.3,0.7c0.2,0.1,0.3,0.3,0.3,0.5c0,0.1,0,0.3,0.3,0.3
			c0.1,0,0.1,0.1,0.1,0.1c0,0.1,0,0.1,0.1,0.1c0.2,0.1,0.3,0.2,0.3,0.3C68.3,561.1,68.5,561.1,68.7,561.2z M66.9,544.6
			c0-0.1-0.1-0.1-0.1-0.2c-0.1-0.1,0-0.1,0.1-0.1c0.1,0,0.1,0,0.2,0.1c0.1,0.1,0.3,0.1,0.5,0.1c0.1,0,0.1,0,0.1-0.1
			c0-0.1-0.1-0.2-0.2-0.2c-0.4,0-0.8-0.1-1.3-0.1c0,0.1,0.1,0.1,0.1,0.2c0,0.1,0.1,0.3,0.2,0.3c0.1,0,0.1,0.1,0.2,0.1
			C66.8,544.6,66.8,544.6,66.9,544.6z M66.6,550.7c0.1,0,0.1,0,0.2,0c0.1,0,0.2,0,0.1-0.1c0-0.1-0.1-0.1-0.2-0.1
			c-0.1,0-0.2,0-0.3,0.1c-0.1,0-0.2,0-0.1,0.1C66.4,550.7,66.5,550.7,66.6,550.7L66.6,550.7z"/>
		<path fill="#1A4922" d="M90.8,572.2c0.1,0.1,0.2,0,0.3-0.1c0.2-0.1,0.3-0.2,0.5-0.2c0.1,0,0.3-0.1,0.3-0.2
			c0.1-0.2,0.3-0.3,0.3-0.6c0-0.1,0.1-0.2,0.2-0.3c0.1-0.1,0.3-0.1,0.5-0.2c0.2-0.1,0.3-0.2,0.3-0.4c0.1-0.3,0.4-0.4,0.7-0.2
			c0.1,0.1,0.1,0.1,0.3,0.2c0.1,0,0.2,0,0.2-0.1c0-0.1,0.1-0.3,0.2-0.3c0.1-0.1,0.1-0.1,0.1-0.2c0.1-0.1,0.2-0.2,0.3-0.2
			c0.1,0,0.1,0,0.2-0.1c0.1-0.1,0.3-0.1,0.4-0.1c0.3,0.1,0.5,0.2,0.8,0.2c0.1,0,0.1,0,0.2,0c0.1,0,0.1,0.1,0.1,0.1
			c-0.1,0.1-0.1,0.3-0.2,0.3c-0.2,0.2-0.2,0.4,0.1,0.5c0.1,0.1,0.2,0.1,0.3,0.2c0.1,0.1,0.3,0.2,0.4,0.3c0.1,0,0.2,0.1,0.3,0.1
			c0.1,0.1,0.2,0.1,0.3-0.1c0.1-0.3,0.2-0.5,0.2-0.8c-0.1-0.3,0-0.7,0.1-1.1c0-0.1,0.1-0.1,0.1-0.1c0.1-0.1,0.2-0.1,0.2,0.1
			c0.1,0.3,0.3,0.5,0.3,0.9c0,0.1,0.1,0.1,0.1,0.1c0.2,0,0.3,0.1,0.3,0.3c0.1,0.3,0.1,0.5,0.3,0.7c0,0.1,0.1,0.1,0.1,0.2
			c0,0.2,0.1,0.3,0.3,0.4c0.3,0.1,0.5,0.4,0.7,0.7c0,0.1,0.1,0.1,0.1,0.1c0.2,0.1,0.3,0.3,0.3,0.4c0.1,0.2,0.3,0.3,0.4,0.5
			c0.3,0.3,0.3,0.6,0.3,1.1c0.1,0.3,0.1,0.5-0.1,0.7c0,0.1-0.1,0.1-0.1,0.2c0,0.3-0.2,0.6-0.4,0.9c-0.3,0.3-0.5,0.7-0.5,1.3
			c0,0.2-0.1,0.3-0.3,0.3c-0.3,0-0.5,0.1-0.7,0.3c-0.1,0.1-0.2,0.1-0.3,0.1c-0.1-0.1-0.3-0.1-0.5-0.1c-0.1,0.1-0.3,0.1-0.3,0
			c-0.1-0.1-0.1-0.1-0.3-0.1c-0.4-0.1-0.7-0.3-0.8-0.7c-0.1-0.1-0.1-0.3-0.3-0.3c-0.2-0.1-0.3-0.2-0.4-0.4c0-0.1-0.1-0.1-0.2-0.1
			c-0.1,0.1-0.1,0.2-0.3,0.2c-0.1,0-0.1-0.2-0.2-0.3c-0.1-0.1-0.2-0.3-0.3-0.4c-0.1-0.1-0.3-0.2-0.4-0.2c-0.1,0-0.1,0-0.1,0
			c-0.4-0.2-0.7-0.1-1.1,0c-0.1,0.1-0.2,0.1-0.3,0.1c-0.3,0-0.5,0.1-0.7,0.2c-0.1,0-0.1,0.1-0.1,0.1c-0.1,0.3-0.5,0.3-0.7,0.2
			c-0.4-0.1-0.7,0.1-1.1,0.3c-0.3,0.3-1.1,0.1-1.1-0.3c0-0.1,0-0.1,0.1-0.2c0.2-0.1,0.1-0.3,0.1-0.5c-0.1-0.2-0.1-0.5-0.2-0.7
			c-0.1-0.3-0.2-0.5-0.3-0.8c-0.1-0.2-0.1-0.2,0-0.4c0.1-0.1,0-0.1,0-0.1c-0.1-0.1-0.1-0.3-0.1-0.5c0.1-0.3,0.2-0.6,0.5-0.8
			c0.1-0.1,0.3-0.1,0.4-0.3C90.7,572.2,90.8,572.2,90.8,572.2z"/>
		<path fill="#1A4922" d="M100,567.4c0.2-0.1,0.4-0.1,0.6-0.1c0.3,0.1,0.5-0.1,0.7-0.3c0.1-0.1,0.1-0.2-0.1-0.3
			c-0.1-0.1-0.3-0.1-0.4-0.3c-0.1,0-0.1-0.1-0.1-0.1c0-0.1,0.1-0.1,0.1-0.1c0.1,0,0.3,0.1,0.5,0.1c0.1,0,0.1,0.1,0.1,0.1
			c0,0.1,0,0.1,0.1,0.1c0.1-0.1,0.2,0,0.1,0.1c0,0.1,0.1,0.1,0.1,0.1c0.1,0.2,0.1,0.3-0.1,0.3c-0.1,0-0.2,0.1-0.3,0.2
			c-0.3,0.4-0.5,0.4-0.9,0.2c-0.1,0-0.1-0.1-0.1-0.1c-0.1,0.1,0,0.1,0,0.1v0.1c-0.2,0.3,0.1,0.5,0.2,0.6c0.1,0.1,0.2,0.3,0.4,0.2
			c0.1,0,0.2,0,0.2,0.1c0,0.1,0.1,0.2,0.1,0.3c0.1,0.1,0.1,0.1-0.1,0.2c-0.1,0-0.1,0-0.2,0c-0.2-0.1-0.4-0.1-0.6-0.1
			c-0.3-0.1-0.4-0.3-0.5-0.5c-0.1-0.2-0.3-0.3-0.5-0.2c-0.1,0.1-0.2,0.1-0.2,0.3c0,0.2-0.1,0.2-0.3,0.2c-0.3,0-0.5,0-0.7-0.3
			c-0.1-0.1-0.1-0.1-0.3-0.1c-0.1,0-0.3,0.1-0.4,0.1c-0.1,0-0.1-0.1-0.1-0.1c0.1-0.1,0.1-0.1,0.1-0.2c0.2-0.3,0.1-0.7-0.3-0.7
			c-0.3-0.1-0.6-0.1-0.9-0.3c-0.1,0-0.1-0.1-0.1,0c-0.1,0.1-0.2,0.1-0.3-0.1c-0.1-0.1-0.2-0.3-0.1-0.4c0.1-0.1,0.3-0.3,0.4-0.3
			c0.1-0.1,0.2,0,0.3,0.1v0.1c0.1,0.2,0.1,0.2,0.3,0.1c0.1-0.2,0.4-0.3,0.6-0.4c0.1-0.1,0.1,0,0.1,0c0.5,0.3,1.1,0.5,1.7,0.6
			c0.3,0.1,0.4,0.3,0.6,0.4l0.1,0.1c0,0.2,0.1,0.2,0.3,0.1C100,567.2,100,567.3,100,567.4z"/>
		<path fill="#1A4922" d="M68.6,572.9c0-0.1,0-0.3,0.1-0.4c0.2-0.3,0.3-0.6,0.1-0.9c-0.1-0.3,0-0.5,0.1-0.7c0.1-0.1,0.1-0.1,0.2-0.1
			c0.1-0.1,0.3-0.1,0.3-0.1c0.3-0.1,0.5-0.3,0.5-0.5c0-0.1,0-0.1,0.1-0.1c0.2,0,0.2-0.1,0.3-0.3c0-0.1,0-0.1,0.1-0.1
			c0.1-0.1,0.1-0.1,0.2,0c0.2,0.3,0.3,0.7,0.3,1.1c0,0.1,0,0.1-0.1,0.1c-0.2,0.1-0.1,0.2-0.1,0.3c0,0.1,0,0.1,0,0.1
			c-0.3,0.7-0.5,1.6-0.7,2.3c-0.1,0.3-0.2,0.4-0.5,0.4c-0.2,0.1-0.3,0.1-0.5,0c-0.2-0.1-0.3-0.3-0.3-0.5
			C68.7,573.2,68.6,573.1,68.6,572.9z"/>
		<path fill="#1A4922" d="M96.3,554.5c-0.3,0.5-0.7,0.7-1.1,0.2c0.1,0.2,0.1,0.4,0.1,0.6c-0.1,0.2-0.3,0.3-0.4,0.2
			c-0.1-0.1-0.1-0.1-0.1-0.2c0.1-0.2,0-0.3-0.1-0.5c-0.1-0.1-0.1-0.1,0-0.1c0.1-0.1,0.3-0.1,0.3-0.3c0.3-0.1,0.6-0.5,1.1-0.4
			c0.3,0.1,0.5-0.1,0.6-0.4c0.1-0.1,0.1-0.2,0.3-0.2c0.1,0,0.1,0,0.2,0c0.1,0,0.2-0.1,0.3-0.2c0.1-0.2,0.2-0.3,0.1-0.6
			c-0.1-0.2,0.3-0.5,0.5-0.5c0.1,0,0.1,0.1,0.1,0.1c0,0.1,0.1,0.3,0.2,0.5c0.1,0.1,0.1,0.1,0,0.1c-0.1,0.1-0.1,0.3-0.2,0.5
			c-0.1,0.2-0.1,0.4-0.2,0.6c-0.1,0.1-0.1,0.3-0.3,0.5c-0.2,0.2-0.5,0.1-0.7,0.1c-0.3-0.1-0.3-0.1-0.5,0.2c-0.1,0.1-0.1,0.2-0.1,0.2
			C96.4,554.8,96.4,554.6,96.3,554.5C96.4,554.5,96.3,554.5,96.3,554.5z"/>
		<path fill="#1A4922" d="M54.9,547.3c0.2,0.1,0.3,0.1,0.4,0.3c0,0.1,0.1,0.1,0.2,0.2c0.1,0.1,0.3,0.2,0.3,0.3
			c0.1,0.1,0.1,0.1,0.3,0.1c0.2,0.1,0.2,0.2,0.1,0.3c-0.1,0.1-0.3,0.2-0.3,0.3c0,0.1-0.1,0.1-0.1,0.1c-0.3,0-0.5,0-0.7,0.1
			c-0.1,0-0.2,0-0.3,0c-0.1,0-0.1,0-0.2,0s-0.1,0.1-0.2,0c-0.1-0.1,0-0.1,0.1-0.2c0.1-0.1,0.1-0.1,0-0.2c0-0.1-0.1-0.1-0.1-0.3
			c-0.1-0.2,0-0.3,0.3-0.3c0.1,0,0.2-0.1,0.2-0.1s0-0.2-0.1-0.1c-0.1,0-0.2,0-0.3,0c-0.1,0-0.1,0-0.2-0.1c-0.1-0.1-0.1-0.2-0.3-0.3
			c-0.2-0.1-0.2-0.3,0-0.5c0.1-0.1,0.1-0.2,0.1-0.3c0.1-0.1,0.1-0.3,0.3-0.3c0.1,0,0.2-0.1,0.3-0.1c0.1-0.1,0.1-0.1,0.2,0
			s0,0.1,0,0.2c-0.1,0.2-0.1,0.2,0.1,0.3c0.2,0.1,0.2,0.1,0.1,0.3c0,0.1-0.1,0.1-0.1,0.1C55,547.2,54.9,547.2,54.9,547.3z"/>
		<path fill="#1A4922" d="M72.4,542.6c-0.1,0-0.3,0-0.4,0c-0.1,0-0.3,0-0.3-0.2c0-0.1-0.1-0.1-0.1-0.1s-0.1,0-0.2,0
			c-0.1,0-0.3,0-0.3-0.1c0-0.1,0.1-0.1,0.2-0.2c0.1,0,0.3-0.1,0.4-0.3c0-0.1,0.1-0.1,0.1-0.1c0-0.2,0.1-0.2,0.3-0.2
			c0.1,0,0.2,0,0.3-0.1c0.1,0,0.2-0.1,0.1-0.2c0-0.1,0.1-0.2,0.2-0.2c0.1,0,0.3,0,0.4-0.1l0.1-0.1c0.4-0.1,0.7-0.2,1.1-0.2
			c0.5,0,0.9,0,1.3-0.2c0.1-0.1,0.2-0.1,0.3,0c0.1,0,0.2,0,0.3,0.1c0,0.1-0.1,0.2-0.2,0.3c-0.2,0.1-0.3,0.1-0.5,0.1
			c-0.5,0.1-0.9,0.1-1.3,0.2c-0.1,0-0.2,0.1-0.3,0.1c-0.1,0.1-0.3,0.2-0.5,0.1c-0.1,0-0.1,0-0.1,0.1c-0.2,0.3-0.5,0.4-0.8,0.5
			c-0.1,0.1-0.1,0.1-0.1,0.2c0.1,0.1,0.2,0.1,0.3,0.2c0.1,0,0.1,0.1,0.1,0.1c0.1,0,0.1,0.1,0.1,0.1c0,0.1-0.1,0.1-0.1,0.1
			c-0.1,0-0.1,0-0.2,0C72.5,542.6,72.5,542.6,72.4,542.6L72.4,542.6z"/>
		<path fill="#1A4922" d="M20.4,540.8c-0.3-0.2-0.5-0.1-0.7,0c-0.1,0.1-0.3,0.1-0.4,0.1c-0.1,0-0.3,0-0.5,0c-0.1,0-0.1,0-0.2-0.1
			c0-0.1,0.1-0.1,0.1-0.1c0.1-0.1,0.3-0.1,0.5-0.1c0.5-0.2,0.9-0.2,1.5-0.3c0.1,0,0.1,0.1,0.2,0.1c0.1,0.1,0.1,0.2,0.3,0.1h0.1
			c0.3,0.1,0.6,0.1,0.8,0.2c0.2,0.1,0.3,0.1,0.5,0.1c0.1,0,0.3-0.1,0.3-0.2c0-0.1,0-0.1,0.1-0.1s0.1,0.1,0.1,0.1
			c0.1,0.2,0.2,0.2,0.4,0.2c0.1,0,0.3,0,0.4,0c0.1,0,0.1,0,0.2,0.1S24,540.9,24,541c-0.1,0.1-0.3,0.1-0.5,0.1
			c-0.3-0.1-0.6,0-0.9,0.1c-0.2,0.1-0.5,0.1-0.7,0.1c-0.2,0-0.4,0-0.5-0.1l-0.1-0.1c-0.2,0.1-0.4-0.1-0.7-0.1c-0.1,0-0.1,0-0.2-0.1
			C20.2,540.8,20.4,540.8,20.4,540.8C20.4,540.8,20.4,540.8,20.4,540.8z"/>
		<path fill="#1A4922" d="M48.9,544.6c-0.3,0.1-0.6,0-0.6-0.3c0.1-0.1,0.2-0.1,0.3-0.3c0.1-0.1,0.2-0.1,0.3-0.1c0.1,0,0.1,0,0.1,0.1
			c0.1,0.1,0.3,0.1,0.4,0.2c0.1-0.1,0.3-0.1,0.3-0.1c0.1,0,0.3-0.1,0.4,0c0.2,0.1,0.3,0,0.3-0.1c0.1-0.1,0.3-0.1,0.4,0
			c0.1,0,0.1,0.1,0.2,0c0.2-0.1,0.3,0.1,0.4,0.3c0.1,0.1,0.1,0.3-0.1,0.3c-0.2,0.1-0.4,0.2-0.6,0.3c-0.2,0.1-0.4,0.1-0.6,0.2
			c-0.3,0.1-0.5,0-0.7-0.1c-0.1,0-0.3-0.1-0.5-0.1c-0.1,0-0.1,0-0.2-0.1C48.8,544.7,48.8,544.6,48.9,544.6z"/>
		<path fill="#1A4922" d="M106.6,580.9c-0.1-0.1-0.3-0.1-0.5-0.1c-0.1,0-0.1-0.1-0.3-0.1c-0.2-0.1-0.3-0.1-0.1-0.3
			c0.1-0.2,0.4-0.3,0.6-0.5c0.2-0.1,0.4-0.2,0.5-0.3c0.1,0,0.1-0.1,0.1-0.1c0.1-0.3,0.3-0.4,0.5-0.6c0.1-0.1,0.1-0.1,0.3,0
			c0.1,0.1,0.2,0.2,0.3,0.3c0.1,0.1,0.1,0.1,0.1,0.2c-0.1,0.2-0.3,0.3-0.5,0.5c-0.1,0.1-0.3,0.3-0.5,0.3c-0.1,0.1-0.1,0.1-0.1,0.2
			c0.1,0.2,0,0.3-0.2,0.3C106.8,580.7,106.7,580.9,106.6,580.9z"/>
		<path fill="#1A4922" d="M32.8,559.1c-0.1,0-0.2,0-0.3,0c-0.1,0-0.2,0-0.1-0.1c0-0.1,0-0.1-0.1-0.1c-0.1,0-0.1-0.1-0.2-0.1
			c-0.1-0.1-0.1-0.1-0.1-0.1c-0.2,0-0.3-0.1-0.5-0.2c-0.3-0.2-0.5-0.3-0.8-0.1c-0.1,0.1-0.2,0.1-0.3,0.1c-0.1,0-0.1,0-0.1-0.1
			c0-0.1,0-0.1,0-0.1c0.1-0.1,0.2-0.3,0.3-0.3c0.3-0.1,0.6-0.2,0.9-0.1c0.1,0.1,0.3,0.1,0.4,0.1c0.3,0.1,0.5,0.1,0.7,0.4
			c0.1,0.1,0.1,0.1,0.3,0.1c0.2,0.1,0.4,0.1,0.5,0.3c0.1,0.1,0.1,0.2,0,0.3C33.1,559.2,33,559.1,32.8,559.1z"/>
		<path fill="#1A4922" d="M85.7,540c-0.5,0.1-0.9-0.1-1.3-0.1c-0.1,0-0.2-0.1-0.3-0.1c-0.1-0.1-0.1-0.2-0.3-0.2
			c-0.1,0-0.2-0.1-0.2-0.3s0.1-0.2,0.2-0.2c0.4-0.1,0.8-0.1,1.3,0.1c0.1,0.1,0.2,0.1,0.2,0.2c0,0.1,0.1,0.1,0.1,0.1
			C85.5,539.5,85.7,539.7,85.7,540L85.7,540z"/>
		<path fill="#1A4922" d="M108.3,579c0-0.2-0.1-0.3-0.2-0.3c-0.3-0.1-0.3-0.2-0.1-0.4c0.1-0.1,0.1-0.2,0.1-0.3
			c0.1-0.3,0.2-0.3,0.5-0.2c0.2,0.1,0.4,0.3,0.7,0.1c0.1-0.1,0.1,0.1,0.1,0.1c0,0.2-0.1,0.4-0.2,0.5c-0.2,0.1-0.3,0.3-0.4,0.5
			c-0.1,0.1-0.1,0.1-0.2,0.2C108.3,579.2,108.3,579.2,108.3,579z"/>
		<path fill="#1A4922" d="M52.9,547.8c0.1,0.1,0.3-0.1,0.3-0.1c0.2-0.1,0.3-0.1,0.4,0c0.2,0.2,0.3,0.4,0.2,0.7
			c-0.1,0.1-0.1,0.2-0.3,0.2c-0.2,0-0.3,0.1-0.5,0.1c-0.3,0.1-0.5,0.1-0.6-0.1c-0.1-0.1-0.1-0.1,0-0.2c0.1-0.1,0.1-0.2,0-0.3
			c-0.1-0.1-0.1-0.2,0-0.3C52.7,547.8,52.8,547.8,52.9,547.8z"/>
		<path fill="#1A4922" d="M98.4,541.3c-0.2,0-0.4,0-0.6,0.1c-0.3,0.1-0.5,0.1-0.7-0.1c-0.2-0.1-0.2-0.2-0.1-0.3
			c0.1-0.2,0.4-0.2,0.6-0.1c0.1,0,0.2,0.1,0.3,0.1c0.1,0,0.1,0.1,0.1,0c0.5-0.1,0.9,0,1.3,0.1c0.1,0,0.1,0,0.1,0.1
			c0,0.1-0.1,0.1-0.1,0.1C99,541.3,98.7,541.3,98.4,541.3z"/>
		<path fill="#1A4922" d="M33.9,558.9c0.2,0.1,0.4,0,0.6,0.1c0.3,0.1,0.5,0.1,0.7,0.3c0.1,0.1,0.1,0.1,0.1,0.2s-0.1,0.1-0.3,0.1
			c-0.2-0.1-0.3,0-0.5,0c-0.1,0.1-0.3,0.1-0.5,0s-0.4,0-0.5-0.1c-0.1,0-0.1,0-0.1-0.1s0.1-0.1,0.1-0.1c0.1,0,0.2-0.1,0.2-0.3
			C33.5,559.1,33.7,558.9,33.9,558.9z"/>
		<path fill="#1A4922" d="M100.4,579.2L100.4,579.2c0,0.5-0.2,0.6-0.6,0.5c-0.3-0.1-0.5-0.1-0.5-0.5c0-0.1-0.1-0.2-0.1-0.3
			c0-0.2,0.1-0.3,0.3-0.2c0.1,0.1,0.3,0.1,0.5,0.1c0.1,0,0.2,0,0.3,0C100.3,578.9,100.4,578.9,100.4,579.2L100.4,579.2L100.4,579.2z
			"/>
		<path fill="#1A4922" d="M26.5,540.9c0,0.2,0,0.2-0.2,0.3c-0.2,0-0.3,0.1-0.5,0c-0.1,0-0.1,0-0.1-0.1c-0.1-0.1-0.3-0.1-0.5-0.1
			c-0.1,0-0.2,0-0.2-0.1c0-0.1,0.1-0.1,0.1-0.2c0.2-0.2,0.5-0.3,0.7-0.2c0.1,0,0.3,0,0.4,0C26.4,540.5,26.5,540.6,26.5,540.9z"/>
		<path fill="#1A4922" d="M25.6,540.2c-0.1,0-0.1,0-0.2-0.1c-0.3-0.1-0.6-0.1-0.9-0.1c-0.1,0-0.1,0-0.1,0c-0.1,0-0.2,0-0.3-0.1
			c-0.1-0.1,0.1-0.1,0.1-0.3c0.1-0.1,0.3-0.2,0.5-0.1c0.1,0.1,0.1,0.1,0.2,0.1c0.3-0.1,0.5,0.1,0.7,0.1h0.1c0.1,0.1,0.2,0.2,0.2,0.3
			C25.9,540.2,25.8,540.2,25.6,540.2z"/>
		<path fill="#1A4922" d="M91.8,557.9c0-0.2,0.1-0.4,0.3-0.6c0.1-0.1,0.2-0.1,0.3,0c0.1,0.1,0.1,0.1,0.1,0.3
			c-0.1,0.2-0.1,0.4-0.2,0.6c-0.1,0.1-0.1,0.3-0.3,0.2c-0.1,0-0.2-0.1-0.2-0.3C91.8,558.1,91.8,558,91.8,557.9z"/>
		<path fill="#1A4922" d="M88.3,559.3c0-0.1,0.1-0.3,0.2-0.3c0.1-0.1,0.3-0.1,0.5-0.1c0.1,0,0.1,0.1,0.1,0.1c0,0.3-0.2,0.5-0.4,0.5
			C88.5,559.7,88.3,559.6,88.3,559.3z"/>
		<path fill="#1A4922" d="M100.5,541.3c-0.3,0-0.5-0.1-0.7-0.1c-0.1,0-0.2-0.1-0.1-0.2c0-0.1,0.1-0.1,0.2-0.1c0.3,0.1,0.7,0,1.1,0.1
			c0.1,0,0.2,0,0.2,0.1c0,0.1-0.1,0.1-0.2,0.2C100.8,541.3,100.7,541.3,100.5,541.3z"/>
		<path fill="#1A4922" d="M110.1,542.1c0.1,0,0.3,0,0.4,0.1c0.1,0,0.1,0.1,0.1,0.1c0,0.1-0.1,0.1-0.1,0.1c-0.1,0-0.1,0-0.2,0
			c-0.2,0-0.5,0-0.7,0c-0.1,0-0.1,0-0.1-0.1c0-0.1,0-0.1,0-0.1C109.6,542.2,109.8,542.1,110.1,542.1z"/>
		<path fill="#1A4922" d="M26.3,539.8c0.3,0.1,0.5,0.1,0.8,0.1c0.1,0,0.1,0.1,0.1,0.1c0,0.1,0,0.1-0.1,0.1c-0.2,0.1-0.4,0.1-0.6,0.1
			c-0.1,0-0.2-0.1-0.3-0.3c-0.1-0.1-0.1-0.1-0.1-0.1C26.3,539.8,26.3,539.7,26.3,539.8z"/>
		<path fill="#1A4922" d="M22.4,539.8c0.1,0,0.3,0.1,0.4,0.1c0.1,0.1,0.1,0.1,0.1,0.1s-0.1,0.1-0.1,0.1c-0.3-0.1-0.5-0.1-0.8-0.1
			c-0.1,0-0.1,0-0.1-0.1c0-0.1,0.1-0.1,0.1-0.1C22,539.9,22.2,539.8,22.4,539.8z"/>
		<path fill="#1A4922" d="M103,568.1c-0.1-0.1-0.1-0.1-0.3-0.3c-0.1-0.1-0.1-0.1,0-0.1c0-0.1,0.1-0.1,0.1,0c0.3,0.2,0.5,0.3,0.8,0.4
			c0.1,0.1,0.1,0.2,0.1,0.4C103.6,568.2,103.2,568.1,103,568.1L103,568.1z"/>
		<path fill="#1A4922" d="M103,568.1c0.1,0.1,0.2,0.1,0.3,0.2c0.1,0.1,0.1,0.1,0.1,0.1s-0.1,0.1-0.1,0.1c-0.2,0-0.3-0.1-0.5-0.3
			c-0.1-0.1-0.1-0.1,0-0.2c0.1-0.1,0.1-0.1,0.2-0.1C102.9,567.9,102.9,567.9,103,568.1L103,568.1z"/>
		<path fill="#1A4922" d="M35.7,559.5c0.1,0,0.1,0.1,0.3,0.1c0.1,0,0.1,0.1,0.1,0.1c0,0.1-0.1,0.1-0.1,0.1c-0.1,0.1-0.3,0.1-0.4-0.1
			c-0.1-0.1-0.1-0.1-0.1-0.1C35.4,559.5,35.5,559.5,35.7,559.5z"/>
		<path fill="#1A4922" d="M102.5,567.7c-0.1,0-0.4-0.3-0.4-0.5c0-0.1,0.1-0.1,0.1-0.1c0.1,0.1,0.3,0.2,0.3,0.3
			C102.6,567.6,102.6,567.6,102.5,567.7z"/>
		<path fill="#1A4922" d="M104,568.5c0-0.1,0-0.1,0.1-0.1s0.1,0.1,0.1,0.1c0.1,0.1,0.1,0.3,0.3,0.3l0.1,0.1c0,0.1-0.1,0.1-0.1,0.1
			C104.2,568.7,104.1,568.7,104,568.5L104,568.5z"/>
		<path fill="#1A4922" d="M87.6,540.2c0-0.1-0.1-0.1,0-0.1c0.1-0.1,0.3-0.1,0.5,0l0.1,0.1c0,0.1,0,0.1-0.1,0.1
			C87.9,540.2,87.8,540.2,87.6,540.2L87.6,540.2z"/>
		<path fill="#1A4922" d="M78.3,541.7c0.1-0.2,0.4-0.1,0.5,0c0,0.1,0,0.1-0.1,0.1c-0.1,0-0.1,0-0.1,0
			C78.5,541.7,78.4,541.7,78.3,541.7L78.3,541.7z"/>
		<path fill="#1A4922" d="M104,568.5c-0.1,0.3-0.2,0.3-0.5,0C103.6,568.5,103.8,568.5,104,568.5L104,568.5z"/>
		<path fill="#1A4922" d="M100.2,566.3c-0.1,0-0.3,0-0.3,0s-0.1,0-0.1-0.1c0-0.1,0-0.1,0.1-0.1C99.9,566.1,100,566.1,100.2,566.3z"
			/>
		<path fill="#1A4922" d="M58.6,551.8c-0.1,0.2-0.1,0.4,0.1,0.6c0.1,0.2,0,0.5-0.2,0.6c-0.2,0.1-0.3,0-0.3-0.2c0-0.1,0-0.2-0.1-0.3
			c-0.1-0.1,0-0.2,0.1-0.3c0.1-0.1,0.1-0.1,0.1-0.2c0-0.1,0-0.1,0-0.1s0-0.1,0-0.1c0-0.1,0.1-0.3,0.2-0.2
			C58.6,551.5,58.6,551.7,58.6,551.8z"/>
	</g>
	<line fill="none" stroke="#FFFFFF" stroke-width="5" stroke-miterlimit="10" x1="60.4" y1="559.3" x2="122" y2="543.2"/>
	<path fill="none" stroke="#FFFFFF" stroke-width="5" stroke-miterlimit="10" d="M61,559.1c-20.2-5.9-40.9-10.6-61-16.4"/>
	<line fill="none" stroke="#FFFFFF" stroke-width="2" stroke-miterlimit="10" x1="0.8" y1="543.5" x2="-0.7" y2="543.1"/>
	<line fill="none" stroke="#FFFFFF" stroke-width="5" stroke-miterlimit="10" x1="61.6" y1="559.1" x2="61.8" y2="594.7"/>
	<path fill="#FFFFFF" d="M102.6,583.4c0.1-0.3,0.3-0.4,0.7-0.5v-20.2l-11.9,3.2V586l0.7,0.2c0.3-0.3,0.7-0.5,1.1-0.5
		c0.1,0,0.3,0,0.4,0.1c0.3-0.3,0.7-0.5,1.3-0.5c1.5,0.1,2.5-0.2,4-0.8c0.7-0.3,1.3-0.5,1.9-0.7c0.3-0.1,0.7,0,0.9-0.1
		C102,583.5,102.2,583.4,102.6,583.4z"/>
	<polygon fill="none" stroke="#FFFFFF" stroke-width="4" stroke-miterlimit="10" points="122.7,542.8 122.8,577.6 61,595.2 
		-1,577.8 -1,543 60.8,525.5 	"/>
	<polygon fill="#1A4922" points="60.9,594.5 -0.6,577.3 -0.3,543.4 60.8,560.1 	"/>
</g>
</svg>
