<?xml version="1.0" encoding="utf-8"?>
<!-- Generator: Adobe Illustrator 18.1.1, SVG Export Plug-In . SVG Version: 6.00 Build 0)  -->
<!DOCTYPE svg PUBLIC "-//W3C//DTD SVG 1.1//EN" "http://www.w3.org/Graphics/SVG/1.1/DTD/svg11.dtd">
<svg version="1.1" id="Layer_1" xmlns="http://www.w3.org/2000/svg" xmlns:xlink="http://www.w3.org/1999/xlink" x="0px" y="0px"
	 viewBox="0 275 396 235" enable-background="new 0 275 396 235" xml:space="preserve">
<polygon fill="#1CBCBB" points="391.5,338.8 391.9,448.7 197.2,503.8 2.4,449.3 2.1,339.5 196.8,284.4 "/>
<g>
	<g>
		<path fill="none" stroke="#000000" stroke-miterlimit="10" d="M170.4,312.9"/>
	</g>
</g>
<g>
	<path fill="#1A4922" d="M23.2,343c0.4,0,1.1-0.1,1.6-0.4c0.6-0.1,1.2-0.4,2-0.4c0.4,0,0.7-0.1,1.2,0.1l0.1,0.1h0.1
		c0-0.1,0-0.1,0-0.1l-0.1-0.1c-1.1,0-2-1.1-3.3-1.1c-0.1,0-0.4-0.1-0.4-0.4s0.1-0.4,0.4-0.6c0.1-0.1,0.6-0.1,0.7-0.1
		c1.1,0,2-0.1,2.4-0.7c0-0.1,0.1-0.1,0.4-0.1c1.1,0,2-0.6,2.9-0.6c0.6,0,1.2-0.1,2-0.4c0.4-0.1,0.7-0.1,1.6,0
		c0.7,0.1,1.6,0.4,2.3,0.4c0.1,0,0.6,0,0.7,0c0.6,0.4,1.6,0.4,2.2,0.1c0.6,0,1.2,0,2,0.1c0.7,0.1,2,0.4,2.8,0.1
		c1.6-0.1,2.9,0.4,4.6,0.4c0.6,0,1.6,0,2.2,0.4c0.4,0.1,0.7,0.1,1.6,0.1c0.6-0.1,1.2-0.1,2,0h0.1c1.7-0.4,3.3-0.7,5-1.2
		c0.1,0,0.1-0.1,0.4-0.1c0.6-0.4,1.2-0.1,1.7,0.1c0.1,0.1,0.1,0.1,0.4,0.4c0.6,0.4,0.6,0.4,1.2,0c0.4-0.1,0.6-0.4,0.7,0
		c0.1,0.1,0.4,0.1,0.6,0.1c0.7-0.4,2-0.1,2.8,0c0.7,0.1,2,0.1,2.8,0.6c0.1,0,0.4,0,0.4-0.4c0-0.1,0.1-0.4,0-0.6
		c-0.1-0.2-0.4,0-0.6-0.1c-0.1,0-0.6-0.1-0.7-0.4c-0.1-0.1,0-0.6-0.4-0.7c-0.1,0-0.1-0.1,0-0.4c0.1-0.2,0.4-0.1,0.4-0.4
		c-0.6,0.1-1.2,0.1-1.6,0.7c0,0,0,0.1-0.1,0.1c-0.4,0.4-2.4,0.6-2.9,0.4c-0.6-0.4-1.2-0.6-2-0.6c-0.1,0-0.4,0-0.6-0.1
		c0-0.1,0.1-0.4,0.1-0.4c0.4-0.1,0.6-0.7,1.1-0.7c0.1-0.1,0.4-0.4,0-0.6c-0.1,0-0.1-0.1-0.1-0.4s0.1-0.1,0.4-0.1
		c1.2-0.1,2.8-0.1,4,0c0.4,0.1,1.1,0.1,1.6,0c0.6-0.1,1.6,0,2,0.1c0.4,0.1,0.4,0.4,0.6,0.7c0.1,0,0.4,0,0.6-0.1c0.1,0,0.6,0,0.6,0.1
		c0.1,0.4,0.4,0.4,0.6,0.1c0.6-0.4,1.2-0.1,2,0c0.7,0.1,1.6,0.1,2.3,0.1c0.1,0,0.4,0,0.6,0.1c0.1-0.1,0-0.4,0-0.6
		c0-0.4,0.1-0.6,0.6-0.6c0.4,0,0.6,0.1,1.1,0.1c0.4,0.1,0.7,0.1,1.2,0.7c0.4,0.6,0.7,0.7,1.2,1.6c0.1,0.1,0.4,0.4,0.6,0.4
		c0.4,0,0.7,0.1,1.2,0.1c0.6,0.1,0.7,0.6,0.1,1.1c-0.6,0.6-1.2,1.2-2.3,1.1c-0.1,0-0.1,0-0.4,0.1c2,0.6,4,0.4,6,0.4
		c0-0.4-0.1-0.4-0.4-0.4c-0.4,0-0.4,0-0.6,0s-0.4-0.1-0.4-0.4c0-0.1,0.1-0.1,0.4-0.4c0.7-0.4,1.6-0.7,2.3,0c0.1,0.1,0.4,0.1,0.7,0.1
		c0.4,0.1,0.4,0.1,0.1,0.7c-0.1,0.1-0.1,0.1,0,0.4c0.1-0.1,0.4-0.4,0.6-0.4c0.1,0,0.4-0.1,0.6-0.1c0.1,0,0.1-0.1,0.1-0.1
		c0-0.1-0.1-0.1-0.1-0.4c-0.4-0.1-0.7-0.4-1.2-0.4c-0.6-0.1-0.7-0.6-1.1-1.1c-0.1-0.7-0.1-0.7-1.1-0.6c-0.6,0.1-1.1,0.1-1.6-0.1
		c-0.6-0.4-1.2-0.6-2-0.6c-0.1,0-0.4-0.1-0.7-0.1s-0.4-0.1-0.1-0.6c0.1-0.1,0.1-0.4,0.6-0.4c0.1,0,0.4,0.1,0.6,0.1
		c0.4,0.1,0.7,0,0.7-0.4c0.1-0.6,0.6-0.6,1.1-0.6c0.1,0,0.6-0.1,1.1-0.1c0.7,0,1.7,0.1,1.6,1.6c0,0.4,0.1,0.6,0.1,1.1
		c0,0.5,0.4,0.1,0.6,0.1c0.1,0,0.1-0.1,0.1-0.4c-0.4-0.6-0.1-1.2,0-1.7c0.1-0.1,0.4-0.4,0.7-0.6h0.1c1.1,0,2.3,0,3.4,0.1
		c0.1,0,0.4,0,0.6,0.1c0,0.1-0.1,0.4-0.4,0.6c-0.4,0.1-0.6,0.4-1.1,0.6c-0.4,0.1-1.1,0.1-1.6,0.1c-0.1,0-0.4,0-0.4,0.1
		c0,0.1,0.1,0.1,0.1,0.4c0.4,0.4,0.7,0.7,0.7,1.7c0,0.1,0.1,0.4,0.4,0.6c0.4,0.1,0.7,0,1.2,0s0.7,0.1,0.7,0.6c0.1,0,0.4-0.1,0.6-0.1
		c0.1-0.1,0.4-0.1,0.7,0c0.4,0.4,0.7,0.6,1.1,1.1c0.1,0.4,0.4,0.4,0.6,0c0.1-0.4,0.6-0.7,0.6-1.2c0-0.5-0.1-0.6-0.6-0.6
		c-0.4,0-0.6,0-1.1,0c-0.7,0-2-0.6-2.2-1.6c0-0.1-0.1-0.4,0-0.4c0.4-0.6,0.6-1.7,1.7-2c0.1,0,0.6-0.1,0.7-0.1
		c-0.7,0-1.6-0.4-2.3-0.1c-0.6,0.1-1.1-0.1-1.7-0.1c-0.1,0-0.4-0.1-0.6-0.6c-0.4-0.7-0.7-1.1-2-1.1c-0.7,0.1-1.7-0.1-2.4-0.4
		c-0.1,0-0.1-0.1-0.1-0.1c0-0.1,0.1-0.1,0.4-0.4c1.1-0.1,2-0.1,2.9,0c0.1,0,0.6,0.1,0.7,0.1c0.6,0,1.2,0,2,0.1
		c0.7,0.1,1.2-0.1,1.7-0.6c0.1-0.1,0.1-0.4-0.1-0.6c-0.1,0-0.4,0-0.6,0c-1.6,0.1-2.9-0.1-4.3-0.7c-0.1-0.1-0.6-0.1-0.7-0.1
		s-0.4-0.1-0.4-0.4s0.1-0.1,0.1-0.1c0.1,0,0.4-0.1,0.4-0.1c0.1,0,0.4-0.1,0.1-0.4c0-0.1-0.1-0.6,0.1-0.7c0.4-0.1,0.7-0.4,1.2-0.4
		c0.6,0,1.1,0.1,1.6,0.4c0.4,0.1,1.1,0.4,1.7,0.4c0-0.1,0-0.1,0-0.4c-0.1-0.6,0-0.6,0.4-0.7c0.6-0.1,1.2-0.4,2-0.1
		c0.6,0.4,1.2,0.1,2-0.1c0.1-0.1,0.4,0,0.7,0c0.4,0.1,0.7,0.1,1.6-0.1c0.4-0.1,0.7-0.1,1.6-0.4c0.7,0,1.6,0,2.3,0
		c1.1,0,2.2-0.1,2.9-0.1c0.4,0,0.7,0,1.2,0.1c0.1,0,0.6,0,0.7,0c0.1-0.1,0.6-0.1,0.7,0c1.6,0.1,3.3,0,4.6,0c1.1,0,2.3,0,3.4,0.1
		c0.6,0,1.2,0.1,2,0.4c0.1,0,0.4,0,0.4,0.4c0,0.1-0.1,0.1-0.4,0.4c-0.6,0.1-1.2,0.1-1.7,0.1c-0.1,0-0.4,0-0.6,0.1
		c0.7-0.1,1.6-0.1,2.3,0c0.1,0,0.4,0,0.4-0.1c0.6-0.6,1.7-0.6,2.4-0.7c0.7,0,1.7-0.1,2.4-0.1c0.6,0,1.6,0,2,0.6
		c0.1-0.6,0.6-0.6,1.2-0.4c0.1,0.1,0.6,0.1,0.7,0c0.6-0.4,1.6-0.4,2.2-0.1c0.6,0.1,1.6,0,2.2-0.1c1.1-0.4,2.2-0.4,3.4-0.4
		c0.1,0,0.6,0,0.7,0.1c0.7,0.1,2,0.1,2.8,0c1.6-0.4,2.9-0.7,4.6-0.6c1.2,0,2.8,0,4,0c1.2,0,2.3,0.1,3.7,0.1c0.1,0,0.4,0,0.6,0.1
		c0.6,0.4,1.6,0.4,2.2,0.4s1.1,0,1.7,0.1c0.1,0,0.1,0.1,0,0.4c-0.1,0-0.1,0.1-0.4,0.1c-0.1,0-0.1,0.1-0.1,0.1c0,0.1,0.1,0.1,0.4,0.1
		c0.7-0.1,1.7-0.1,2.8,0c0.1,0,0.1,0,0.4,0c1.2-0.4,2.4-0.4,3.9-0.1c0.4,0,0.6,0,1.1,0c0.1,0,0.4,0,0.6,0.1c0.1,0,0.1,0.1,0.1,0.1
		c0,0.1-0.1,0.1-0.1,0.1c-0.6,0.1-1.2,0.4-2,0.6c-0.7,0.1-1.7,0.4-2.3,0.7c-1.1,0.4-2.2,1.1-3.4,1.2c-0.1,0-0.1,0-0.4,0.1
		c0.4,0,0.6,0.1,1.1,0.1c0.6,0,1.1,0.4,1.6,0.7c0.4,0.4,0.1,0.6-0.1,0.7c-0.1,0-0.4,0-0.7,0c-0.7-0.1-0.7-0.1-1.7,0
		c0.1,0.1,0.4,0,0.6,0.1c0.1,0,0.4,0,0.6,0.1c0.4,0.1,0.6,0.4,0.6,0.7c0,0.4-0.1,0.6-0.6,0.6c-0.6,0-0.7,0.1-1.2,0.6
		c-0.1,0.1-0.1,0.4-0.1,0.6c0.1,0.1,0,0.4-0.1,0.4c-0.4,0.1-0.7,0.1-1.2,0.1c-0.6,0-1.2,0-2,0c-0.1,0-0.4,0-0.4,0.1
		c0.1,0.4,0.4,0.1,0.7,0.1c0.7,0,1.7,0.1,2.3,0.6c0.4,0.1,0.6,0.6,0.6,1.1c0.1,0.4-0.1,0.6-0.4,0.7c-0.6,0.6-1.6,0.7-2.2,1.1
		c-0.6,0.1-1.6,0.6-2.2,0.7c-1.6,0.1-2.9,0.6-4.5,0.6c-0.6,0-1.2,0.1-1.7,0.6c-0.6,0.7-1.7,1.1-2.8,1.2c-1.2,0.1-2.4,0.4-3.9,0.6
		c0,0.4,0,0.7,0,1.1c-0.1,0.6-0.4,1.1-1.2,1.1c-0.1,0-0.1,0-0.4,0c-0.6,0.1-0.6,0.4-0.1,0.7c0.1,0.4,0.1,0.6,0,0.7
		c-0.1,0.1-0.1,0.4-0.4,0.7c-0.1,0.6-0.6,0.7-1.1,0.7c-0.6,0-1.6,0.1-1.7-0.6c0-0.1-0.1-0.1-0.4-0.1c-0.4,0.1-0.6,0-1.1,0
		c-0.6,0-1.1-0.1-1.6-0.6c-0.1-0.1-0.4-0.4-0.6-0.4c-0.7-0.1-1.1-1.1-1.6-2c-0.1-0.1,0.1-0.4,0.1-0.6c0-0.1,0-0.4-0.1-0.4
		s-0.1,0-0.4,0.1l-0.1,0.1c-0.4,0.1-0.6,0.1-0.7-0.1c-0.1-0.4-0.4-0.7-0.7-1.2c-0.7-0.7-0.7-2,0-2.9c0.1-0.1,0.1-0.1,0.4-0.1
		c0.4,0,1.1-0.1,1.6-0.1c0.1,0,0.4-0.1,0.4-0.4s-0.1-0.1-0.4-0.1c-0.6-0.1-1.6-0.1-2.2-0.4c-0.4-0.1-0.7-0.1-0.7-0.6
		c0-0.1-0.1-0.4-0.4-0.4c-0.4,0-0.4,0-0.4-0.1c-0.4-0.1-0.4-0.4-0.1-0.7c0.6-0.6,0.6-0.6,0-1.2c-0.4-0.4-0.6-0.7-1.2-1.1
		c-0.7-0.4-1.6-1.1-2.4-1.2c-1.2-0.4-2.8-0.6-4-0.4c-1.2,0.2-2.3,0-3.7,0.1c-1.1,0.1-2-0.4-2.9-0.7c-0.4-0.1-0.1-0.4,0-0.6
		c-0.6-0.1-1.2-0.1-1.7-0.4c-0.1,0-0.4,0-0.4-0.4c0-0.1,0.1-0.4,0.4-0.4c0.1,0,0.4,0,0.6-0.1c1.1,0,2-0.1,2.9-0.4
		c0.6-0.1,1.6-0.1,2.2-0.1c0.4,0,0.7,0,1.2-0.4c-0.4,0-0.7,0-1.2,0c-0.5,0-0.7,0-1.1-0.4c-0.1-0.1-0.4-0.1-0.6-0.1
		c-0.6,0.1-1.1,0.1-1.7,0.1c-0.1,0-0.4,0-0.4,0.1c-0.1,0.4-0.7,0.4-1.2,0.4c-0.1,0-0.4,0-0.6,0c-0.7,0.1-1.7,0.1-2.4,0.1
		c-0.1,0-0.4,0-0.6,0v0.1c0.6,1.1,0.6,1.1-0.6,1.2c-0.4,0-0.7,0.4-1.2,0.6c0,0.1,0.4,0.4,0.1,0.6c-0.1,0.1-0.4,0.4-0.6,0.4
		c-1.1,0-1.6,0.4-1.2,1.6c0,0.1-0.1,0.4-0.4,0.4c-0.6,0-1.2,0.1-1.7,0c-1.2-0.1-2.3,0.1-3.7,0c0.7,0.4,0.7,0.4,0.7,1.1
		c0.1,0,0.4,0,0.6-0.1c0.7-0.6,1.7-0.6,2.4-0.6c1.2,0,2.4,0.1,3.7,0.1c0.6,0,1.1,0.1,1.2,0.7c0,0.1,0.1,0.1,0.6,0.4
		c0.4,0.1,0.7,0.1,1.2,0.6c0.4,0.1,1.1,1.1,1.7,0.1c0.1-0.1,0.4-0.1,0.6,0c0.1,0,0.4,0.1,0.1,0.6c0,0.1-0.1,0.1-0.1,0.1
		c0,0.1,0,0.1,0,0.4c0.1,0,0.1,0.1,0.4,0c0.1-0.1,0.4-0.1,0.7-0.4c0.7-0.1,1.7,0.1,1.7,1.2c0,0.4,0.1,0.6,0.6,0.7
		c1.1,0.4,2,0.6,2.9,0.6c0.7,0,1.6,0.7,2,1.2c0.1,0.1,0.1,0.1,0.1,0.4c0,0.4-0.1,1.1-0.4,1.6c-0.1,0.1-0.4,0.1-0.6,0
		c-0.1-0.1-0.1-0.1-0.1-0.4c-0.1-0.4-0.6-0.6-1.1-0.4c-0.4,0.1-0.7,0-1.1-0.1c-0.4-0.4-0.4-0.1-1.1-0.1c0.4,0.6,1.1,1.1,2,1.2
		c0.7,0.1,1.2,1.2,1.1,2c0,0.1-0.1,0.1-0.4,0.4c-0.1,0-0.4,0.1-0.4,0.4c-0.4,0.6-0.7,0.7-1.7,0.4c-0.6-0.1-1.6-0.1-2.2-0.6
		c-0.1,0-0.4-0.1-0.4,0c-1.1,0.4-1.7-0.4-2.3-0.7c-0.4-0.4-0.7-0.6-1.6-0.6s-1.6-0.1-2.2,0c-0.4,0.1-1.1,0-1.6-0.1
		c-0.1,0-0.4-0.1-0.4-0.6c0.1-0.7,0.4-1.1,1.2-0.7c0.4,0,0.7,0,1.2,0c0.1,0,0.4,0,0.6-0.1c0.1-0.6,0.7-0.7,1.6-1.1
		c0.1-0.1,0.4-0.1,0.4-0.4c0-0.1-0.1-0.1-0.6-0.1c-0.1,0-0.6,0-0.7,0c-0.4,0-0.7-0.1-0.7-0.6c0-0.1-0.1-0.4-0.6-0.1
		c-0.7,0.1-1.1-0.1-1.6-0.6c-0.1-0.1-0.1-0.4-0.1-0.6c-0.1-0.4-0.6-0.4-1.1-0.1c-0.1,0.1-0.6,0.1-1.1,0.1s-0.7-0.1-1.6,0
		c0,0.4,0.6,0.6,0.4,1.2c0,0.1-0.1,0.1-0.4,0.1c0,0.1,0,0.1,0,0.1c0.6,0.6,0.6,0.7-0.1,1.6c-0.6,0.1-1.2,0.6-1.6,1.2
		c0.1,0.1,0.7,0.4,1.2,0.6c0.6,0.1,0.7,0.6,1.2,1.2c0.1,0.4,0,0.6-0.4,0.6c-0.1,0-0.6,0-1.1-0.1c-0.6-0.1-1.2-0.1-2,0.1
		c-0.4,0.1-0.7,0.4-1.1,0c-0.1-0.1-0.6-0.1-0.7-0.1c-0.4,0-0.6-0.1-0.1-0.6c0.1-0.1,0.4-0.4,0.4-0.7s0.1-1.1,0.6-1.6
		c-0.6,0-0.7,0.1-0.7,0.6c-0.1,1.1-0.7,2-2,2c-0.6,0-1.1,0.1-1.2,0.6c-0.1,0.4-0.4,0.4-0.7,0.4c-1.2,0.1-2,1.1-2.8,2
		c-0.1,0.1-0.4,0.4-0.4,0.7c0,0.7,0,0.7,0.7,0.7c0.4,0,0.7,0.1,1.1,0.6c0,0.1,0.1,0.4,0.4,0.6c0.1,0.4,0.4,0.4,0.7,0.4
		c1.1,0,2.2,0.1,3.3,0.7c0.1,0.1,0.4,0.1,0.7,0.4c1.2,0.4,2.8,0.7,4,0.7c0.7,0,0.7,0.1,0.7,1.1c0,0.4,0,0.7,0,1.2s0.1,0.7,0.7,0.7
		c0.1,0,0.4,0.1,0.6,0.1c0.6,0.4,0.6,0.4,1.2,0c0.1-0.1,0.4-0.4,0.1-0.6c-0.1-0.6-0.1-1.2-0.6-1.7c-0.1-0.1-0.1-0.6,0.4-0.6
		c0.6-0.1,1.1-0.4,1.7-0.6c0.7-0.4,0.7-1.6,0.1-2.2c-0.1-0.1-0.6-0.1-0.7-0.4c-0.4-0.1-0.6-0.6-0.1-1.1c0.1-0.1,0.1-0.1,0.4-0.4
		c0.4-0.4,0.4-0.6-0.1-0.7c-0.4-0.1-0.1-0.4,0-0.4c0.4-0.1,0.6-0.6,0.1-1.1c-0.1-0.4,0-0.6,0.4-0.6c0.6,0,1.2,0,2,0.1
		c0.4,0.1,0.7,0.1,1.2,0c0.5-0.1,0.7,0,1.2,0.1c0.1,0,0.1,0.1,0.4,0.1c0.6,0.4,1.2,0.7,2.3,0.7c0.6,0,0.7,0.1,0.6,1.1
		c-0.1,0.4,0,0.6,0.4,0.7c0.1,0.1,0.4,0.1,0.6,0.4c0.4,0.1,0.7,0.4,1.2,0c0.1-0.1,0.4-0.1,0.6-0.1c0.4-0.1,0.7-0.4,1.1-1.1
		c0.1-0.7,0.6-0.7,1.1-0.1c0.7,0.7,1.7,1.7,2.3,2.8c0.1,0.1,0.4,0.6,0.4,1.1c0,0.1,0.1,0.6,0.1,0.7c0.1,0.4,0.6,0,0.7,0.1
		c0.1,0,0.4,0,0.6,0.1c0.1,0.1,0.6,0.1,0.7,0.1s0.6,0.1,0.7,0.4c0.1,0.4,0.6,0.6,0.7,0.7c1.1,0.6,1.1,1.2,0.1,2.2
		c-0.4,0.4-0.7,0.6-1.6,0.6c-0.4,0-0.7,0.1-1.1,0.4c-0.7,0.7-2,0.7-2.9,0.7c-1.2-0.1-2.3-0.1-3.7,0c-0.4,0-0.6,0.1-0.6,0.6
		c0.1,0.1,0.1,0,0.4,0c0.7-0.1,1.6,0.1,2,0.6c0.1,0.1,0.1,0.4,0,0.4c-0.4,0.1-0.4,0.7-0.4,1.2c0.1,1.2-0.4,2-1.6,2.2h-0.1
		c-0.7,0.7-2.2,0.7-2.9,1.6c-0.4,0.4-0.7,0.6-0.7,1.6c0,1.1-1.1,1.2-1.7,1.6c-0.1,0.1-0.4,0.1-0.6,0.1c-0.1,0-0.1,0-0.4,0.1
		c-0.4,1.1-1.2,2-1.7,2.9c-0.1,0.1,0,0.4,0,0.7c0.4,1.2,0.1,1.7-1.1,2.2c-0.6,0.1-1.6,0.6-2,1.2c-0.4,0.4-0.7,0.7-1.2,1.1
		c-0.7,0.6-1.1,1.6-0.6,2.3c0.4,0.7,0.6,1.7,0.7,2.4c0.1,0.6,0.1,1.2,0,2c-0.1,0.4-0.1,0.6-0.6,0.6c-0.4,0-0.4-0.1-0.6-0.4
		c-0.1-0.1-0.4-0.4-0.6-0.7c-0.6-0.6-1.1-1.6-0.7-2.4c0-0.4-0.1-0.6-0.6-1.1c-0.1-0.1-0.6-0.4-0.7,0c-0.1,0.1-0.6,0.1-0.7,0
		c-0.4-0.4-0.7-0.4-1.6-0.4c-0.4,0-0.6,0-1.1,0c-0.6,0-0.6,0-0.7,0.6c0,0.4-0.1,0.4-0.6,0.4c-1.1,0-2-0.1-2.9-0.6
		c-0.6-0.1-1.2,0-1.7,0.4c-0.4,0.1-0.7,0.6-1.2,0.7c-0.6,0.1-0.7,0.7-0.7,1.6c0,0.7,0,1.2-0.1,2c-0.4,1.7-0.4,3.3,0.6,4.6
		c0.4,0.6,0.7,1.2,1.6,1.6c0.1,0,0.1,0.1,0.1,0.1c1.1-0.1,2.2,0,2.9-0.7c0.4-0.1,0.4-0.7,0.4-1.1c0.1-0.7,0.6-1.1,1.6-1.2
		c0.6-0.1,1.2-0.1,2-0.1c0.6,0,0.7,0.6,0.6,1.1c-0.1,0.6-0.4,1.1-0.6,1.7c-0.1,0.7-0.4,2-0.7,2.9c1.1-0.1,2-0.1,2.9,0
		c0.6,0,1.1,0.1,1.7,0.6c0.1,0.1,0.4,0.4,0.4,0.7c-0.1,1.1-0.1,2.2-0.1,3.4c0,0.6,0.1,0.7,0.4,1.2c0.1,0.1,0.1,0.1,0.4,0.4
		c0.7,0.7,1.1,0.7,2,0.1c0.7-0.4,1.6-0.1,2.3,0.1c0.7,0.6,1.6,0.4,2-0.6v-0.1c0.1-0.7,0.7-1.6,2-1.6c0.4,0,0.7-0.1,1.2-0.4
		c0.1-0.1,0.4-0.1,0.6-0.1c0.4,0,0.6,0.1,0.4,0.7c0.4-0.1,0.7-0.1,1.1-0.1c0.7-0.1,1.6-0.1,2,0.6c0.1,0.4,0.6,0.1,0.7,0.1
		c0.6,0,1.1,0,1.6,0.1s0.7,0,1.2-0.1c0.7-0.4,0.7-0.4,1.6,0.1c0.1,0.1,0.6,0.6,1.1,0.6c0.1,0,0.4,0,0.4,0.1
		c-0.1,0.6,0.1,0.6,0.6,0.6c0.6,0.1,1.2,0.6,1.7,1.2c0.6,0.7,1.2,1.6,2.3,1.6c0.6,0,1.2,0.1,2,0.1c1.1,0,1.6,0.7,2.2,1.2
		c0.1,0.1,0.4,0.4,0.6,0.7c0,0.7,0.4,1.6,0.7,2c0.4,0.4,0.4,1.1-0.1,1.6c0.1,0.4,0.4,0.1,0.6,0.1c0.7,0.1,2,0.4,2.8,0.6
		c0.7,0.1,1.7,0.6,2.2,1.6c0,0.1,0.1,0.1,0.1,0.1c0.6-0.1,1.2,0.1,2,0.4c0.6,0,1.1,0.1,1.7,0.1s1.6,0.4,2,1.1
		c0.6,0.7,1.2,1.2,2.3,1.2c0.1,0,0.6,0.1,0.6,0.6c0.4,1.1,0.4,2,0.1,2.9c0,0.1-0.1,0.6-0.4,0.7c-0.7,1.1-2,2.2-2.4,3.4
		c0,0,0,0.1-0.1,0.1c-0.7,0.1-0.6,1.1-0.6,1.7c0,0.7,0,2-0.1,2.8c0,0.4-0.1,0.7-0.4,1.2c-0.1,0.1-0.1,0.1-0.1,0.4
		c0,0.7-0.1,1.2-0.6,2c-0.1,0.1-0.1,0.1-0.1,0.4c0,0.7-0.6,1.2-1.1,1.7c-0.4,0.1-0.6,0.4-1.1,0.4c-0.7,0-1.6,0.1-2.2,0.7
		c-0.1,0.1-0.1,0.1-0.4,0.1c-1.1,0-1.7,0.6-2.3,1.2c-0.4,0.1-0.4,0.7-0.1,1.2c0.1,1.1,0,2-0.7,2.4c-0.4,0.4-0.6,0.7-0.7,1.2
		c-0.1,0.7-0.7,1.2-1.6,1.7c-0.1,0.1-0.4,0.4-0.6,0.7c-0.4,0.7-1.1,1.6-2,2c-0.4,0.1-0.7,0.1-1.2,0.1c-0.4-0.1-0.7-0.1-1.6-0.1
		c0.1,0.6,0,1.2,0.6,1.7c0.1,0.1,0.1,0.4,0,0.7c-0.6,0.7-1.6,1.7-2.8,1.7c-0.1,0-0.4,0-0.6,0c-0.7,0-1.7,0.1-1.7,1.6
		c0,0.4-0.7,0.7-1.6,0.7c-0.1,0-0.4,0-0.6,0c-0.1,0-0.1,0-0.4,0.1c-0.1,0.1,0,0.4,0,0.4c0.1,0.1,0.4,0.1,0.7,0.4
		c0.1,0,0.1,0.1,0.1,0.1c0,0.1-0.1,0.1-0.1,0.1c-0.6,0.4-1.6,0.7-1.6,2c0,0.1-0.1,0.4-0.4,0.6c-0.1,0-0.4,0-0.6,0.1
		c-0.4,0-0.6,0.1-0.6,0.6c0,0.4,0.1,0.4,0.4,0.6c0.1,0.1,0.1,0.1,0.4,0.1c0.6,0.1,0.6,1.1,0.1,1.6c-0.1,0.1-0.4,0.1-0.6,0.1
		c-0.4,0.1-0.6,0.4-0.7,0.7c0,0.1-0.1,0.4-0.6,0.4c-0.4,0.1-0.7,1.1-0.6,1.6c0.1,0.4,0.4,0.7,0.4,1.2c0,0.4,0.4,0.7,0.7,0.7
		c0.6,0.1,1.1,0.6,1.7,0.6c0.1,0,0.4,0.1,0.4,0.4c0,0.1-0.1,0.4-0.4,0.4c-1.1,0.1-2.2,0.1-3.3,0c-0.6-0.1-1.1-0.6-1.6-1.2
		c-0.4-0.7-0.1-0.7-1.1-0.4c-0.4,0.1-0.6,0.1-1.1,0.1c-0.1,0-0.6-0.1-0.7-0.4c-0.1-0.1,0-0.4,0.1-0.6c0.1-0.1,0.1-0.4,0.4-0.6
		c0.1-0.4,0.4-0.6-0.1-0.7c-0.7-0.1-0.7-1.6-0.1-2c0.4-0.4,0.7-0.6,0.6-1.2c0-0.1,0.1-0.4,0.1-0.6c0.4-0.6,0.1-1.2,0.4-2
		c0-0.1-0.1-0.1-0.1-0.1c-0.1,0-0.1,0-0.1,0.1c-0.1,0.1-0.1,0.1-0.1,0.4c-0.4,0.4-0.7,0.4-1.1-0.1c-0.1-0.4-0.1-0.7-0.1-1.2
		c0-0.4,0-0.7,0.1-1.6c0-0.4,0-0.6,0-1.1c-0.1-0.4-0.1-1.1,0-1.6c0.1-0.6,0.4-1.1,0.1-1.7c-0.1-0.7,0-1.6,0.4-2.2
		c1.1-1.7,1.6-3.7,1.2-5.6c0-0.1,0-0.4,0-0.6c0-0.1,0.1-0.4,0.1-0.4c-0.1-0.7,0.1-1.6,0.4-2.2c0.4-1.2,0.6-2.8,0.4-4
		c0-0.1,0-0.4,0-0.6c0.6-1.2,0.1-2.8,0.1-4c0-0.4-0.1-0.6-0.4-0.7c-0.4-0.1-0.7-0.4-1.1-0.7c-0.1-0.1-0.4-0.4-0.7-0.4
		c-0.7-0.1-1.6-0.6-2.2-1.1c-0.6-0.4-1.2-1.1-1.2-2.2c0-0.4-0.1-0.7-0.6-1.1c-0.6-0.7-1.1-2-1.6-2.9c-0.6-1.2-1.1-2.3-2.2-3.3
		c-0.6-0.4-0.7-2-0.1-2.4c0.1-0.1,0.4-0.4,0.6-0.6c0.1-0.1,0.1-0.4-0.1-0.6c-0.6-0.4-0.4-1.1-0.1-1.6c0.1-0.6,0.6-1.1,0.6-2
		c0-0.1,0.1-0.1,0.4-0.4c0.1-0.1,0.4-0.1,0.6-0.6c0.1-0.4,0.4-1.1,1.1-1.2c0.1-0.1,0.4-0.6,0.4-0.7c-0.1-1.2-0.1-2.4-0.6-3.9
		c-0.1-0.4-0.4-0.7-0.7-0.7s-0.6,0.1-1.1,0.4c0,0-0.1,0.1-0.1,0.4c-0.1,0.1-0.1,0.4-0.6,0.1c-0.4-0.1-0.7-0.4-1.2-0.4
		c-0.6,0-1.2-0.1-1.6-0.7c-0.1-0.4-0.6-0.6-0.7-0.6c-0.6-0.1-0.7-0.4-0.7-1.1c0-0.4-0.4-0.7-0.6-1.1c-0.6-0.6-1.2-1.2-2.2-1.6
		c-0.6-0.1-1.2-0.4-2-0.6c-0.4-0.1-0.7-0.4-1.2-0.7c-0.4-0.4-0.7-0.6-1.1-1.1c-0.4-0.4-0.7-0.6-1.6-0.1c-1.1,0.6-2,0.4-2.9-0.1
		c-0.4-0.1-0.7-0.4-1.2-0.4c-0.5,0-0.7-0.1-1.1-0.4c-0.6-0.4-1.6-0.7-2.2-1.1c-0.6-0.1-1.6-0.7-2-1.6c-0.4-0.4-0.6-0.7-0.4-1.6
		c0.2-0.9,0-1.2-0.4-2c-0.6-0.6-1.2-1.6-2-2.2c-0.1-0.1-0.1-0.1-0.4-0.1c-0.4-0.1-0.7-0.6-0.7-1.2c0-0.1,0-0.4-0.1-0.4
		c-0.6-0.1-0.7-0.7-1.2-1.2c-0.7-0.7-1.7-1.7-2-2.9c0-0.1,0-0.1-0.1-0.4c-0.1-0.1-0.4-0.4-0.7-0.4c-0.4,0.1-0.1,0.4-0.1,0.7
		c0,0.1,0.1,0.6,0.6,0.7c0.1,0.1,0.6,0.4,0.7,0.7c0.4,0.7,0.7,1.7,1.6,2.3c0.4,0.4,0.4,1.1,0.7,1.7c0.4,0.4,0.4,1.1,0.7,1.6
		c0,0,0,0.1,0.1,0.1c0,0.1,0,0.4-0.1,0.6c-0.1,0.1-0.4,0-0.6-0.1c-0.4-0.6-1.1-1.1-1.7-1.6c-0.4-0.1-0.4-0.4-0.4-0.7
		c0.1-0.6-0.1-1.1-0.7-1.2c-0.4-0.1-0.7-0.4-1.2-0.6c-0.4-0.4-0.6-0.6-0.1-1.1c0.1-0.1,0.1-0.4,0-0.6l-0.1-0.1
		c-1.1-0.6-1.2-1.7-1.7-2.4c-0.4-1.2-1.1-2.2-2.3-2.3c-1.1-0.1-1.7-1.2-2.3-2.2c-0.1-0.4,0-1.1,0-1.6c-1.2,0-1.7-0.6-2-2
		c-0.1-0.7-0.1-1.6-0.4-2.2c-0.1-0.7-0.1-1.7,0-2.4c0.1-0.6,0-1.2,0.1-2c0.1-0.4-0.1-0.7-0.4-1.6c-0.1-0.6-0.4-1.1,0.1-1.6
		c-0.1-0.4-0.4-0.1-0.6-0.1c-0.7,0.1-2.2-0.1-2.3-0.7c-0.1-0.6-0.6-1.2-0.6-2c0-0.1-0.1-0.1-0.1-0.4c-0.1,0-0.4-0.1-0.7-0.1
		c-0.1,0-0.1-0.1-0.1-0.1c0.1-0.6,0-0.6-0.4-0.7c-0.1,0-0.4-0.1-0.6-0.6c-0.1-0.4-0.1-0.7-0.4-1.2c-0.1-0.4-0.4-0.7-0.7-0.7
		c-0.7-0.1-1.1-0.6-1.6-1.2c-0.1-0.4-0.7-0.6-1.2-0.7c-1.1-0.1-2-0.6-2.9-1.2c-0.6-0.4-1.1-0.6-2-0.1c-0.1,0.1-0.6,0-1.1,0
		c-0.7-0.1-1.6-0.1-2.3-0.1c-1.1,0-2.2-0.1-2.9-0.7c-0.7-0.4-1.2-0.4-2,0.1c-0.4,0.6-1.2,0.7-1.7,1.2c-0.1,0.1-0.4,0.1-0.6,0.1
		c-0.6,0-0.6,0-0.6-0.7v-0.1c-0.4,0-0.4,0.1-0.4,0.4c-0.4,0.7-1.1,1.6-2.2,2c-0.4,0.1-1.1,0.6-1.6,0.7c-0.7,0.4-2,1.1-2.9,1.2
		c-0.7,0.1-1.7,0.4-2.4,0.7c-0.6,0.1-1.6,0.1-2.2,0.6c-0.1,0-0.1,0-0.1-0.1v2.9c0.1-0.1,0.4-0.4,0.6-0.4c0.6-0.1,1.2-0.4,2-1.1l0,0
		c1.2,0,2-1.1,3.3-1.1c0.1,0,0.4-0.1,0.4-0.1c0.1-0.1,0.1-0.6,0-0.7c-0.1-0.1-0.4-0.1-0.6,0c-0.1,0-0.4,0.1-0.4,0.1
		c-0.7-0.6-1.7-0.1-2.4-0.1c-0.6,0-0.6-0.1-0.6-0.6c0-0.1,0.4-0.6,0.1-0.7c-0.4-0.1-0.6,0.1-0.7,0.1c-0.4,0.1-0.6,0-0.7-0.4
		c0-0.4-0.1-0.6-0.4-0.4c-0.7,0.1-1.1-0.6-1.7-0.7c-0.1,0-0.1-0.4,0-0.4c0.1-0.1,0.4-0.4,0.6-0.6c0.4-0.6,0.7-1.1,1.7-0.7
		c0.6,0,1.1-0.4,1.7-0.4c0.1,0,0.1-0.1,0.1-0.1c0-0.1-0.1-0.1-0.4-0.1c-1.2,0.4-2.4,0-3.7,0c-0.1,0-0.6,0-0.7-0.1
		C24.8,343.6,24.1,343.3,23.2,343C23.2,343.3,23.2,343,23.2,343z M96.5,362.9c0.6,0.1,1.1,0.1,1.6,0c0.1-0.1,0.6-0.4,0.7-0.6
		c0.1-0.1,0.6-0.1,1.1,0c0.5,0.1,0.7,0.1,1.2,0.1c0.1,0,0.6,0,0.7,0.1c0.4,0.1,0.4,0.6,0,0.7c-0.4,0.1-0.7,0.4-1.2,0.6
		c-0.6,0.4-0.7,1.1-0.6,1.7c0,0.1,0.1,0.4,0.4,0.1c0.1-0.1,0.4-0.4,0.6-0.7c0.1-0.6,0.6-0.7,0.7-1.2c0.1-0.1,0.4-0.1,0.7-0.1
		c0.1,0.1,0.6,0.1,0.7,0.6c0.1,0.4,0,0.6,0,1.1c0,0.1,0,0.4,0.4,0.6c0.4,0,0.4-0.1,0.4-0.4c0-0.6,0.1-1.2,0.4-2
		c0.1-0.1,0-0.4-0.1-0.4s-0.1,0-0.4,0c-1.1,0-2-0.4-2.3-1.7c-0.4-1.1-1.7-1.6-2.4-0.6C98.7,361.4,97.7,362.3,96.5,362.9z M104.2,368
		c0.4,0.1,0.6,0,1.1,0c1.6-0.1,2.4-1.6,4-1.7l0,0c0.1,0,0.1-0.1,0.1-0.4c0-0.1-0.1-0.1-0.4-0.1c-0.4,0-1.1,0-1.6,0.4
		c-0.1,0.4-0.6,0.6-1.1,0.6C105.9,366.9,105.2,367.3,104.2,368z M82.4,340.2C82.3,339.9,82.3,339.9,82.4,340.2c-1.1-0.1-2,0-2.9,0.4
		c-0.1,0.1-0.1,0.6,0.1,0.6c0.1,0,0.6,0.1,0.7-0.1c0.1-0.4,0.7-0.4,1.2-0.6C81.7,340.3,82,340.3,82.4,340.2z M77.4,340.5
		c-0.1,0-0.4,0-0.6,0c-0.7,0-1.6,0.1-2.2-0.6c0,0-0.1,0-0.4-0.1c-0.1,0-0.4,0-0.4,0.1c0,0.1,0,0.4,0.1,0.4
		C75.3,341,76.5,341.3,77.4,340.5z M98.5,332.6c0.7,0.4,2.9,0.4,4,0C101.3,332.6,99.7,332.6,98.5,332.6z M98.7,327.9
		c0.1,0.1,0.4,0.1,0.6,0.1c0.1-0.1,0.6,0,0.7,0.1c0,0.1,0.1,0.4,0.4,0.1c0.4-0.4,0-0.4,0-0.6c0-0.2-0.1-0.1-0.4-0.1
		C99.5,327.6,99.1,327.6,98.7,327.9z M156.4,338.3c0.4,0,0.7,0,1.2,0c0.4,0,0.7,0,1.6-0.1c0.1,0,0.1,0,0.1-0.1s-0.1-0.1-0.4-0.1
		h-0.1C158.1,338.2,157.2,338.3,156.4,338.3z M74,338.3c0.6-0.1,1.6,0.1,2.2,0C74.7,338.2,74.7,338.2,74,338.3z"/>
	<path fill="#1A4922" d="M253.8,335.6c0.1,0.4,0.1,0.7,0.4,1.1c0.1,0,0.6,0,0.7-0.1c0.1-0.1,0.4-0.1,0.6,0c0.4,0.1,0.7,0.1,1.1-0.4
		c0,0,0-0.1,0.1-0.1c0.1-0.1,0.1-0.4,0.6-0.1c0.1,0,0.1,0.1,0,0.6c0.1,0,0.6,0,1.1,0.1l0.1-0.1c0-1.1,0-1.1,1.1-1.2
		c0.6,0,1.6,0,2.2-0.1c0.4-0.1,0.6,0.1,1.1,0.1c0.1,0,0.6,0,0.4-0.4c-0.1-0.4,0.1-0.6,0.4-0.4c0.1,0,0.6,0,0.7-0.1l0.1-0.1
		c1.2-0.1,2.4-0.6,3.9-0.6c0.6,0,1.1-0.1,1.7-0.1c0.7-0.1,2-0.1,2.8,0c0.7,0.1,1.6,0.1,2.3-0.1c0.1-0.1,0.6-0.1,1.1-0.1
		c0.5,0,0.7-0.1,1.1-0.4c0.4-0.4,0.7-0.4,1.6-0.6c-0.6-0.1-1.1,0-1.6,0c-0.1,0-0.4,0-0.6,0.1c-0.1,0-0.6,0-0.7-0.1s0.1-0.4,0.4-0.6
		l0,0c0.1-0.1,0.4-0.4,0.7-0.4c0.4,0,0.6-0.1,0.7-0.1c0.1-0.1,0.6-0.4,0.7,0c0,0.1,0.1,0.1,0.4,0c0.7-0.1,1.6,0.1,2.2,0.4
		c0.1,0,0.1,0.1,0.1,0.4s-0.1,0.1-0.1,0.1c-0.6,0.1-1.2,0.1-1.7,0.1c0.7,0,1.7,0,2.4,0l0,0c0.1,0.1,0.4,0.1,0.6,0.1
		c0.4,0,0.7,0,1.2,0.4c0.1,0.1,0.4,0.1,0.6,0.1c0.2,0,0.6,0,0.7,0c1.2-0.1,2.2,0.4,3.3,0.7c0.1,0,0.1,0.1,0.4,0.1
		c0.6,0.6,0.6,0.7-0.1,1.1c-0.1,0.1-0.6,0.1-1.1,0.4c-0.1,0-0.4,0.1-0.4,0.4c0.6-0.1,0.6-0.1,1.6,0.1c0.4,0.1,0.7,0.1,1.2,0
		c1.1-0.1,2.2,0.1,3.4,0h0.1c1.2,0.7,2.4,0.4,3.9,0.4c0.4,0,0.6,0,1.1-0.4c0.4-0.4,0.7-0.4,1.6-0.1c0.4,0,0.6,0.1,1.1,0.1
		c0.1,0,0.4,0.1,0.7,0c0.6-0.1,1.2,0,1.7,0.4c0.1,0.1,0.1,0.4,0,0.4c-0.1,0.1-0.4,0.1-0.6,0.1c0,0.1,0.1,0.1,0.4,0.1
		c0.4,0,0.6,0.1,0.7,0.4c0.6,0.7,1.2,0.7,2,0.1c0.7-0.6,1.2-0.7,2-0.1c0.4,0.1,0.7,0.1,1.2,0c0.4-0.1,0.7-0.1,1.2-0.1
		c1.6,0.4,2.8-0.1,3.7-1.2c0,0,0.1,0,0.1-0.1c-0.1-0.1-0.1,0-0.4,0c-0.1,0-0.6,0.1-0.7-0.1c-0.1-0.1,0.1-0.4,0.1-0.6
		c0-0.6,0.1-0.6,0.6-0.4c0.4,0.1,0.7,0,1.2,0c0.6,0,1.6,0.1,1.6,0.6c0.1,0.7,0.7,0.6,1.2,0.6c1.6,0.1,2.8,0.1,4.3,0.4
		c0.1,0,0.4,0,0.4,0.1c0.6,0.6,1.6,0.6,2.2,1.1c0.1,0.1,0.6,0.1,1.1,0.1c1.2,0,2.4-0.1,3.9-0.1c0.7,0,1.7,0,2.3,0.6
		c0.1,0,0.1,0.1,0.1,0.1c0.1,0.6,0.7,0.7,1.6,0.6c1.2-0.1,2.4-0.1,4,0c0.1,0,0.6,0.1,0.7,0c0.4-0.1,0.7-0.1,1.2,0.1
		c0.1,0.1,0.1,0,0.4-0.1c0.1-0.1,0.1-0.1,0.4-0.1c0.1,0,0.4,0,0.4,0.4c-0.1,0.1-0.1,0.4,0.1,0.4c0.1,0,0.4,0,0.4-0.4v-0.1
		c0.1-0.7,0.1-0.7,1.1-0.7c0.7,0.1,2,0.1,2.9,0.1c2.4,0,5,0.6,7.3,1.6c0.4,0.1,0.7,0.1,1.6,0.4c0.6,0.1,1.1,0.4,1.6,1.1
		c0.1,0.1,0.4,0.4,0.7,0.1c0.7-0.4,2-0.1,2.8,0c0.4,0.1,0.6,0.4,1.1,0.6c0.1,0,0.1,0.1,0.1,0.4c0,0.1-0.1,0.4-0.4,0.4
		c-0.1,0-0.4,0-0.6,0c-0.1,0-0.6,0-0.7,0c-0.4,0-0.7,0.1-0.7,0.6c-0.1,0.7-0.4,0.7-1.2,0.6c-0.4-0.1-0.6-0.1-1.1-0.1
		c-0.1,0-0.4,0-0.6-0.1c-0.4-0.6-1.1-0.6-1.7-0.6c-0.4,0-0.7,0-1.2-0.1c-0.1-0.1-0.4-0.1-0.6,0c0,0.1-0.1,0.1-0.1,0.4
		c0,0.2-0.1,0.1-0.1,0.4c-0.1,0.1-0.7,0-0.7,0.4c0,0.1,0.1,0.6,0.1,0.7v0.1c0.1,0.7,0.1,1.2-0.7,0.7c-0.4-0.1-0.7-0.1-1.2,0
		c-1.2,0.4-2.4,0.6-3.7,1.1c-0.7,0.4-1.6,0.7-2.3,1.2c-0.1,0.1-0.4,0.1-0.7,0c-0.7-0.7-2-0.4-2.8,0c-0.1,0.1-0.4,0.1-0.7,0.1
		c-0.1-0.1-0.4,0-0.6,0c-0.1,0.1-0.4,0.1-0.6,0.1c-0.4,0-0.6,0-0.7,0.4c0,0.1-0.1,0.1-0.1,0.4c-0.4,0.4-0.4,0.4,0,0.7
		c0.1,0.1,0.1,0.1,0.1,0.4c-0.1,0.4,0,0.7,0,1.2c0,0.1,0,0.1,0,0.4c-0.4,0.4-0.6,1.1-1.1,1.6c-0.1,0.1-0.4,0.1-0.6,0.1
		c-0.2,0-0.6,0.1-0.7,0.1s-0.4,0.1-0.4,0.4c0,0.7-0.1,0.7-0.7,0.7c-0.1,0-0.6,0.1-0.6,0.4c-0.1,0.7-0.7,1.2-1.6,1.7
		c-0.1,0.1-0.4,0-0.4-0.1c-0.1-0.1-0.1-0.4-0.4-0.7c-0.1-0.7-0.4-1.7-0.6-2.4c-0.1-1.1-0.1-2.2,0.7-2.9l0.1-0.1
		c0.1-0.4,0.4-0.6,0.7-0.6c0.6,0,1.2-0.4,1.7-0.7c1.1-0.7,2.2-1.7,3.7-2.2c0.6-0.1,0.6-0.1,0.6-1.2c-0.1,0.7-0.6,0.7-1.2,1.1
		c-0.4,0.1-1.1,0.4-1.6,0.6c-0.6,0.1-0.7,0.1-0.7-0.6v0.5c-0.1,0-0.4-0.1-0.7-0.1c-0.7,0-1.6-0.1-2.2,0.6c-0.4,0.4-0.7,0.6-1.2,0.7
		c-0.4,0.1-0.6,0.1-0.1,0.6c0.1,0.4,0,0.6-0.1,0.6c-0.6,0.1-1.6,0.1-2.2,0.1c-0.1,0-0.4,0-0.6,0c-0.4,0.1-0.6,0-1.1-0.1
		c-0.4-0.4-1.1-0.6-1.7-0.1c-0.4,0.1-1.2,0.1-1.7,0.1c-1.1,0-2-0.1-2.9-0.1c-1,0-2.2,0.4-2.8,1.2l-0.1,0.1c-0.6,0.4-1.6,0.6-2,1.2
		c-0.6,0.6-1.2,0.7-2,1.2c0.4,0.1,0.6,0.1,0.7,0c0.4,0,0.6,0,0.4,0.4c-0.2,0.4,0,0.4,0.4,0.4c0.1,0,0.1,0,0.4-0.1
		c0.6-0.1,1.2-0.1,1.7,0.1c0.4,0.4,0.7,0.4,1.6,0c0.6-0.4,0.6-0.4,0.7,0.1c0.1,0.4,0.1,0.7,0.1,1.6c0,0.6,0.1,1.2,0.6,2
		c0.1,0.4,0.4,0.7,0.6,1.6c0,0.1,0,0.1,0,0.1s-0.1,0-0.4,0c0,0-0.1,0-0.1-0.1c-0.1-0.1-0.6-0.4-0.7,0c-0.1,0.1-0.4,0.6-0.1,1.1
		c0.1,0.4,0.1,0.6,0.4,0.7c0.1,0.6,0.1,0.7-0.4,1.1c-0.6,0.1-0.6,0.4-0.1,0.7c0.4,0.4,0.7,0.6,1.2,0.6s0.7,0.4,1.6,0.6
		c0.1,0.1,0.1,0.4,0,0.6c-0.1,0.2-0.4,0.1-0.7,0.1c-0.6,0-1.1,0.1-1.2,0.7c-0.1,0.1-0.4,0.1-0.7,0.1c-0.4,0-0.6-0.1-1.1-0.4
		c-0.4-0.1-0.7,0-1.1,0.4c0,0.1-0.1,0.6-0.6,0.4c-0.1-0.1-0.4-0.7-0.4-1.1c0.1-0.4,0.6-0.6,0.7-0.7c0.4-0.1,0.6-0.4,0.7-0.7
		c0-0.1,0.1-0.4,0.1-0.7c0.1-0.7,0.1-2,0.1-2.9c0-1,0-2.2,0.1-3.3c0-0.1,0-0.1-0.1-0.4c-0.1-0.2-0.4-0.1-0.6,0
		c-0.2,0.1-0.1,0.6-0.1,0.7c0,0.1,0,0.4,0,0.6c-0.1,0.7-0.6,1.7-1.2,2.3c-1.1,1.1-1.7,2.3-2.9,2.9c-0.1,0.1-0.1,0.1-0.4,0.4
		c-0.1,0.4-0.7,0.7-1.2,1.1c-0.6,0.4-1.2,0.6-2.2,0.1c-0.1,0-0.1-0.1-0.4,0c-0.6,0.4-1.6,0.7-1.7,1.6c-0.1,0.9-0.7,1.1-1.2,1.6
		c-0.6,0.4-0.6,0.4-0.1,1.1c0.1,0.1,0.1,0.6,0.4,0.7c0.6,0.6,0.6,1.6,0.6,2.3c0,0.7-0.4,1.2-1.2,1.2c-0.4,0-0.7,0-1.2,0.1
		c-0.4,0.1-0.6,0.1-0.6-0.1c0-0.1,0-0.6,0-0.7s0.1-0.1,0.1-0.4c0-0.4,0.4-1.1,0-1.6c-0.4-0.1-0.7-0.1-1.2-0.4
		c-0.4,0-0.4-0.1-0.4-0.6c0-0.1,0.1-0.1,0.1-0.4c0.1-0.7,0-1.1-0.7-0.7c-0.6,0.1-1.2,0.4-1.7,0.6c-0.1,0.1-0.4,0.1-0.6,0.1
		c-0.2,0-0.1,0-0.4,0c-0.1-0.1-0.1-0.1,0-0.4c0-0.1,0.1-0.4,0.1-0.7c0.1-0.1,0.1-0.6,0-0.7c-0.6,0.1-1.1,0.6-1.6,1.1
		c-0.1,0.1-0.4,0.4-0.7,0.7c-0.1,0.1-0.6,0.4-0.1,0.7c0.1,0.4,0.7,0.6,1.2,0.1c0.1,0,0.1-0.1,0.1-0.1c0.1-0.1,0.6-0.1,0.7,0
		c0.4,0.1,0.6,0.4,1.1,0.1c0.1,0,0.4,0,0.4,0.1s-0.1,0.4-0.4,0.6l0,0c-1.1,0-1.6,0.7-2.3,1.6c-0.1,0.1-0.1,0.4,0,0.6
		c0.6,0.1,0.7,0.7,1.1,1.6c0.1,0.4,0.1,0.6,0.4,0.7c0.6,0.6,0.4,1.6-0.1,2c0.7,0,1.1,0.1,0.6,1.1c-0.1,0.6-0.4,1.6-1.1,2
		c-0.6,0.4-1.1,1.1-1.1,2c0,0.1-0.1,0.4-0.4,0.6c-0.7,0.6-2,1.2-2.8,2.3c-0.1,0.1-0.4,0.1-0.7,0.1c-0.1,0-0.4,0-0.6,0
		c-0.4,0.6-1.2,0.4-1.7,0.6c-0.6,0.4-1.6,0.4-2.2,0.6c-0.6,0-1.2,0-2,0s-2.3,1.1-2.4,2c0,0.1,0,0.4,0,0.4c0.6,0.6,0.7,1.6,1.6,2
		c0.1,0.1,0.1,0.1,0.4,0.4c0.4,0.1,0.7,0.6,0.7,1.1c0.1,0.6,0.4,1.2,0.4,2c0.1,1.1-0.1,2-1.1,2.8c-1.1,0.6-2,1.7-2.9,2.2
		c-0.4,0.1-0.6,0.1-0.6-0.1c0-1.1-0.7-1.7-1.6-2.3c-0.1-0.1-0.6-0.4-0.7-0.7c-0.1-0.1-0.4-0.4-0.7-0.4c-0.4,0-0.7,0-1.1-0.6
		c0.1,0.7-0.1,1.6-0.6,2c-0.4,0.7-0.4,0.7,0.1,1.6c0.4,0.4,0.4,0.7,0.4,1.2c0,0.5,0.1,0.6,0.7,1.1c1.1,0.7,2.3,1.7,2.2,3.3
		c0,0.4,0,0.7,0.4,1.6c0.4,0.6,0.6,1.2,0,2c-0.1,0.1,0,0.4,0,0.6c0.1,0.6,0.6,1.2,0.4,2c0.4,0,0.4-0.1,0.7-0.4
		c0.4-0.1,0.6-0.1,0.7,0.1c0.1,0.6,0.4,1.1,0,2c-0.1,0.4-0.1,1.2-0.1,1.7c0,0.1,0.1,0.4,0.1,0.4c0.7,0.1,1.7,0.4,2.4,0.7
		c0.4,0.1,0.7,0.1,1.6,0c0.4-0.1,0.7,0.1,1.2,0.1c0.4,0,0.7,0.1,1.1,0.6c0.1,0.4,0.6,0.4,1.1,0.4s0.6,0.1,0.6,0.4
		c0,0.6-0.1,0.7-0.7,0.6c-0.4-0.1-0.7-0.1-1.1-0.1c-0.6,0-1.2,0-2-0.1s-1.2-0.4-2-0.4c-1.1,0-2-0.1-2.8-0.7c-0.4-0.1-0.4-0.4,0-0.7
		c-0.6,0.1-0.7-0.1-1.2-0.4c-0.1-0.1-0.4-0.4-0.6-0.6c-0.7-0.4-1.6-1.6-2.2-2.3c-0.1-0.1-0.1-0.6-0.4-0.7c-0.1-0.7-0.6-1.6-1.2-2
		c-0.1-0.1-0.4-0.4-0.4-0.7c-0.1-0.4-0.4-0.7-0.7-1.2l-0.1-0.1c-0.1-0.7-1.1-1.2-1.7-2c-0.4-0.4-0.6-0.7-0.6-1.2
		c0-0.4,0.1-0.6,0.4-0.4c0.4,0.1,1.1,0.4,1.6,0.4s0.7,0.1,1.1,0.6c0.1,0.4,0.6,0.7,1.1,1.1c0.4,0.1,0.6,0.7,1.2,1.1
		c0.1-0.4,0-0.6-0.1-1.1c-0.4-0.7-0.6-1.6-0.7-2.4c0-0.4-0.1-0.6-0.4-0.7c-0.1-0.1-0.4-0.1-0.6-0.4c-0.6-0.4-0.7-1.1-0.6-2
		c0.1-1.1,0.4-2.2,0.1-3.3c0-0.1,0-0.1,0-0.4c-0.6-1.2-0.6-2.4-0.7-3.9c-0.1,0-0.4,0.1-0.6,0.4c-0.4,0.4-1.1,0.4-1.7,0.4
		c-0.4,0-0.6-0.1-0.6-0.6V392c0.4-1.6-0.4-2.4-1.6-3.7c-0.7-0.7-0.7-0.7-1.1-2c-0.6,0.4-1.6,0.1-2.2,0.6c-0.1,0-0.4,0-0.6,0
		c-0.6-0.1-0.7,0-1.1,0.4c-0.1,0.7-0.7,1.2-1.6,1.6c-0.4,0.1-0.7,0.4-1.2,1.1c-0.1,0.1-0.4,0.6-0.7,0.7s-1.1,0.6-1.2,1.2
		c0,0.1-0.4,0.1-0.6,0.4c-1.6,0.4-1.6,1.1-1.2,2.3c0.1,0.6,0.1,1.2-0.1,1.7c-0.4,0.7,0,1.6-0.1,2.3c0,0.1,0.1,0.1,0.1,0.1
		c0.4,0,0.6,0.1,0.6,0.4c0.1,0.4,0.4,1.1,0.7,1.6c0.4,0.4,0.1,1.1,0,1.6c-0.1,0.5-0.7,0.6-1.2,0.6c-0.5,0-0.6-0.1-0.6-0.6
		c-0.1-0.6-0.1-1.2-0.1-2c0-0.1,0.1-0.4,0-0.6c-0.1-0.1-0.4,0-0.6,0.1c-0.1,0.1-0.4,0.4-0.6,0.4c-0.7,0.1-1.6-0.1-1.7-0.7
		c-0.1-1.1-0.6-2.2-1.2-3.3c-0.1-0.1-0.1-0.6-0.1-0.7c0-0.6-0.4-1.1-0.6-1.6c-0.4-0.7-0.7-1.7-0.7-2.4c0-0.4-0.1-0.6-0.1-1.1
		c-0.1-0.7-0.4-1.6-0.1-2.3c0.1-0.4-0.1-0.6-0.4-0.4c-1.2,0.7-2,0-2.8-0.7c-0.1-0.1-0.4-0.4,0-0.7c0.1,0,0.1-0.1,0-0.1
		c-0.4-0.1-0.4-0.6-0.7-0.6c-0.6-0.1-1.1-0.6-1.2-1.2c-0.4-0.6-0.4-0.6-1.2-0.6c-1.6,0.1-2.9,0.1-4.5,0c-0.4,0-0.7,0-1.2,0
		c-0.7,0-1.7,0-2.3-1.1c-0.1,1.1,0.1,2,1.1,2.2c0.7,0.1,1.2,0.7,1.7,1.6c0,0.1,0.1,0.1,0.1,0.4c-0.1,0.6-0.4,1.2-1.1,1.7
		c-0.4,0.1-0.6,0.6-0.6,1.1c0,0.4-0.1,0.6-0.6,0.7c-0.1,0-0.4,0.1-0.6,0.4c-0.1,0.1-0.1,0.4-0.6,0.4h-0.1c-0.4,1.1-1.6,0.7-2.3,1.1
		c-0.4,0.1-0.7,0.1-0.7,0.7c-0.1,0.4-0.6,0.6-1.1,0.6c-0.7,0.1-1.7,0.4-2.3,1.1c-0.4,0.1-1.1,0.4-1.7,0.6c-1.1,0.1-2,1.1-3.3,0.7
		c-0.1,0-0.4,0.1-0.4,0.4c0,0.1,0,0.1,0.1,0.4c0.1,0.1,0.4,0.4,0.6,0.6c0.2,0.2,0.4,0.1,0.7,0.1c1.1-0.4,2.3-0.4,3.4-0.6
		c0.6-0.1,1.2-0.1,1.7-0.6c0.6-0.1,0.7-0.1,1.1,0.4c0,0.6,0.4,1.2-0.1,1.7c-0.1,0-0.1,0.1-0.1,0.4c0,0.6-0.4,1.1-0.6,1.7
		c-0.1,0.6-0.6,1.1-0.7,1.7c-0.6,1.6-1.7,2.8-2.8,4c-0.4,0.4-0.7,0.6-1.6,1.1c-1.2,0.7-2,2-2.8,2.9c-0.1,0.4-0.6,0.7-1.1,1.2
		c-0.1,0-0.1,0.1-0.4,0.4c-0.4,0.7-0.6,1.7-1.1,2.3c-0.1,0.4-0.1,0.6,0.1,0.7c0.4,0.4,0.4,0.7,0.6,1.2c0,0.1,0.1,0.4,0,0.4
		c-0.1,0.4-0.1,0.7-0.1,1.1c0,0.4,0.1,0.7,0.6,1.1c0.1,0.1,0.1,0.4,0.1,0.6c-0.1,1.2,0,2.3,0.1,3.4c0,0.1,0.1,0.4,0,0.6
		c-0.1,0.4-0.4,1.1-0.7,1.6c-0.1,0.4-0.6,0.7-1.2,0.7c-0.7,0.1-1.7,0.6-2.2,1.6c-0.1,0.4-0.4,0.4-0.7,0.4c-0.7,0.4-0.7,0.6-0.6,1.6
		c0.4,0.7,0.4,2,0.6,2.9c0,0.6-0.4,1.1-0.7,1.6c-0.1,0.1-0.4,0.1-0.6,0.1c-1.1,0.4-1.1,0.4-1.1,1.6c0,1.1-0.1,2.2-1.2,2.8
		c-0.1,0.1-0.4,0.4-0.6,0.7c-0.6,1.2-1.7,2.2-2.9,2.9c-0.6,0.4-1.2,0.6-2.2,0.7c-0.7,0.1-1.7,0.1-2.4,0.1c-0.1,0-0.1,0-0.4,0
		c-0.6,0.4-1.6,0.4-2.3,0.6c-0.4,0.1-0.7,0-1.6-0.1c-0.4-0.1-0.7-0.4-0.7-1.1c0-0.1-0.1-0.4-0.1-0.4c-0.1-0.1-0.1-0.4,0-0.6
		c0.1-0.1,0.1-0.6,0-0.7c-0.4-0.6-0.7-1.2-1.1-2.2c-0.1-0.4-0.4-0.7-0.7-1.2c-0.7-0.6-1.1-1.7-1.1-2.8c-0.1-1.1-0.4-2.2-0.4-3.3
		c0-0.1,0-0.1-0.1-0.4c-0.6-0.6-0.7-1.6-1.1-2.3c-0.1-0.4-0.4-0.7-0.6-1.2c-0.7-1.1-0.6-2.3-0.4-3.7c0-0.1,0.1-0.4,0.1-0.6
		c0-0.7,0.4-1.7,1.1-2.3c0.4-0.6,0.4-1.2,0.1-2c-0.1-0.6-0.4-1.2-0.1-2.2c0.1-0.6-0.1-1.1-0.6-1.6c-0.1-0.1-0.1-0.6-0.4-0.7
		c-0.1-0.7-0.6-1.7-1.6-2.3s-1.6-1.6-1.7-2.3c-0.1-0.4-0.1-0.6,0-1.1c0.7-1.2,0.7-2.4,0.6-4c0-0.4-0.4-0.7-1.1-0.7
		c-0.6,0-1.1,0.1-1.7,0.1c-0.6,0.1-1.1,0-1.2-0.6c0-0.1-0.1-0.1-0.1-0.4c-0.1-0.7-0.7-1.1-1.7-1.1c-1.6,0-2.4,0.6-3.9,1.2
		c-0.7,0.4-1.6,0.4-2.3,0.1c-0.7-0.4-2,0-2.9,0.1c-0.4,0.1-0.7,0.6-1.6,0.4c-0.6-0.1-1.6-0.4-2-1.1c-0.6-0.7-1.6-1.6-2.4-2
		c-0.4-0.1-0.7-0.6-0.7-1.1c-0.1-0.6-0.1-1.1-0.6-1.6c-0.4-0.6-1.1-1.2-2-1.2c-0.1,0-0.4-0.1-0.4-0.4c0-0.4-0.4-0.7-0.1-1.6
		c-0.4-0.6,0-1.2-0.6-2c-0.1-0.1-0.1-0.4,0-0.7c1.1-1.6,1.2-3.3,0.7-5c0,0,0-0.1-0.1-0.1c-0.7-0.7-0.4-1.6,0-2.3
		c0.4-0.7,0.6-1.7,1.6-2.2c0.1-1.1,0.7-1.7,1.6-2.4c0.4-0.6,0.7-1.1,1.6-1.2c0.6-0.1,1.2-0.7,1.7-1.2c0.1-0.4,0.1-0.7,0.1-1.1
		c-0.1-1.2,0.4-2.3,1.7-2.8c1.1-0.4,1.7-1.2,2.2-2.3c-0.4-0.7-1.6-1.1-2.3-1.2c-0.4,0-0.6-0.1-0.7-0.6c0-0.1,0-0.4-0.1-0.6
		c-0.4-0.4-0.1-0.7,0-1.6c0.6-0.7,0.6-1.7,0.1-2.8c-0.4-0.6-0.1-0.7,0.4-1.2c0.4-0.1,0.7-0.4,1.6-0.1c0.1,0.1,0.6,0,0.7,0
		c0.1,0,0.4-0.1,0.6,0c0.7,0.1,2,0,2.8,0.1c0.6,0.1,0.7-0.1,1.2-0.6c0.4-0.7,0.1-1.7-0.4-2.3c-0.6-0.6-1.2-1.1-2.2-1.1
		c-0.4,0-0.6-0.4-0.6-0.7c0-0.4,0.1-0.4,0.6-0.6c0.4-0.1,0.7-0.1,1.2,0c0.1,0.1,0.6,0.1,0.7,0c0-0.4-0.4-0.6,0-1.1
		c0.4-0.1,0.7-0.1,1.1,0c0.4,0.1,0.6,0,0.7,0c1.2-0.4,2.2-1.6,3.3-2c0.1-0.1,0.4-0.4,0.6-0.7c0.1-0.4,0.4-0.6,0.6-0.7
		c1.1-0.1,2.2-0.7,3.4-0.1h0.1v0.9c-0.6-0.7-0.4-1.7-0.6-2.4c-0.1-0.4,0.1-0.6,0.4-0.7c0.4-0.1,1.1-0.4,1.6-0.6
		c0.1-0.1,0.4-0.1,0.6,0c0.1,0.1,0.1,0.4,0,0.6c-0.1,0.1-0.1,0.1,0.1,0.4c0.4,0.4,0.4,0.4,0,0.6c-0.6,0.6-0.7,0.6-0.4,1.2
		c0.1,0.4,0.7,0.7,1.6,0.4c0.6-0.4,1.2-0.1,1.7,0c0.1,0.1,0.6,0,0.7,0c0.7-0.1,1.7-0.6,2.4-0.6c0.1,0,0.6-0.1,0.7,0
		c0.6,0.1,1.1,0,1.7-0.1c0.4-0.1,0.6-0.4,0.6-0.7c0-0.4,0.1-0.7,0.4-1.2c0.4-0.6,0.7-0.7,1.7-0.4c0,0,0,0,0.1,0
		c0.4,0.1,0.7,0.1,1.1-0.1c0.1-0.4,0-0.6-0.1-0.7l-0.1-0.1c-0.4-0.4-0.4-0.6,0.1-0.7c0.7-0.4,2-0.4,2.8-0.1c0.4,0.1,0.7,0,1.2-0.4
		c-1.2-0.1-2.4,0.1-3.9,0.4c-0.7,0.1-1.6,0-2.2-0.1c-0.1-0.1-0.6-0.4-0.4-0.7c0.1-0.4,0-0.7-0.1-1.2c-0.1-0.1-0.1-0.4-0.1-0.7
		c0-0.1,0.1-0.4,0.4-0.4c0.1,0,0.4-0.1,0.6-0.1c1.1-0.4,1.7-1.1,2.4-1.7c-0.6-0.4-1.2-0.1-2.2-0.1c-0.4,0-0.7,0.1-0.7,0.6
		c0,0.7-0.6,1.2-1.2,1.2c-0.7,0.1-1.6,0.7-2.3,1.1c-0.4,0.1-0.1,0.6-0.4,0.7c-0.1,0.4,0,0.6,0.4,0.6c0.1,0,0.1,0.1,0.1,0.1
		c0.1,0.1,0.7,0.4,0.6,0.7c-0.1,0.4-0.4,0.7-0.7,1.1c-0.6,0.1-0.7,0.6-1.1,1.2c-0.1,0.4-0.1,0.7-0.4,1.1c-0.1,0.4-0.4,0.6-0.7,0.4
		c-0.4,0-0.6,0.1-0.7,0.4c-0.1,0.4-0.6,0.4-0.7,0.4c-0.6,0-0.7-0.1-0.7-0.6c0-0.4-0.1-0.6-0.4-1.1c-0.4-0.4-0.7-1.1-0.7-1.7
		c0-0.1,0-0.4-0.1-0.4c-0.1-0.1-0.1-0.1-0.6-0.1c-0.7,0.4-1.7,1.2-2.8,1.2c-0.4,0-0.7,0.1-1.1-0.1c-0.1-0.1-0.4-0.1-0.6-0.1
		c-0.1-0.1-0.4-0.4-0.6-0.6c0-0.4,0-0.6,0.4-0.7c0.1,0,0.4,0,0.6-0.1c0-0.1-0.1-0.1-0.4-0.1c-0.7-0.1-0.7-0.1-0.7-1.1
		c0-0.1,0-0.1,0-0.4c0-0.2,0-0.4,0.4-0.4c0.6,0,1.1-0.4,1.6-0.6c0.4-0.1,1.1-0.4,1.2-0.7h0.1c0.7-0.1,0.7-0.1,1.6-0.6
		c0.6-0.4,1.6-0.7,2.2-1.1c0.4-0.1,0.6-0.4,0.6-0.7c-0.1-0.6,0.1-0.7,0.6-0.7c0.1-0.1,0.4-0.1,0.7-0.1c0.6,0,1.2,0,1.2-0.7
		c0-0.1,0.1-0.4,0.4-0.1c0.4,0.1,0.6-0.1,0.7-0.4c0.1-0.4,0.6-0.7,1.1-1.1c0.4-0.1,0.7-0.1,1.6-0.1c0.9,0,1.2-0.1,2-0.4
		c0.4-0.1,0.7-0.1,1.1-0.1c0.4,0,1.1,0,1.6-0.1c0.1-0.1,0.6-0.1,1.1,0c0,0,0.1,0,0.4,0c1.1-0.4,2.2,0,3.4,0.1c0.4,0,0.7,0.1,1.1,0.6
		c0.1,0.1,0.4,0.1,0.6,0.1c0.6-0.1,1.1-0.1,1.6,0.1c0.1,0.1,0.6,0.1,0.7,0.1c1.2,0,2.4,0.1,3.7,0.7c0.6,0.1,1.2,0.1,2,0.4
		c0.1,0,0.4,0.1,0.6,0.1c0.7,0.4,0.7,1.1,0.1,1.6l-0.1,0.1c0.4,0,0.6-0.1,1.1-0.4c0.1-0.1,0.6-0.4,1.1-0.1c0.1,0.1,0.4,0,0.6-0.4
		c0-0.4,0.1-0.7-0.1-1.2c-0.1-0.1,0-0.4,0.1-0.4c0.6,0,1.6-0.1,2.2,0h0.1c0.4,0.1,0.7,0.4,0.6,0.7c0,0.4-0.4,0.1-0.7,0.1h-0.1
		c0.6,0.6,1.2,0.6,1.7,0c0.1-0.4,0.6-0.4,1.1-0.6c1.2-0.4,2.4-0.6,4-1.1c0.4,0,0.6-0.1,1.1-0.1c0.6,0,0.6,0,0.4,0.6
		c0.1,0.1,0.4,0,0.4,0c0.4-0.1,0.7-0.1,1.6-0.1s1.6-0.1,2.2-0.4c0.1-0.1,0.4-0.1,0.6,0.1c0.1,0.4,0.4,0.1,0.7,0.1
		c0-0.1-0.1-0.4-0.1-0.7c0.1-0.1,0.4-0.1,0.7-0.1c1.1,0,2,0,2.9,0.1c1.2,0.4,2.4,0.4,3.9,1.1h0.1c-0.1-0.4-0.4-0.6-0.7-0.6
		c-0.7-0.1-0.7-0.1-0.7-0.7c0-1.1,0-1.2,1.1-1.6c0.4-0.1,0.6-0.4,0.7-0.7c0.4-0.7,1.1-0.7,2-0.6c0.1,0,0.6,0,0.7,0
		c0.1,0,0.6,0,1.1,0.1c0.6,0.1,0.6,0.6,0.1,1.1c-0.4,0.4-0.4,0.4,0.1,0.7c0,0.1,0,0.4,0,0.4c-0.4,0.6-0.1,1.2,0,2
		c0,0.1,0.1,0.1,0.1,0.4c0.1,0.6,0.1,0.6-0.4,0.7c-0.4,0.1-0.7,0.1-0.7,0.7c0.6-0.4,1.2-0.6,1.7-0.7c0.6-0.4,0.7-1.1,0.1-1.7
		c-0.4-0.1-0.4-0.6-0.1-0.7c0.1-0.6,0-1.1-0.6-1.2c-0.1-0.4,0-0.6,0.1-0.7c0.1-0.1,0.4-0.1,0.7-0.1c0.6-0.1,0.6-0.1,0.1-0.6
		c-0.1-0.1,0-0.4,0.1-0.4c0.1,0,0.1,0,0.4,0C253.7,335.6,253.7,335.6,253.8,335.6z M192.6,375.8c0.1,0.1,0.4,0.1,0.4,0.1
		c0.6,0.6,1.2,0.6,2,0.6s2,0.1,2.4,1.2c0,0.1,0.1,0.4,0.4,0.4c0.7,0,1.7,0.4,2.3,0.7c0.4,0.1,0.6,0,0.7-0.4c0-0.1,0-0.4,0-0.6
		c0-0.6,0.1-0.7,0.7-1.2c0.7-0.4,1.7-0.4,2.3,0.1c0.7,0.6,1.7,0.6,2.3,0.7c0.7,0.1,1.7,0.4,2.4,0.6c0.4,0,0.6,0.1,0.7,0
		c0.7-0.4,1.7-0.6,2.8-0.1c1.1,0.4,1.7-0.1,2.2-1.2c0.1-0.4,0.1-0.7,0.6-1.2c0.4-0.6,0.4-1.1,0.4-1.7c0-0.6-0.6-1.1-1.1-0.6
		c-0.7,0.6-1.7,0.6-2.8,0c-0.4-0.1-0.7-0.1-1.2,0c-0.1,0.1-0.4,0.1-0.6,0.1c-0.6-0.1-1.2-0.1-2-0.4c-0.1,0-0.6-0.1-0.4-0.6
		c0-0.4-0.1-0.7-0.6-0.7c-0.1-0.1-0.4-0.4-0.4-0.7c0-0.1,0-0.4,0-0.6c0-0.2,0-0.1,0-0.1c-0.6,0-0.4-0.1-0.4-0.6c0-0.1,0-0.4-0.1-0.4
		c-0.6,0-1.2,0.1-1.7,0.4c-0.4,0.1-0.4,0.6-0.1,0.7c0,0.4,0.1,0.1,0.4,0.1c0.1,0,0.1,0,0.1,0.1c0.4,0.6,0.4,1.1-0.1,1.6
		c-0.1,0.1-0.4,0.1-0.1,0.6c0.1,0.1,0.1,0.4,0,0.7c-0.1,0.1-0.4,0-0.7-0.1c-0.1,0-0.1-0.1-0.4-0.4c-0.1-0.1-0.6-0.6-0.7-0.7
		c-0.4-0.1-0.6-0.4-0.6-0.7c0-0.4-0.1-0.7-0.6-1.1c-0.6-0.4-0.6-0.7-0.6-1.6c0-1.1,0-1.2-1.1-1.6c-0.7-0.1-1.7-0.4-2.3-1.2
		c-0.1-0.1-0.6-0.4-0.7-0.7c-0.1-0.6-0.7-0.7-1.6-0.7c-0.4,0-0.4,0.1-0.4,0.6c0,0.1,0.1,0.4,0.4,0.4c0.4,0.1,0.7,0.4,0.7,0.7
		c0.1,0.6,0.7,0.7,1.6,1.1c0.1,0,0.6,0,0.6,0.1c0.1,0.6,0.7,0.7,1.6,1.1c0.4,0.1,0.6,0.4,0.7,0.6c0,0.1,0,0.4,0,0.4
		c-0.1,0.1-0.1,0.1-0.4,0c-0.1-0.1-0.4-0.1-0.6-0.1c-0.1,0-0.1,0-0.1,0v0.1c0.1,0.1,0.4,0.4,0.1,0.6c-0.1,0.4-0.6,1.1-1.1,1.2
		c-0.4,0.1-0.7,0.4-0.7,0.7c0,0.1-0.1,0.4-0.4,0.4c-0.6-0.1-1.6-0.4-2-1.1c-0.1-0.1-0.1-0.4,0-0.6c0.1-0.2,0.4-0.1,0.6-0.1
		c0.6,0.1,1.1,0,1.7,0c0.1,0,0.6,0,0.6-0.4c0.1-0.4,0-0.6-0.1-0.7c-0.4-0.1-0.6-0.6-1.1-0.7c-0.7-0.4-2-0.7-2.8-1.6
		c-0.1-0.1-0.4-0.4-0.6-0.4c-0.4,0-0.6-0.1-0.6-0.6c0-0.7-0.7-1.2-1.7-0.7c-0.1,0.1-0.4,0.1-0.6,0.4c-0.7,0.4-1.7,0.7-2.4,0.4
		c-0.6-0.1-1.1,0-1.2,0.6c-0.1,0.7-0.7,1.2-1.7,1.6c-0.7,0.1-1.6,0.7-1.6,2c0,0.7-0.4,1.2-0.7,1.7c-0.6,0.6-1.6,1.2-2.4,1.1
		c-0.1,0-0.7,0-1.1,0.1c-0.1,0.1-0.1,0.1-0.1,0.4c0,0.1,0.1,0.1,0.4,0.1c0.6,0,1.1,0.1,1.7,0.1c0.1,0,0.6,0,0.7,0
		c0.4-0.4,1.2-0.4,1.7-0.7c1.1-0.6,2.2-0.6,3.3-0.7c1.1-0.1,2.2,0.1,3.3,0c0.7-0.1,1.6,0,2.3-0.1c0.4-0.1,0.7-0.1,1.2,0
		c0.1,0.1,0.4,0.1,0.1,0.6c-0.1,0.4-0.1,0.7,0,1.2c0.1,0.1,0,0.6-0.1,0.7C192.8,375.5,192.6,375.5,192.6,375.8z M213.5,363.6
		c-0.6,0-1.1,0-1.6-0.1c-0.1-0.1-0.4,0-0.4,0.1c-0.7,1.1-1.7,2.2-2.2,3.4c-0.1,0.4,0.1,1.2,0.7,1.2c0.7,0,1.7,0.1,2.3-0.4
		c1.2-0.7,2.8-0.7,4-0.1c1.2,0.6,2.4,0.6,3.9,0.6c0.4,0,0.6-0.1,1.1-0.4c0.1,0,0.1-0.1,0.1-0.4c0-0.1-0.1-0.4-0.6-0.6
		c-0.1-0.1-0.6-0.1-0.7-0.4c-0.6-0.6-1.6-0.7-2.2-1.6c-0.4-0.1-0.6-0.1-1.1-0.1c-0.6,0-1.1,0.1-1.7,0.4c-0.6,0.1-1.2,0-1.7-0.4
		C213.2,364.4,213.2,364.4,213.5,363.6z M223.5,396.9c-0.4-1.1-0.1-2.2-0.6-3.3c-0.4-1.1-1.1-2-1.7-2.9c-0.1-0.1-0.1-0.1-0.4-0.4
		c-0.6-0.6-1.2-1.2-1.1-2.3c0-0.7-0.1-1.2-0.7-1.7c-0.4-0.1-0.6-0.6-0.7-1.1c-0.4-0.7-1.1-2-1.7-2.8c-0.1-0.1-0.4-0.4-0.7-0.1
		c-0.4,0.1-0.1,0.4-0.1,0.6c0,0.1,0.1,0.4,0.1,0.6c0.4,0.7,0.7,1.7,1.1,2.8c0.1,0.4,0.4,0.7,0.7,1.1c0.6,0.6,1.1,1.2,0.7,2.2
		c0,0.7,0,1.7,0.7,2.2c0.6,0.4,0.7,1.1,0.7,1.7c0,0.4,0,1.1,0.7,1.1c0.1,0,0.1,0.1,0.1,0.4c0,0.1,0,0.1,0.1,0.4
		c0.6,0.1,0.7,0.6,1.1,0.7C222.5,396.5,222.8,396.7,223.5,396.9z M217.9,344.8c0-0.4-0.4-0.4-0.4-0.6c-0.1-0.1,0-0.4,0.1-0.4
		c0.1,0,0.4,0,0.6,0.1c0.4,0.1,0.7,0.1,1.6,0.1c0.1,0,0.4,0,0.4-0.4c0-0.4-0.1-0.6-0.6-0.6c-1.2,0-2.4-0.1-3.9-0.1
		c0,0.1,0.1,0.4,0.1,0.6c0,0.4,0.1,0.7,0.6,0.7c0.1,0,0.4,0.1,0.6,0.1C217.5,344.8,217.6,344.8,217.9,344.8z M216.9,364
		c0.1,0,0.4,0,0.6,0c0.2,0,0.6,0,0.4-0.4c0-0.1-0.1-0.4-0.6-0.4c-0.1,0-0.6,0-0.7,0.1c-0.1,0-0.6,0-0.4,0.4
		C216.3,364,216.6,364,216.9,364L216.9,364z"/>
	<path fill="#1A4922" d="M293.3,431.6c0.4,0.1,0.6,0,1.1-0.1c0.6-0.1,1.1-0.6,1.7-0.6c0.4,0,0.7-0.1,1.1-0.6c0.1-0.6,0.7-1.1,0.7-2
		c0-0.1,0.1-0.6,0.6-0.7c0.4-0.1,0.7-0.4,1.6-0.6c0.6-0.1,0.7-0.6,1.1-1.2c0.4-1.1,1.2-1.2,2.2-0.6c0.1,0.1,0.4,0.4,0.7,0.6
		c0.4,0,0.6,0,0.6-0.4c0-0.4,0.1-0.7,0.6-1.1c0.1-0.1,0.1-0.4,0.4-0.6c0.1-0.4,0.6-0.6,1.1-0.6c0.1,0,0.4,0,0.6-0.1
		c0.4-0.4,0.7-0.4,1.2-0.1c0.7,0.4,1.6,0.6,2.4,0.6c0.1,0,0.4,0,0.6,0c0.1,0,0.4,0.1,0.1,0.4c-0.1,0.4-0.4,0.7-0.6,1.1
		c-0.6,0.6-0.6,1.2,0.1,1.7c0.1,0.1,0.6,0.1,0.7,0.6c0.4,0.4,0.7,0.6,1.2,0.7c0.1,0,0.6,0.1,0.7,0.4c0.4,0.1,0.6,0.1,0.7-0.1
		c0.4-0.7,0.6-1.7,0.6-2.4c-0.1-1.1,0-2.3,0.4-3.4c0-0.1,0.1-0.1,0.1-0.4c0.1-0.1,0.6-0.1,0.6,0.1c0.1,0.7,0.7,1.7,0.7,2.8
		c0,0.1,0.1,0.4,0.4,0.4c0.6,0,1.1,0.4,1.1,0.7c0.1,0.7,0.4,1.7,0.7,2.3c0,0.1,0.1,0.4,0.1,0.6c0,0.6,0.1,1.1,0.7,1.2
		c0.7,0.4,1.7,1.2,2.2,2.3c0,0.1,0.1,0.4,0.1,0.4c0.6,0.1,0.7,0.7,1.1,1.2c0.1,0.6,0.7,1.1,1.2,1.6c0.7,0.7,0.7,2,1.1,3.3
		c0.1,0.7,0.1,1.7-0.1,2.3c0,0.1-0.1,0.4-0.1,0.6c0,1.1-0.6,2-1.2,2.8c-0.7,1.1-1.6,2.3-1.7,3.9c0,0.6-0.1,0.7-0.7,0.7
		c-0.7,0-1.6,0.4-2.2,0.7c-0.4,0.1-0.6,0.4-1.1,0.1c-0.4-0.1-1.1-0.4-1.7-0.1c-0.4,0.1-0.7,0.1-1.1,0c-0.1-0.1-0.4-0.1-0.7-0.1
		c-1.2-0.1-2.2-0.7-2.4-2.2c-0.1-0.4-0.1-0.7-0.7-0.7c-0.6-0.1-1.1-0.6-1.2-1.2c0-0.4-0.1-0.4-0.6-0.1c-0.1,0.1-0.1,0.6-0.7,0.6
		c-0.4,0-0.4-0.6-0.6-0.7c-0.1-0.4-0.6-0.7-0.7-1.2c-0.4-0.4-0.7-0.6-1.2-0.6c-0.1,0-0.4,0-0.4,0c-1.2-0.6-2.3-0.4-3.7,0
		c-0.1,0.1-0.6,0.1-0.7,0.1c-0.7,0-1.7,0.4-2.3,0.6c-0.1,0-0.4,0.1-0.4,0.4c-0.4,1.1-1.6,0.7-2.2,0.6c-1.2-0.1-2.2,0.1-3.3,0.7
		c-1.1,0.7-3.3,0.1-3.7-1.1c0-0.1,0-0.4,0.1-0.6c0.6-0.4,0.4-1.1,0.1-1.7c-0.1-0.6-0.4-1.6-0.6-2.3c-0.2-0.7-0.6-1.7-1.1-2.4
		c-0.1-0.6-0.4-0.6,0-1.2c0.1-0.1,0-0.1,0-0.4c-0.1-0.4-0.4-1.1-0.1-1.6c0.4-0.7,0.6-2,1.6-2.4c0.4-0.1,0.7-0.4,1.2-0.7
		C292.7,431.6,293.1,431.5,293.3,431.6z"/>
	<path fill="#1A4922" d="M322,416.4c0.6-0.4,1.2-0.4,2-0.1c0.7,0.1,1.7-0.1,2.2-1.1c0.1-0.4,0.4-0.6-0.1-0.7
		c-0.4-0.1-0.7-0.4-1.2-0.7c-0.1,0-0.1-0.1-0.1-0.1c0-0.1,0.1-0.1,0.4-0.1c0.4,0,1.1,0.4,1.6,0.1c0.1,0,0.1,0.1,0.1,0.1
		c0,0.1,0,0.1,0.1,0.1c0.4-0.1,0.6,0,0.4,0.4c0,0.1,0.1,0.1,0.1,0.4c0.4,0.6,0.1,0.7-0.4,1.1c-0.4,0-0.6,0.4-0.7,0.6
		c-1.1,1.2-1.7,1.2-2.9,0.6c-0.1,0-0.1-0.1-0.4-0.1c-0.1,0.1,0,0.1,0,0.4v0.1c-0.6,0.7,0.1,1.6,0.6,2c0.1,0.4,0.6,0.7,1.2,0.6
		c0.1,0,0.6,0,0.6,0.1c0,0.4,0.1,0.6,0.4,0.7c0.1,0.4,0.1,0.4-0.1,0.6c-0.1,0-0.4,0-0.6,0c-0.6-0.1-1.2-0.1-2-0.4
		c-0.7-0.1-1.2-1.1-1.7-1.7c-0.4-0.6-1.1-0.7-1.7-0.6c-0.4,0.1-0.6,0.1-0.6,0.7c0,0.6-0.4,0.6-0.7,0.6c-0.7,0-1.7,0-2.3-0.7
		c-0.1-0.1-0.4-0.1-0.7-0.1c-0.4,0-0.7,0.1-1.2,0.1c-0.1,0-0.4-0.1-0.1-0.4c0.1-0.1,0.1-0.4,0.4-0.6c0.6-0.7,0.1-2.2-0.7-2.3
		c-0.7-0.1-2-0.4-2.8-1.1c-0.1,0-0.1-0.1-0.4,0c-0.1,0.1-0.6,0.1-0.7-0.1c-0.1-0.4-0.6-0.7-0.1-1.2c0.4-0.4,0.7-0.7,1.2-0.7
		c0.4-0.1,0.6,0,0.7,0.4v0.1c0.1,0.6,0.4,0.6,0.7,0.1c0.4-0.6,1.2-0.7,2-1.2c0.1-0.1,0.4,0,0.4,0c1.7,0.7,3.7,1.6,5.4,2
		c0.7,0.1,1.2,0.7,2,1.2l0.1,0.1c0,0.6,0.1,0.6,0.7,0.4C322.4,415.8,322,416.3,322,416.4z"/>
	<path fill="#1A4922" d="M223.2,433.8c0-0.4,0-0.7,0.1-1.2c0.6-0.7,0.7-2,0.4-2.9c-0.1-0.7,0-1.6,0.1-2.2c0.1-0.1,0.4-0.4,0.6-0.4
		c0.4-0.1,0.7-0.1,1.1-0.4c0.7-0.1,1.6-0.7,1.6-1.7c0-0.1,0-0.4,0.1-0.4c0.6,0,0.6-0.4,0.7-0.7c0-0.1,0-0.4,0.1-0.4
		c0.1-0.1,0.4-0.1,0.6,0c0.6,0.7,0.7,2.2,1.1,3.3c0,0.1,0,0.4-0.1,0.4c-0.6,0.1-0.4,0.6-0.1,1.1c0,0.1,0,0.1,0,0.4
		c-0.7,2.3-1.6,5-2.3,7.5c-0.1,0.7-0.6,1.2-1.6,1.2c-0.6,0.1-1.1,0.4-1.7,0c-0.6-0.4-1.1-0.7-0.7-1.6
		C223.6,434.9,223.2,434.4,223.2,433.8z"/>
	<path fill="#1A4922" d="M310.5,375.7c-1.1,1.7-2.2,2.2-3.4,0.6c0.1,0.6,0.4,1.2,0.1,2c-0.1,0.6-0.7,0.7-1.2,0.6
		c-0.1-0.1-0.4-0.1-0.4-0.6c0.1-0.6,0-1.1-0.4-1.6c-0.1-0.1-0.1-0.4,0-0.4c0.4-0.1,0.7-0.4,1.1-1.1c1.1-0.4,2-1.7,3.3-1.2
		c1.1,0.1,1.7-0.1,2-1.2c0.1-0.4,0.4-0.6,0.7-0.6c0.1,0,0.4,0,0.6,0c0.4,0,0.6-0.1,0.7-0.6c0.1-0.6,0.6-1.1,0.4-2
		c-0.1-0.6,0.7-1.7,1.6-1.7c0.1,0,0.4,0.1,0.4,0.4c0,0.4,0.1,1.1,0.6,1.6c0.1,0.1,0.1,0.4,0,0.4c-0.4,0.4-0.4,1.1-0.6,1.6
		c-0.4,0.6-0.1,1.2-0.6,2c-0.1,0.4-0.1,1.1-0.7,1.6s-1.6,0.1-2.2,0.1c-0.7-0.1-0.7-0.1-1.6,0.6c-0.1,0.1-0.1,0.6-0.4,0.6
		C310.6,376.7,310.9,376.1,310.5,375.7C310.6,375.8,310.5,375.8,310.5,375.7z"/>
	<path fill="#1A4922" d="M180.1,353.2c0.6,0.1,1.1,0.4,1.2,1.1c0,0.1,0.1,0.4,0.6,0.6c0.4,0.1,0.7,0.6,1.1,1.1
		c0.1,0.1,0.4,0.4,0.7,0.4c0.6,0.4,0.6,0.6,0.1,1.1c-0.1,0.4-0.7,0.6-1.1,1.1c0,0.1-0.1,0.1-0.4,0.1c-0.7,0-1.6,0-2.3,0.1
		c-0.1,0-0.6,0-0.7,0s-0.4,0-0.6,0c-0.2,0-0.4,0.1-0.6,0c-0.1-0.1,0-0.4,0.1-0.6c0.1-0.1,0.1-0.4,0-0.6c0-0.1-0.1-0.4-0.1-0.7
		c-0.1-0.6,0-1.1,0.7-1.1c0.4,0,0.6-0.1,0.6-0.4c0-0.1,0-0.6-0.4-0.4c-0.1,0-0.6,0-0.7,0c-0.1,0-0.4,0-0.6-0.1
		c-0.1-0.4-0.4-0.6-0.7-0.7c-0.6-0.4-0.6-1.1,0-1.6c0.1-0.1,0.4-0.6,0.4-0.7c0.1-0.4,0.4-0.7,1.1-0.7c0.4,0,0.6-0.1,0.7-0.4
		c0.1-0.1,0.4-0.1,0.6,0c0.1,0.1,0,0.4,0,0.6c-0.1,0.6-0.1,0.6,0.4,0.7c0.6,0.1,0.6,0.1,0.4,0.7c0,0.1-0.1,0.1-0.1,0.4
		C180.5,352.7,180.1,352.9,180.1,353.2z"/>
	<path fill="#1A4922" d="M235.2,338.3c-0.4,0-0.7,0-1.2,0c-0.5,0-0.7,0-1.1-0.6c0-0.1-0.1-0.1-0.4-0.1c-0.1,0-0.4,0-0.6,0
		c-0.1,0-0.7,0-0.7-0.4c0-0.4,0.4-0.4,0.6-0.6c0.4,0,0.7-0.4,1.2-0.7c0-0.1,0.1-0.1,0.1-0.4c0-0.6,0.4-0.6,0.7-0.6
		c0.1,0,0.6,0,0.7-0.1c0.4,0,0.6-0.1,0.4-0.6c0-0.4,0.1-0.6,0.6-0.6c0.4,0,0.7,0,1.2-0.4l0.1-0.1c1.2-0.1,2.3-0.6,3.7-0.6
		c1.6,0,2.9,0,4.3-0.6c0.4-0.1,0.6-0.1,1.1,0c0.1,0,0.6,0,0.7,0.4c0,0.4-0.1,0.6-0.6,0.7c-0.6,0.1-1.1,0.1-1.7,0.1
		c-1.6,0.1-2.8,0.4-4,0.6c-0.1,0-0.6,0.1-0.7,0.1c-0.4,0.4-0.7,0.6-1.6,0.4c-0.1,0-0.4,0-0.4,0.1c-0.6,0.7-1.7,1.2-2.4,1.7
		c-0.4,0.1-0.4,0.4-0.1,0.6c0.1,0.1,0.6,0.4,0.7,0.6c0.1,0,0.4,0.1,0.4,0.1c0.1,0,0.4,0.1,0.4,0.4c0,0.2-0.1,0.1-0.4,0.1
		c-0.1,0-0.4,0-0.6,0C235.7,338.6,235.3,338.6,235.2,338.3L235.2,338.3z"/>
	<path fill="#1A4922" d="M71.7,332.6c-0.7-0.6-1.6-0.4-2.2,0c-0.4,0.1-0.7,0.4-1.2,0.1c-0.4,0-1.1,0-1.7,0c-0.1,0-0.4,0-0.6-0.4
		c0-0.1,0.1-0.4,0.4-0.4c0.4-0.1,0.7-0.1,1.6-0.4c1.6-0.6,2.9-0.6,4.5-0.7c0.4,0,0.4,0.1,0.6,0.4c0.1,0.4,0.4,0.6,1.1,0.4h0.1
		c0.7,0.4,2,0.1,2.4,0.6c0.6,0.4,1.1,0.4,1.7,0.4c0.4,0,0.7-0.1,0.7-0.6c0-0.1,0-0.4,0.1-0.4s0.1,0.1,0.4,0.1
		c0.1,0.6,0.6,0.6,1.2,0.6c0.4,0,0.7,0,1.2,0c0.1,0,0.4,0,0.6,0.1c0.1,0.1-0.1,0.4-0.4,0.6c-0.4,0.1-1.1,0.4-1.6,0.1
		c-1.1-0.1-2,0-2.9,0.1c-0.6,0.1-1.6,0.4-2.2,0.4c-0.6,0-1.2,0-1.7-0.4l-0.1-0.1c-0.6,0.1-1.2-0.1-2.2-0.1c-0.1,0-0.4,0-0.6-0.1
		C71,332.8,71.7,332.6,71.7,332.6C71.4,332.8,71.7,332.8,71.7,332.6z"/>
	<path fill="#1A4922" d="M161.3,344.6c-1.1,0.1-2,0-2-1.1c0.1-0.1,0.6-0.4,0.7-0.7c0.1-0.1,0.6-0.4,0.7-0.1c0.1,0,0.1,0,0.4,0.1
		c0.4,0.1,0.7,0.4,1.2,0.6c0.1-0.4,0.7-0.1,1.1-0.1c0.4,0,0.7-0.1,1.2,0c0.5,0.1,0.7,0,1.1-0.1c0.4-0.1,0.7-0.1,1.2,0
		c0.1,0,0.4,0.1,0.6,0c0.6-0.1,1.1,0.1,1.2,0.7c0.1,0.4,0.1,0.7-0.1,1.1c-0.6,0.4-1.2,0.6-2,0.7c-0.6,0.1-1.2,0.4-2,0.6
		c-0.7,0.1-1.6,0-2.2-0.1c-0.4,0-1.1-0.1-1.6-0.1c-0.1,0-0.4,0-0.6-0.1C160.9,345,161,344.8,161.3,344.6z"/>
	<path fill="#1A4922" d="M342.8,459c-0.4-0.1-0.7-0.1-1.6-0.4c-0.1,0-0.4-0.1-0.7-0.1c-0.6-0.1-0.7-0.4-0.4-1.1
		c0.4-0.6,1.2-1.1,2-1.6c0.6-0.4,1.2-0.6,1.7-1.1c0.1,0,0.1-0.1,0.1-0.1c0.1-0.7,1.1-1.2,1.6-2c0.1-0.4,0.4-0.4,0.7,0
		c0.1,0.1,0.6,0.6,0.7,0.7s0.4,0.4,0.1,0.6c-0.4,0.6-0.7,1.1-1.6,1.6c-0.4,0.1-0.7,0.7-1.6,1.1c-0.1,0.1-0.4,0.4-0.1,0.6
		c0.1,0.6,0,0.7-0.6,1.1C343.4,458.5,343.3,459,342.8,459z"/>
	<path fill="#1A4922" d="M110.4,390.5c-0.1,0-0.6,0-1.1,0c-0.5,0-0.6,0-0.4-0.4c0-0.1,0-0.1-0.1-0.4c-0.1,0-0.4-0.1-0.6-0.4
		c-0.1-0.1-0.1-0.4-0.4-0.4c-0.6,0-0.7-0.1-1.6-0.6c-0.9-0.5-1.7-0.7-2.4-0.1c-0.1,0.1-0.6,0.1-1.1,0.4c-0.1,0-0.1,0-0.4-0.1
		c0-0.1,0-0.1,0-0.1c0.1-0.4,0.6-0.7,1.1-0.7c0.7-0.1,2-0.6,2.9-0.1c0.4,0.1,0.7,0.1,1.2,0.1c0.7,0.1,1.7,0.4,2.2,1.2
		c0.1,0.1,0.4,0.1,0.7,0.4c0.6,0.1,1.2,0.4,1.7,0.7c0.4,0.1,0.4,0.6,0,0.7C111.5,390.8,111.2,390.5,110.4,390.5z"/>
	<path fill="#1A4922" d="M277,330.1c-1.6,0.1-2.8-0.1-4.3-0.1c-0.1,0-0.6-0.1-0.7-0.4c-0.1-0.4-0.4-0.6-0.7-0.6
		c-0.4,0-0.6-0.4-0.6-0.7s0.1-0.6,0.6-0.6c1.2-0.1,2.4-0.4,3.9,0.1c0.1,0.1,0.6,0.1,0.6,0.6c0,0.1,0.1,0.1,0.4,0.1
		C276.4,328.7,277,329.2,277,330.1L277,330.1z"/>
	<path fill="#1A4922" d="M348.3,452.7c0-0.6-0.1-0.7-0.6-1.1c-0.7-0.4-0.7-0.6-0.1-1.2c0.1-0.1,0.1-0.6,0.4-0.7
		c0.1-0.7,0.6-1.1,1.6-0.6c0.6,0.4,1.2,0.7,2.2,0.4c0.1-0.1,0.4,0.1,0.4,0.4c0,0.6-0.1,1.2-0.6,1.6c-0.6,0.4-0.7,0.7-1.2,1.6
		c-0.1,0.1-0.4,0.4-0.6,0.6C348.4,453.7,348.3,453.7,348.3,452.7z"/>
	<path fill="#1A4922" d="M173.7,354.9c0.4,0.1,0.7-0.1,1.1-0.4c0.6-0.4,0.7-0.4,1.2,0c0.6,0.6,0.7,1.2,0.6,2.2
		c-0.1,0.4-0.4,0.6-0.7,0.6c-0.6,0-1.1,0.1-1.6,0.4c-0.7,0.4-1.6,0.1-2-0.1c-0.1-0.1-0.1-0.4,0-0.6c0.4-0.1,0.4-0.6,0-0.7
		c-0.1-0.1-0.1-0.6,0-0.7C173.1,354.9,173.2,354.6,173.7,354.9z"/>
	<path fill="#1A4922" d="M316.9,334.2c-0.6,0-1.2,0-2,0.1c-0.7,0.1-1.6,0.1-2.3-0.1c-0.6-0.1-0.6-0.6-0.1-1.1c0.4-0.6,1.2-0.6,2-0.4
		c0.1,0,0.6,0.1,0.7,0.1c0.1,0,0.4,0.1,0.4,0c1.6-0.4,2.8,0,4,0.1c0.1,0,0.4,0,0.4,0.4c0,0.1-0.1,0.4-0.4,0.4
		C318.9,334.2,318,334.2,316.9,334.2z"/>
	<path fill="#1A4922" d="M113.8,389.9c0.6,0.1,1.2,0,2,0.1c0.7,0.1,1.6,0.4,2.2,1.1c0.1,0.1,0.4,0.4,0.1,0.6
		c-0.1,0.1-0.4,0.4-0.7,0.1c-0.6-0.1-1.1,0-1.6,0c-0.4,0.1-1.1,0.1-1.6,0c-0.6-0.1-1.2,0-1.7-0.1c-0.1,0-0.4,0-0.4-0.1
		s0.1-0.1,0.4-0.1c0.4,0,0.6-0.1,0.6-0.7C112.9,390.1,113.2,389.9,113.8,389.9z"/>
	<path fill="#1A4922" d="M323.2,453.5L323.2,453.5c0,1.3-0.6,1.8-2,1.7c-1.1-0.1-1.6-0.4-1.7-1.6c0-0.4-0.4-0.6-0.4-1.1
		c0-0.6,0.1-0.7,0.7-0.6c0.4,0.1,0.7,0.1,1.6,0.4c0.1,0,0.6,0,0.7,0C323.1,452.6,323.2,452.6,323.2,453.5L323.2,453.5L323.2,453.5z"
		/>
	<path fill="#1A4922" d="M90.5,333.1c0,0.6,0,0.6-0.6,0.7c-0.6,0-1.1,0.1-1.7,0c-0.1,0-0.4,0-0.4-0.1c-0.4-0.4-1.1-0.4-1.6-0.4
		c-0.1,0-0.6,0-0.6-0.1s0.1-0.4,0.4-0.6c0.6-0.6,1.6-0.7,2.3-0.6c0.4,0,0.7,0,1.2,0C90.4,331.8,90.5,332,90.5,333.1z"/>
	<path fill="#1A4922" d="M88.1,331c-0.1,0-0.4,0-0.6-0.1c-0.7-0.4-2-0.4-2.8-0.4c-0.1,0-0.1,0-0.4,0c-0.1,0-0.6,0-0.7-0.1
		c-0.1-0.4,0.1-0.4,0.4-0.7c0.4-0.4,0.7-0.6,1.6-0.4c0.1,0.1,0.4,0.1,0.6,0.1c0.7-0.1,1.7,0.1,2.3,0.4h0.1c0.4,0.1,0.6,0.6,0.6,0.7
		C88.8,331,88.3,331,88.1,331z"/>
	<path fill="#1A4922" d="M296.1,386.7c0-0.6,0.4-1.2,1.1-2c0.1-0.1,0.6-0.1,1.1,0c0.1,0.1,0.1,0.4,0.1,0.7c-0.1,0.6-0.1,1.2-0.6,2
		c-0.1,0.4-0.1,0.7-0.7,0.6c-0.4,0-0.6-0.4-0.6-0.7C296.1,387.1,296.1,386.7,296.1,386.7z"/>
	<path fill="#1A4922" d="M285.2,391.1c0-0.4,0.1-0.7,0.6-1.1c0.4-0.1,1.1-0.1,1.6-0.1c0.1,0,0.4,0.1,0.4,0.4c0,0.7-0.6,1.6-1.2,1.7
		C285.8,392.5,285.2,391.9,285.2,391.1z"/>
	<path fill="#1A4922" d="M323.7,334.3c-0.7,0-1.6-0.1-2.3-0.4c-0.1,0-0.6-0.1-0.4-0.6c0-0.4,0.4-0.4,0.6-0.1c1.1,0.1,2.2,0,3.4,0.1
		c0.1,0,0.6,0,0.6,0.1c0,0.4-0.4,0.4-0.6,0.6C324.7,334.2,324.2,334.3,323.7,334.3z"/>
	<path fill="#1A4922" d="M353.6,336.9c0.4,0,0.7,0,1.2,0.4c0.1,0,0.1,0.1,0.1,0.4s-0.1,0.1-0.4,0.4c-0.1,0-0.4,0-0.6,0
		c-0.6,0-1.6,0-2.2,0c-0.1,0-0.1,0-0.4-0.1c0-0.1,0-0.1,0-0.4C352.3,337.2,352.9,336.9,353.6,336.9z"/>
	<path fill="#1A4922" d="M90,329.6c0.7,0.1,1.7,0.1,2.4,0.4c0.1,0,0.1,0.1,0.1,0.1c0,0.1,0,0.1-0.1,0.1c-0.6,0.1-1.2,0.4-2,0.4
		c-0.4,0-0.6-0.4-0.7-0.7c-0.1-0.1-0.1-0.1-0.1-0.4C89.8,329.6,90,329.3,90,329.6z"/>
	<path fill="#1A4922" d="M77.8,329.6c0.4,0,0.7,0.1,1.2,0.4c0.1,0.1,0.1,0.1,0.1,0.4c0,0.1-0.1,0.1-0.4,0.1
		c-0.7-0.1-1.7-0.4-2.4-0.1c-0.1,0-0.1,0-0.4-0.1c0-0.1,0.1-0.4,0.1-0.4C76.6,329.8,77.3,329.6,77.8,329.6z"/>
	<path fill="#1A4922" d="M331.5,418.6c-0.1-0.1-0.4-0.4-0.7-0.7c-0.1-0.1-0.1-0.1,0-0.4c0-0.1,0.1-0.1,0.1,0
		c0.7,0.6,1.7,0.7,2.4,1.2c0.4,0.1,0.4,0.6,0.1,1.2C333.2,418.9,332.3,418.6,331.5,418.6L331.5,418.6z"/>
	<path fill="#1A4922" d="M331.5,418.6c0.1,0.1,0.6,0.4,0.7,0.6c0.1,0.1,0.1,0.1,0.1,0.4c0,0.1-0.1,0.1-0.4,0.1
		c-0.6,0-1.1-0.4-1.6-0.7c-0.1-0.1-0.1-0.4,0-0.6c0.1-0.1,0.1-0.1,0.6-0.1C331.3,418.3,331.3,418.3,331.5,418.6L331.5,418.6z"/>
	<path fill="#1A4922" d="M119.7,391.6c0.1,0,0.4,0.1,0.7,0.1c0.1,0,0.4,0.1,0.4,0.1c0,0.1-0.1,0.1-0.1,0.1c-0.4,0.1-0.7,0.1-1.2-0.1
		c-0.1-0.1-0.4-0.1-0.1-0.4C118.7,391.6,119.2,391.6,119.7,391.6z"/>
	<path fill="#1A4922" d="M329.9,417.5c-0.4,0-1.2-1.1-1.2-1.6c0-0.1,0.1-0.4,0.4-0.1c0.4,0.4,0.7,0.6,1.1,1.1
		C330.2,417.2,330.2,417.2,329.9,417.5z"/>
	<path fill="#1A4922" d="M334.6,419.8c0-0.1,0-0.4,0.1-0.4s0.4,0.1,0.4,0.4c0.1,0.4,0.4,0.7,0.7,0.7l0.1,0.1c0,0.1-0.1,0.1-0.1,0.1
		C335.2,420.6,334.9,420.5,334.6,419.8C334.7,419.8,334.6,419.8,334.6,419.8z"/>
	<path fill="#1A4922" d="M282.8,330.7c0-0.1-0.1-0.4,0-0.4c0.4-0.1,1.1-0.1,1.6,0l0.1,0.1c0,0.1,0,0.1-0.1,0.1
		C283.9,330.7,283.5,330.7,282.8,330.7L282.8,330.7z"/>
	<path fill="#1A4922" d="M253.7,335.5c0.4-0.6,1.2-0.4,1.7,0c0,0.1,0,0.1-0.1,0.1c-0.1,0-0.4,0-0.4,0
		C254.3,335.6,254,335.6,253.7,335.5C253.7,335.6,253.7,335.6,253.7,335.5z"/>
	<path fill="#1A4922" d="M334.7,419.8c-0.1,0.7-0.6,0.7-1.6,0C333.6,419.8,334,419.8,334.7,419.8
		C334.6,419.8,334.7,419.8,334.7,419.8z"/>
	<path fill="#1A4922" d="M322.6,413.1c-0.4,0-0.7,0-1.1,0c-0.4,0-0.1,0-0.4-0.1c0-0.1,0-0.1,0.1-0.4
		C321.9,412.4,322,412.4,322.6,413.1z"/>
	<path fill="#1A4922" d="M191.7,367.3c-0.1,0.6-0.1,1.2,0.1,2c0.4,0.6,0,1.6-0.6,2c-0.6,0.1-0.7,0-0.7-0.6c0-0.1,0-0.6-0.1-0.7
		c-0.1-0.4,0-0.6,0.1-0.7c0.1-0.1,0.4-0.1,0.1-0.6c0-0.1,0-0.1,0-0.4c0-0.1,0-0.1,0-0.4c0-0.4,0.4-0.7,0.6-0.6
		C191.7,366.4,191.7,366.9,191.7,367.3z"/>
</g>
<line fill="none" stroke="#FFFFFF" stroke-width="5" stroke-miterlimit="10" x1="197.4" y1="391.1" x2="391.5" y2="340.2"/>
<path fill="none" stroke="#FFFFFF" stroke-width="5" stroke-miterlimit="10" d="M199.2,390.1C135.8,371.6,70.5,357,7.3,338.6"/>
<line fill="none" stroke="#FFFFFF" stroke-width="2" stroke-miterlimit="10" x1="9.8" y1="341.4" x2="5.2" y2="339.9"/>
<line fill="none" stroke="#FFFFFF" stroke-width="5" stroke-miterlimit="10" x1="201.4" y1="390.1" x2="201.8" y2="502.6"/>
<path fill="#FFFFFF" d="M330.2,467c0.4-0.7,1.1-1.2,2.1-1.7v-63.7l-37.4,10.1v63.6l2.2,0.6c0.7-1,2.1-1.6,3.7-1.6c0.4,0,1,0,1.2,0.1
	c0.7-1.1,2.2-1.7,3.9-1.7c4.8,0.1,8.1-0.6,12.7-2.4c2.1-0.7,4-1.6,6.1-2.1c0.7-0.1,2.2,0,2.8-0.4C328.2,467.1,329.2,466.8,330.2,467
	z"/>
<polygon fill="none" stroke="#FFFFFF" stroke-width="4" stroke-miterlimit="10" points="393.7,338.8 393.9,448.7 199.2,503.8 
	4.1,449.3 4.1,339.5 198.8,284.4 "/>
<polygon fill="#1A4922" points="199,501.9 5.4,447.6 6.2,341 198.7,393.4 "/>
</svg>
